<?xml version="1.0" encoding="UTF-8"?>
<svg width="39px" height="39px" viewBox="0 0 39 39" version="1.1" xmlns="http://www.w3.org/2000/svg" xmlns:xlink="http://www.w3.org/1999/xlink">
    <!-- Generator: Sketch 45.1 (43504) - http://www.bohemiancoding.com/sketch -->
    <title>Content</title>
    <desc>Created with Sketch.</desc>
    <defs></defs>
    <g id="Portfolio" stroke="none" stroke-width="1" fill="none" fill-rule="evenodd">
        <g id="Home-Page" transform="translate(-120.000000, -5378.000000)" fill-rule="nonzero" fill="#6B6B6B">
            <g id="Services-Offered" transform="translate(49.000000, 5063.811203)">
                <g id="Services-Icons" transform="translate(69.997086, 116.566443)">
                    <g id="Icon-Text" transform="translate(0.000000, 3.001149)">
                        <g id="Content" transform="translate(0.447876, 194.074293)">
                            <path d="M20,10.6290689 C15.864375,10.6290689 12.5,13.9947323 12.5,18.1319411 C12.5,20.8292236 13.926875,23.2826628 16.25,24.6238012 L16.25,25.3303217 C15.8725,25.616056 15.625,26.0643527 15.625,26.5732975 C15.625,26.9265577 15.746875,27.2491812 15.945,27.5111565 C15.746875,27.7725065 15.625,28.0951301 15.625,28.4483903 C15.625,29.3105953 16.325625,30.0114887 17.1875,30.0114887 L22.8125,30.0114887 C23.674375,30.0114887 24.375,29.3105953 24.375,28.4483903 C24.375,28.0951301 24.253125,27.7725065 24.055,27.5105313 C24.253125,27.248556 24.375,26.9259325 24.375,26.5726722 C24.375,26.0637274 24.1275,25.6154308 23.75,25.3296964 L23.75,24.623176 C26.073125,23.2820376 27.5,20.8292236 27.5,18.1313158 C27.5,13.9947323 24.135625,10.6290689 20,10.6290689 Z M20,19.3824198 C19.310625,19.3824198 18.75,18.8215801 18.75,18.1319411 C18.75,17.4423021 19.310625,16.8814624 20,16.8814624 C20.689375,16.8814624 21.25,17.4423021 21.25,18.1319411 C21.25,18.8215801 20.689375,19.3824198 20,19.3824198 Z M22.8125,26.2600526 C22.984375,26.2600526 23.125,26.4007314 23.125,26.5726722 C23.125,26.7446131 22.984375,26.8852919 22.8125,26.8852919 L17.1875,26.8852919 C17.015625,26.8852919 16.875,26.7446131 16.875,26.5726722 C16.875,26.4007314 17.015625,26.2600526 17.1875,26.2600526 L22.8125,26.2600526 Z M22.8125,28.76101 L17.1875,28.76101 C17.015625,28.76101 16.875,28.6203311 16.875,28.4483903 C16.875,28.2764495 17.015625,28.1357706 17.1875,28.1357706 L22.8125,28.1357706 C22.984375,28.1357706 23.125,28.2764495 23.125,28.4483903 C23.125,28.6203311 22.984375,28.76101 22.8125,28.76101 Z M22.84,23.6953208 L22.5,23.8703878 L22.5,25.0095739 L20.625,25.0095739 L20.625,20.5441145 C21.700625,20.2646325 22.5,19.2936358 22.5,18.1319411 C22.5,16.7526631 21.37875,15.6309837 20,15.6309837 C18.62125,15.6309837 17.5,16.7526631 17.5,18.1319411 C17.5,19.2936358 18.299375,20.2646325 19.375,20.5441145 L19.375,25.0095739 L17.5,25.0095739 L17.5,23.8703878 L17.16,23.695946 C15.056875,22.6192839 13.75,20.4872177 13.75,18.1319411 C13.75,14.6843713 16.55375,11.8795476 20,11.8795476 C23.44625,11.8795476 26.25,14.6843713 26.25,18.1319411 C26.25,20.4872177 24.943125,22.6192839 22.84,23.6953208 Z" id="Shape"></path>
                            <path d="M38.925,23.8822673 C38.486875,21.8796257 37.744375,19.8588521 36.741875,17.8793444 C38.199375,12.8886839 37.5525,8.26128749 34.646875,5.35517501 C32.05875,2.76668411 28.093125,1.89697618 23.4725,2.9079882 C23.023125,3.00615078 22.573125,3.12619673 22.1225,3.257497 C20.144375,2.25586356 18.12625,1.51370446 16.125625,1.07603692 C11.01875,-0.0425162756 6.6325,0.916600883 3.774375,3.77582042 C0.91625,6.63503995 -0.041875,11.0235949 1.075,16.1324256 C1.513125,18.1350673 2.255,20.1558408 3.2575,22.1353486 C1.773125,27.1954106 2.478125,31.7846674 5.3525,34.6601432 C7.236875,36.5452398 9.851875,37.5181122 12.9175,37.5181122 C14.0625,37.5181122 15.270625,37.3818101 16.52625,37.10733 C16.975625,37.0091674 17.425625,36.8891215 17.87625,36.7578212 C19.854375,37.7594546 21.8725,38.5016137 23.873125,38.9392813 C25.26375,39.2431476 26.600625,39.3938303 27.868125,39.3938303 C31.255625,39.3938303 34.145,38.3196691 36.225,36.2388725 C39.08375,33.3802783 40.041875,28.9917233 38.925,23.8822673 Z M33.763125,6.23926344 C36.104375,8.58141004 36.7675,12.2309321 35.87375,16.2831083 C34.46625,13.879063 32.674375,11.5613008 30.558125,9.44486557 C28.4425,7.32780515 26.125625,5.53524394 23.7225,4.12720493 C27.736875,3.24249125 31.398125,3.87335775 33.763125,6.23926344 Z M29.375,27.1979116 C29.375,26.3357065 30.075625,25.6348132 30.9375,25.6348132 C31.799375,25.6348132 32.5,26.3357065 32.5,27.1979116 C32.5,28.0601166 31.799375,28.76101 30.9375,28.76101 C30.075625,28.76101 29.375,28.0601166 29.375,27.1979116 Z M32.05375,24.618174 C31.71125,24.4687418 31.334375,24.3843345 30.9375,24.3843345 C29.386875,24.3843345 28.125,25.6466928 28.125,27.1979116 C28.125,27.7693804 28.298125,28.2995833 28.591875,28.7435033 C25.31125,32.0047517 21.57625,34.278122 18.0075,35.4210595 C15.306875,33.9930128 12.689375,32.0503942 10.325625,29.685739 C7.964375,27.3235847 6.02375,24.7082085 4.596875,22.0096755 C4.889375,21.099327 5.264375,20.1714718 5.7075,19.2348633 C5.97875,19.3223968 6.2625,19.3824198 6.5625,19.3824198 C8.113125,19.3824198 9.375,18.1200615 9.375,16.5688427 C9.375,15.7872935 9.05375,15.080773 8.538125,14.5699525 C9.384375,13.4445217 10.32,12.3584809 11.336875,11.3405913 C14.635,8.04120324 18.399375,5.74532436 21.994375,4.59425872 C24.695,6.02168015 27.31125,7.9642988 29.675,10.328954 C32.038125,12.692984 33.98,15.3108611 35.4075,18.0118951 C34.71,20.1808504 33.586875,22.4235839 32.05375,24.618174 Z M8.125,16.5688427 C8.125,17.4304225 7.424375,18.1319411 6.5625,18.1319411 C5.700625,18.1319411 5,17.4304225 5,16.5688427 C5,15.7072629 5.700625,15.0057443 6.5625,15.0057443 C7.424375,15.0057443 8.125,15.7072629 8.125,16.5688427 Z M2.29625,15.8654484 C1.273125,11.1874076 2.111875,7.20775919 4.658125,4.65990885 C6.496875,2.82045469 9.08125,1.8719666 12.1375,1.8719666 C13.313125,1.8719666 14.559375,2.01264546 15.859375,2.29712936 C17.378125,2.62975669 18.910625,3.14620439 20.42625,3.82709004 C16.9175,5.16385177 13.460625,7.44722586 10.4525,10.4565028 C9.364375,11.5450445 8.365,12.7092402 7.465,13.9172026 C7.180625,13.8196653 6.88,13.7552656 6.5625,13.7552656 C5.011875,13.7552656 3.75,15.0176239 3.75,16.5688427 C3.75,17.3685238 4.08875,18.0869238 4.625625,18.5996201 C4.330625,19.2161061 4.06125,19.8300911 3.828125,20.4390742 C3.14625,18.9209931 2.62875,17.3866558 2.29625,15.8654484 Z M6.236875,33.7760548 C3.9275,31.4657954 3.2275,27.8431586 4.1325,23.742839 C5.53875,26.1431328 7.32875,28.4565184 9.441875,30.5698274 C11.558125,32.6875131 13.875,34.4806995 16.279375,35.8887385 C12.26375,36.7740774 8.6025,36.1432109 6.236875,33.7760548 Z M35.341875,35.3554093 C32.79625,37.9026344 28.82,38.7429561 24.140625,37.7181888 C22.621875,37.3855615 21.09,36.8691138 19.57375,36.1882282 C23.064375,34.8583441 26.50375,32.590601 29.500625,29.6038326 C29.9225,29.8570545 30.410625,30.0114887 30.9375,30.0114887 C32.488125,30.0114887 33.75,28.7491304 33.75,27.1979116 C33.75,26.4957678 33.4825,25.8605246 33.055625,25.3672108 C34.395,23.4546036 35.43625,21.5013559 36.171875,19.576244 C36.85375,21.0949503 37.37125,22.6292877 37.70375,24.150495 C38.726875,28.8279106 37.888125,32.8081842 35.341875,35.3554093 Z" id="Shape"></path>
                        </g>
                    </g>
                </g>
            </g>
        </g>
    </g>
</svg>