<?xml version="1.0" encoding="UTF-8"?>
<svg width="24px" height="25px" viewBox="0 0 24 25" version="1.1" xmlns="http://www.w3.org/2000/svg" xmlns:xlink="http://www.w3.org/1999/xlink">
    <!-- Generator: Sketch 45.1 (43504) - http://www.bohemiancoding.com/sketch -->
    <title>facebook</title>
    <desc>Created with Sketch.</desc>
    <defs>
        <polygon id="path-1" points="8.98876351e-06 24.0548797 23.9904809 24.0548797 23.9904809 3.60514505e-05 8.98876351e-06 3.60514505e-05"></polygon>
    </defs>
    <g id="Portfolio" stroke="none" stroke-width="1" fill="none" fill-rule="evenodd" opacity="0.5">
        <g id="Footer" transform="translate(-730.000000, -504.000000)">
            <g transform="translate(101.000000, 449.000000)" id="social">
                <g transform="translate(0.000000, 50.301320)">
                    <g id="facebook" transform="translate(629.000000, 5.000000)">
                        <mask id="mask-2" fill="white">
                            <use xlink:href="#path-1"></use>
                        </mask>
                        <g id="Clip-2"></g>
                        <path d="M22.666436,3.60514505e-05 L1.32405393,3.60514505e-05 C0.59272809,3.60514505e-05 8.98876351e-06,0.594344212 8.98876351e-06,1.32763071 L8.98876351e-06,22.7272309 C8.98876351e-06,23.4604273 0.59272809,24.0549157 1.32405393,24.0549157 L12.8141213,24.0549157 L12.8141213,14.7395814 L9.68764944,14.7395814 L9.68764944,11.1092004 L12.8141213,11.1092004 L12.8141213,8.43192954 C12.8141213,5.32501554 14.7066157,3.6332111 17.4708404,3.6332111 C18.7949753,3.6332111 19.9329528,3.73199207 20.2645483,3.7761551 L20.2645483,7.02312898 L18.3474247,7.02403027 C16.8441438,7.02403027 16.5529978,7.74028246 16.5529978,8.7913625 L16.5529978,11.1092004 L20.1383461,11.1092004 L19.6715596,14.7395814 L16.5529978,14.7395814 L16.5529978,24.0549157 L22.666436,24.0549157 C23.3976719,24.0549157 23.9904809,23.4604273 23.9904809,22.7272309 L23.9904809,1.32763071 C23.9904809,0.594344212 23.3976719,3.60514505e-05 22.666436,3.60514505e-05" id="Fill-1" fill="#4B4B4B" mask="url(#mask-2)"></path>
                    </g>
                </g>
            </g>
        </g>
    </g>
</svg>