<?xml version="1.0" encoding="UTF-8"?>
<svg width="661px" height="349px" viewBox="0 0 661 349" version="1.1" xmlns="http://www.w3.org/2000/svg" xmlns:xlink="http://www.w3.org/1999/xlink">
    <!-- Generator: Sketch 45.1 (43504) - http://www.bohemiancoding.com/sketch -->
    <title>Option 3</title>
    <desc>Created with Sketch.</desc>
    <defs>
        <rect id="path-1" x="0" y="0" width="600.858289" height="288.907476"></rect>
        <filter x="-7.2%" y="-15.6%" width="115.6%" height="132.5%" filterUnits="objectBoundingBox" id="filter-2">
            <feOffset dx="4" dy="2" in="SourceAlpha" result="shadowOffsetOuter1"></feOffset>
            <feGaussianBlur stdDeviation="15" in="shadowOffsetOuter1" result="shadowBlurOuter1"></feGaussianBlur>
            <feComposite in="shadowBlurOuter1" in2="SourceAlpha" operator="out" result="shadowBlurOuter1"></feComposite>
            <feColorMatrix values="0 0 0 0 0   0 0 0 0 0   0 0 0 0 0  0 0 0 0.5 0" type="matrix" in="shadowBlurOuter1"></feColorMatrix>
        </filter>
        <polygon id="path-3" points="0 227.319786 556.786665 227.319786 556.786665 0.286517647 0 0.286517647"></polygon>
    </defs>
    <g id="Portfolio" stroke="none" stroke-width="1" fill="none" fill-rule="evenodd">
        <g id="BLOCBOX-CASE-STUDY" transform="translate(-750.000000, -12209.000000)">
            <g id="Typography,-Logo-and-Color" transform="translate(55.230000, 11783.658889)">
                <g id="Option-3" transform="translate(721.000000, 453.000000)">
                    <g id="Rectangle-16" opacity="0.547497736">
                        <use fill="black" fill-opacity="1" filter="url(#filter-2)" xlink:href="#path-1"></use>
                        <use fill="#FFFFFF" fill-rule="evenodd" xlink:href="#path-1"></use>
                        <rect stroke="#979797" stroke-width="0.986631016" x="0.493315508" y="0.493315508" width="599.871658" height="287.920845"></rect>
                    </g>
                    <polygon id="Fill-1" fill="#333333" points="402.543087 247.041159 575.927307 247.041159 575.927307 168.110678 402.543087 168.110678"></polygon>
                    <g id="Group-12" transform="translate(20.719251, 45.941290)">
                        <path d="M176.078197,201.667222 L2.82815807,201.667222 C2.39246182,201.667222 2.03885326,201.314403 2.03885326,200.877917 L2.03885326,123.526045 C2.03885326,123.090349 2.39246182,122.736741 2.82815807,122.736741 L176.078197,122.736741 C176.514682,122.736741 176.867501,123.090349 176.867501,123.526045 L176.867501,200.877917 C176.867501,201.314403 176.514682,201.667222 176.078197,201.667222 Z" id="Fill-2" fill="#FFFFFF"></path>
                        <path d="M78.0093626,79.631384 L0.789304813,79.631384 C0.352819251,79.631384 0,79.2785647 0,78.8420791 L0,1.49020749 C0,1.05451123 0.352819251,0.700902674 0.789304813,0.700902674 L78.0093626,0.700902674 C78.4450588,0.700902674 78.7986674,1.05451123 78.7986674,1.49020749 L78.7986674,78.8420791 C78.7986674,79.2785647 78.4450588,79.631384 78.0093626,79.631384" id="Fill-4" fill="#7F7364"></path>
                        <polygon id="Fill-6" fill="#FF8B05" points="96.6874717 79.631384 175.486139 79.631384 175.486139 0.700902674 96.6874717 0.700902674"></polygon>
                        <polygon id="Fill-8" fill="#FFE6C9" points="191.272235 79.631384 270.071692 79.631384 270.071692 0.700902674 191.272235 0.700902674"></polygon>
                        <polygon id="Fill-9" fill="#7F7364" points="285.857788 79.631384 364.656456 79.631384 364.656456 0.700902674 285.857788 0.700902674"></polygon>
                        <polygon id="Fill-10" fill="#333333" points="476.408599 79.631384 555.208056 79.631384 555.208056 0.700902674 476.408599 0.700902674"></polygon>
                        <polygon id="Fill-11" fill="#CCB8A0" points="380.442552 79.631384 459.241219 79.631384 459.241219 0.700902674 380.442552 0.700902674"></polygon>
                    </g>
                    <text id="#7F7364" font-family="LucidaGrande, Lucida Grande" font-size="9.47165775" font-weight="normal" fill="#FFFFFF">
                        <tspan x="39.3993337" y="89.6809626">#7F7364</tspan>
                    </text>
                    <text id="#FF8B05" font-family="LucidaGrande, Lucida Grande" font-size="9.47165775" font-weight="normal" fill="#FFFFFF">
                        <tspan x="139.759914" y="86.3871048">#FF8B05</tspan>
                    </text>
                    <text id="#FFE6C9" font-family="LucidaGrande, Lucida Grande" font-size="9.47165775" font-weight="normal" fill="#333333">
                        <tspan x="234.268115" y="86.3871048">#FFE6C9</tspan>
                    </text>
                    <text id="#7F7364" font-family="LucidaGrande, Lucida Grande" font-size="9.47165775" font-weight="normal" fill="#FFFFFF">
                        <tspan x="329.174126" y="83.9528887">#7F7364</tspan>
                    </text>
                    <text id="#CCB8A0" font-family="LucidaGrande, Lucida Grande" font-size="9.47165775" font-weight="normal" fill="#333333">
                        <tspan x="422.27105" y="86.3871048">#</tspan>
                        <tspan x="428.260209" y="86.3871048" letter-spacing="-0.198904813">C</tspan>
                        <tspan x="434.614692" y="86.3871048">CB8A0</tspan>
                    </text>
                    <text id="#333333" font-family="LucidaGrande, Lucida Grande" font-size="9.47165775" font-weight="normal" fill="#FFFFFF">
                        <tspan x="515.315012" y="89.6809626">#333333</tspan>
                    </text>
                    <g id="Group-70" transform="translate(20.950273, 20.289278)">
                        <path d="M365.248513,226.752276 L191.998475,226.752276 C191.561989,226.752276 191.20917,226.399457 191.20917,225.962971 L191.20917,148.611099 C191.20917,148.175403 191.561989,147.821795 191.998475,147.821795 L365.248513,147.821795 C365.684209,147.821795 366.037818,148.175403 366.037818,148.611099 L366.037818,225.962971 C366.037818,226.399457 365.684209,226.752276 365.248513,226.752276 Z" id="Fill-13" fill="#7F7364"></path>
                        <path d="M84.8795506,187.042667 C85.3847057,186.514622 85.6372832,185.767939 85.6372832,184.80183 C85.6372832,183.83651 85.3847057,183.088249 84.8795506,182.560204 C84.3736062,182.03216 83.7058543,181.768532 82.8739271,181.768532 C82.3577217,181.768532 81.8715099,181.88377 81.4168704,182.114247 C80.9614415,182.344724 80.5596853,182.650975 80.2123912,183.032209 L80.2123912,186.570662 C80.5596853,186.952686 80.9614415,187.258936 81.4168704,187.488624 C81.8715099,187.719101 82.3577217,187.834339 82.8739271,187.834339 C83.7058543,187.834339 84.3736062,187.570711 84.8795506,187.042667 M80.2123912,187.985886 L80.2123912,188.42395 C80.2123912,188.637852 80.1358287,188.817813 79.9842821,188.963834 C79.8327356,189.109067 79.6504062,189.182472 79.4365046,189.182472 C79.2233923,189.182472 79.0434308,189.109067 78.8974094,188.963834 C78.751388,188.817813 78.678772,188.637852 78.678772,188.42395 L78.678772,177.488921 C78.678772,177.275809 78.751388,177.093479 78.8974094,176.941144 C79.0434308,176.789597 79.2233923,176.713824 79.4365046,176.713824 C79.6614565,176.713824 79.8469431,176.787229 79.9929645,176.932461 C80.1389859,177.079272 80.2123912,177.263969 80.2123912,177.488921 L80.2123912,181.616985 C81.0316896,180.763747 81.9922736,180.336733 83.0925645,180.336733 C83.7895206,180.336733 84.4493795,180.513537 85.0729303,180.867935 C85.6964811,181.221544 86.2016361,181.737749 86.5891848,182.41734 C86.9767335,183.096932 87.1701132,183.891762 87.1701132,184.80183 C87.1701132,185.711109 86.9767335,186.505939 86.5891848,187.18632 C86.2016361,187.865911 85.6964811,188.382117 85.0729303,188.736515 C84.4493795,189.090123 83.7895206,189.266138 83.0925645,189.266138 C81.9922736,189.266138 81.0316896,188.839914 80.2123912,187.985886" id="Fill-15" fill="#7F7364"></path>
                        <path d="M88.8068156,188.963519 C88.6600049,188.817497 88.5881782,188.637536 88.5881782,188.423634 L88.5881782,177.489395 C88.5881782,177.275493 88.6600049,177.093164 88.8068156,176.941617 C88.952837,176.789281 89.1320092,176.713508 89.3459108,176.713508 C89.5708627,176.713508 89.75556,176.786913 89.9023707,176.932935 C90.0476028,177.078956 90.1210081,177.264443 90.1210081,177.489395 L90.1210081,188.423634 C90.1210081,188.637536 90.0452349,188.817497 89.8936883,188.963519 C89.7421418,189.10954 89.5590231,189.182156 89.3459108,189.182156 C89.1320092,189.182156 88.952837,189.10954 88.8068156,188.963519" id="Fill-17" fill="#7F7364"></path>
                        <path d="M97.1739202,187.548374 C97.595409,187.334473 97.9434924,186.998229 98.2181705,186.537275 C98.4936379,186.07711 98.6317662,185.493024 98.6317662,184.785018 C98.6317662,184.088062 98.4936379,183.510291 98.2181705,183.049337 C97.9434924,182.589172 97.595409,182.254507 97.1739202,182.04613 C96.7532207,181.839332 96.3119994,181.735144 95.8510453,181.735144 C95.3798304,181.735144 94.9330839,181.839332 94.5115951,182.04613 C94.0908956,182.254507 93.7451801,182.589172 93.4752379,183.049337 C93.2060849,183.510291 93.0711138,184.088062 93.0711138,184.785018 C93.0711138,185.493024 93.2060849,186.07711 93.4752379,186.537275 C93.7451801,186.998229 94.0908956,187.334473 94.5115951,187.548374 C94.9330839,187.762276 95.3798304,187.868043 95.8510453,187.868043 C96.3119994,187.868043 96.7532207,187.762276 97.1739202,187.548374 M93.5762689,188.71102 C92.9250924,188.340047 92.4223052,187.815159 92.0686967,187.135568 C91.7150881,186.455187 91.5374945,185.677722 91.5374945,184.802383 C91.5374945,183.925465 91.7150881,183.148 92.0686967,182.467619 C92.4223052,181.788817 92.9250924,181.26314 93.5762689,180.892167 C94.2282347,180.521983 94.9867566,180.336496 95.8510453,180.336496 C96.7050732,180.336496 97.4572806,180.521983 98.1092464,180.892167 C98.7604229,181.26314 99.265578,181.788817 99.625501,182.467619 C99.985424,183.148 100.164596,183.925465 100.164596,184.802383 C100.164596,185.677722 99.985424,186.455187 99.625501,187.135568 C99.265578,187.815159 98.7604229,188.340047 98.1092464,188.71102 C97.4572806,189.081204 96.7050732,189.266691 95.8510453,189.266691 C94.9867566,189.266691 94.2282347,189.081204 93.5762689,188.71102" id="Fill-19" fill="#7F7364"></path>
                        <path d="M103.352677,188.727674 C102.666771,188.368541 102.119783,187.851546 101.709345,187.17748 C101.298906,186.503413 101.094476,185.711741 101.094476,184.801672 C101.094476,183.891604 101.298906,183.099931 101.709345,182.425865 C102.119783,181.751799 102.666771,181.235593 103.352677,180.87567 C104.037004,180.516536 104.784476,180.336575 105.593514,180.336575 C106.188649,180.336575 106.702487,180.412348 107.135026,180.563895 C107.567565,180.716231 107.969321,180.90961 108.339505,181.145612 C108.564457,181.291634 108.676538,181.488171 108.676538,181.735223 C108.676538,181.903345 108.611815,182.058049 108.483159,182.198545 C108.353713,182.339041 108.204534,182.4085 108.037201,182.4085 C107.912491,182.4085 107.78936,182.375349 107.666228,182.308258 C107.295255,182.117247 106.977954,181.979118 106.714326,181.895452 C106.449909,181.810207 106.121559,181.769163 105.728485,181.769163 C104.761586,181.769163 104.003854,182.046209 103.453708,182.602669 C102.903563,183.15834 102.628095,183.891604 102.628095,184.801672 C102.628095,185.711741 102.903563,186.444216 103.453708,187.000676 C104.003854,187.557135 104.761586,187.834181 105.728485,187.834181 C106.121559,187.834181 106.449909,187.792348 106.714326,187.707893 C106.977954,187.624226 107.295255,187.486887 107.666228,187.295876 C107.78936,187.227995 107.912491,187.194844 108.037201,187.194844 C108.204534,187.194844 108.353713,187.264303 108.483159,187.4048 C108.611815,187.545296 108.676538,187.69921 108.676538,187.868121 C108.676538,188.115963 108.564457,188.3125 108.339505,188.457732 C107.969321,188.693734 107.567565,188.887903 107.135026,189.03945 C106.702487,189.190996 106.188649,189.26677 105.593514,189.26677 C104.784476,189.26677 104.037004,189.087597 103.352677,188.727674" id="Fill-21" fill="#7F7364"></path>
                        <path d="M116.073271,187.042667 C116.579216,186.514622 116.831793,185.767939 116.831793,184.80183 C116.831793,183.83651 116.579216,183.088249 116.073271,182.560204 C115.568116,182.03216 114.899575,181.768532 114.068437,181.768532 C113.552232,181.768532 113.06602,181.88377 112.610591,182.114247 C112.155952,182.344724 111.754196,182.650975 111.406112,183.032209 L111.406112,186.570662 C111.754196,186.952686 112.155952,187.258936 112.610591,187.488624 C113.06602,187.719101 113.552232,187.834339 114.068437,187.834339 C114.899575,187.834339 115.568116,187.570711 116.073271,187.042667 M111.406112,187.985886 L111.406112,188.42395 C111.406112,188.637852 111.330339,188.817813 111.178792,188.963834 C111.027246,189.109067 110.844127,189.182472 110.631015,189.182472 C110.417902,189.182472 110.237941,189.109067 110.09192,188.963834 C109.945898,188.817813 109.873282,188.637852 109.873282,188.42395 L109.873282,177.488921 C109.873282,177.275809 109.945898,177.093479 110.09192,176.941144 C110.237941,176.789597 110.417902,176.713824 110.631015,176.713824 C110.855967,176.713824 111.041453,176.787229 111.187475,176.932461 C111.332707,177.079272 111.406112,177.263969 111.406112,177.488921 L111.406112,181.616985 C112.2262,180.763747 113.186784,180.336733 114.287075,180.336733 C114.984031,180.336733 115.64389,180.513537 116.26744,180.867935 C116.890991,181.221544 117.396146,181.737749 117.783695,182.41734 C118.171244,183.096932 118.364623,183.891762 118.364623,184.80183 C118.364623,185.711109 118.171244,186.505939 117.783695,187.18632 C117.396146,187.865911 116.890991,188.382117 116.26744,188.736515 C115.64389,189.090123 114.984031,189.266138 114.287075,189.266138 C113.186784,189.266138 112.2262,188.839914 111.406112,187.985886" id="Fill-23" fill="#7F7364"></path>
                        <path d="M124.931403,187.548374 C125.352102,187.334473 125.700975,186.998229 125.975653,186.537275 C126.25112,186.07711 126.389249,185.493024 126.389249,184.785018 C126.389249,184.088062 126.25112,183.510291 125.975653,183.049337 C125.700975,182.589172 125.352102,182.254507 124.931403,182.04613 C124.509914,181.839332 124.068692,181.735144 123.608528,181.735144 C123.137313,181.735144 122.690566,181.839332 122.269077,182.04613 C121.848378,182.254507 121.502662,182.589172 121.23272,183.049337 C120.963567,183.510291 120.828596,184.088062 120.828596,184.785018 C120.828596,185.493024 120.963567,186.07711 121.23272,186.537275 C121.502662,186.998229 121.848378,187.334473 122.269077,187.548374 C122.690566,187.762276 123.137313,187.868043 123.608528,187.868043 C124.068692,187.868043 124.509914,187.762276 124.931403,187.548374 M121.333751,188.71102 C120.682575,188.340047 120.178998,187.815159 119.82539,187.135568 C119.471781,186.455187 119.294977,185.677722 119.294977,184.802383 C119.294977,183.925465 119.471781,183.148 119.82539,182.467619 C120.178998,181.788817 120.682575,181.26314 121.333751,180.892167 C121.985717,180.521983 122.74345,180.336496 123.608528,180.336496 C124.461766,180.336496 125.214763,180.521983 125.866729,180.892167 C126.517905,181.26314 127.02306,181.788817 127.382194,182.467619 C127.742906,183.148 127.922079,183.925465 127.922079,184.802383 C127.922079,185.677722 127.742906,186.455187 127.382194,187.135568 C127.02306,187.815159 126.517905,188.340047 125.866729,188.71102 C125.214763,189.081204 124.461766,189.266691 123.608528,189.266691 C122.74345,189.266691 121.985717,189.081204 121.333751,188.71102" id="Fill-25" fill="#7F7364"></path>
                        <path d="M128.683679,188.972043 C128.554233,188.831547 128.48951,188.643692 128.48951,188.40769 C128.48951,188.238779 128.54555,188.081707 128.658421,187.936475 L131.269441,184.851872 L128.658421,181.667816 C128.5345,181.510745 128.472145,181.348148 128.472145,181.179237 C128.472145,180.954285 128.54555,180.771956 128.691572,180.631459 C128.837593,180.490963 129.017555,180.420715 129.230667,180.420715 C129.500609,180.420715 129.702671,180.516221 129.837642,180.707233 L132.196085,183.622135 L134.538742,180.707233 C134.673713,180.516221 134.869461,180.420715 135.128353,180.420715 C135.352515,180.420715 135.538791,180.490963 135.684023,180.631459 C135.830044,180.771956 135.902661,180.943235 135.902661,181.145297 C135.902661,181.314208 135.84662,181.47128 135.735328,181.617301 L133.073003,184.750841 L135.701388,187.919111 C135.824519,188.054082 135.886085,188.216679 135.886085,188.40769 C135.886085,188.621592 135.818994,188.803132 135.684023,188.955468 C135.549052,189.107014 135.35804,189.182788 135.111777,189.182788 C134.863935,189.182788 134.667399,189.081757 134.521377,188.878905 L132.128994,186.014518 L129.871582,188.845754 C129.702671,189.069917 129.484034,189.182788 129.214092,189.182788 C128.98914,189.182788 128.812335,189.112539 128.683679,188.972043" id="Fill-27" fill="#7F7364"></path>
                        <path d="M56.2086847,189.997192 C57.0824451,189.085545 57.51972,187.793453 57.51972,186.122495 C57.51972,184.452326 57.0824451,183.161023 56.2086847,182.247798 C55.3349243,181.333783 54.1785927,180.878354 52.7412687,180.878354 C51.8485649,180.878354 51.0079553,181.077259 50.2210184,181.475068 C49.4348708,181.873667 48.7394933,182.403291 48.138043,183.06315 L48.138043,189.18184 C48.7394933,189.842489 49.4348708,190.372112 50.2210184,190.769922 C51.0079553,191.167731 51.8485649,191.366636 52.7412687,191.366636 C54.1785927,191.366636 55.3349243,190.910418 56.2086847,189.997192 M48.138043,191.628685 L48.138043,192.386418 C48.138043,192.755813 48.0070184,193.067588 47.7441799,193.318587 C47.4821307,193.571164 47.1664088,193.697453 46.7978034,193.697453 C46.4284088,193.697453 46.118212,193.571164 45.8656344,193.318587 C45.6122676,193.067588 45.4867681,192.755813 45.4867681,192.386418 L45.4867681,173.477043 C45.4867681,173.109227 45.6122676,172.792715 45.8656344,172.530666 C46.118212,172.268617 46.4284088,172.137592 46.7978034,172.137592 C47.1861414,172.137592 47.5073884,172.263092 47.7591767,172.516459 C48.0117542,172.769036 48.138043,173.088705 48.138043,173.477043 L48.138043,180.615515 C49.5556344,179.139515 51.2163318,178.401515 53.120135,178.401515 C54.3238248,178.401515 55.4659489,178.706976 56.5441393,179.319477 C57.6215403,179.931188 58.4953007,180.824681 59.1662098,181.999956 C59.8363296,183.175231 60.1717842,184.54941 60.1717842,186.122495 C60.1717842,187.696369 59.8363296,189.070548 59.1662098,190.245034 C58.4953007,191.421098 57.6215403,192.314591 56.5441393,192.925513 C55.4659489,193.537224 54.3238248,193.843475 53.120135,193.843475 C51.2163318,193.843475 49.5556344,193.105475 48.138043,191.628685" id="Fill-29" fill="#7F7364"></path>
                        <path d="M38.0924028,166.742773 C37.2588969,166.742773 36.5808841,167.419996 36.5808841,168.253502 L36.5808841,197.726933 C36.5808841,198.560439 37.2588969,199.238452 38.0458338,199.238452 L67.5192648,199.238452 C68.3985504,199.238452 69.0773525,198.560439 69.0773525,197.726933 L69.0773525,168.253502 C69.0773525,167.419996 68.3985504,166.742773 67.5658338,166.742773 L38.0924028,166.742773 Z M67.5658338,200.749971 L38.0924028,200.749971 C36.4261803,200.749971 35.0693653,199.393156 35.0693653,197.726933 L35.0693653,168.253502 C35.0693653,166.58728 36.4261803,165.231254 38.0924028,165.231254 L67.5658338,165.231254 C69.2320563,165.231254 70.5880819,166.58728 70.5880819,168.253502 L70.5880819,197.726933 C70.5880819,199.393156 69.2320563,200.749971 67.5658338,200.749971 L67.5658338,200.749971 Z" id="Fill-31" fill="#7F7364"></path>
                        <path d="M278.01565,191.339168 C278.521595,190.811913 278.774172,190.06523 278.774172,189.098332 C278.774172,188.133012 278.521595,187.385541 278.01565,186.857496 C277.510495,186.329451 276.842743,186.065823 276.010816,186.065823 C275.494611,186.065823 275.008399,186.181061 274.55297,186.411538 C274.09833,186.641226 273.696574,186.948266 273.34928,187.3295 L273.34928,190.867164 C273.696574,191.249977 274.09833,191.555438 274.55297,191.785915 C275.008399,192.015603 275.494611,192.13163 276.010816,192.13163 C276.842743,192.13163 277.510495,191.868003 278.01565,191.339168 M273.34928,192.283177 L273.34928,192.721241 C273.34928,192.934353 273.272718,193.114315 273.121171,193.260336 C272.969625,193.406358 272.787295,193.479763 272.573394,193.479763 C272.360281,193.479763 272.18032,193.406358 272.034298,193.260336 C271.888277,193.114315 271.815661,192.934353 271.815661,192.721241 L271.815661,181.785423 C271.815661,181.572311 271.888277,181.389981 272.034298,181.238435 C272.18032,181.086888 272.360281,181.011115 272.573394,181.011115 C272.798345,181.011115 272.983832,181.083731 273.129853,181.229752 C273.275875,181.375774 273.34928,181.56126 273.34928,181.785423 L273.34928,185.914276 C274.168579,185.060249 275.129163,184.633235 276.229453,184.633235 C276.92641,184.633235 277.586268,184.810828 278.209819,185.164437 C278.83337,185.518045 279.338525,186.034251 279.726074,186.714631 C280.113622,187.394223 280.307002,188.189053 280.307002,189.098332 C280.307002,190.0084 280.113622,190.80323 279.726074,191.482822 C279.338525,192.162413 278.83337,192.678619 278.209819,193.033016 C277.586268,193.386625 276.92641,193.563429 276.229453,193.563429 C275.129163,193.563429 274.168579,193.136415 273.34928,192.283177" id="Fill-33" fill="#FFFFFF"></path>
                        <path d="M281.943705,193.260021 C281.796894,193.113999 281.725067,192.934827 281.725067,192.720925 L281.725067,181.785896 C281.725067,181.571995 281.796894,181.389665 281.943705,181.238908 C282.089726,181.086572 282.268898,181.010799 282.4828,181.010799 C282.707752,181.010799 282.892449,181.083415 283.03926,181.230226 C283.184492,181.375458 283.257897,181.561734 283.257897,181.785896 L283.257897,192.720925 C283.257897,192.934827 283.182124,193.113999 283.030577,193.260021 C282.879031,193.406831 282.695912,193.479447 282.4828,193.479447 C282.268898,193.479447 282.089726,193.406831 281.943705,193.260021" id="Fill-35" fill="#FFFFFF"></path>
                        <path d="M290.310809,191.844797 C290.732298,191.631685 291.080381,191.294652 291.355059,190.834487 C291.630527,190.373533 291.768655,189.789447 291.768655,189.081441 C291.768655,188.385274 291.630527,187.806714 291.355059,187.346549 C291.080381,186.885595 290.732298,186.551719 290.310809,186.343342 C289.89011,186.136545 289.448888,186.032356 288.987934,186.032356 C288.516719,186.032356 288.069973,186.136545 287.648484,186.343342 C287.227785,186.551719 286.882069,186.885595 286.612127,187.346549 C286.342974,187.806714 286.208003,188.385274 286.208003,189.081441 C286.208003,189.789447 286.342974,190.373533 286.612127,190.834487 C286.882069,191.294652 287.227785,191.631685 287.648484,191.844797 C288.069973,192.058699 288.516719,192.165255 288.987934,192.165255 C289.448888,192.165255 289.89011,192.058699 290.310809,191.844797 M286.713158,193.008232 C286.061981,192.637259 285.559194,192.112371 285.205586,191.43278 C284.851977,190.752399 284.674384,189.974934 284.674384,189.098806 C284.674384,188.221888 284.851977,187.444423 285.205586,186.764042 C285.559194,186.08524 286.061981,185.560352 286.713158,185.189379 C287.365124,184.819195 288.123646,184.632919 288.987934,184.632919 C289.841173,184.632919 290.59417,184.819195 291.246135,185.189379 C291.897312,185.560352 292.402467,186.08524 292.76239,186.764042 C293.122313,187.444423 293.301485,188.221888 293.301485,189.098806 C293.301485,189.974934 293.122313,190.752399 292.76239,191.43278 C292.402467,192.112371 291.897312,192.637259 291.246135,193.008232 C290.59417,193.378416 289.841173,193.563903 288.987934,193.563903 C288.123646,193.563903 287.365124,193.378416 286.713158,193.008232" id="Fill-37" fill="#FFFFFF"></path>
                        <path d="M296.489566,193.024176 C295.80366,192.665043 295.256672,192.148837 294.846234,191.473982 C294.435795,190.800705 294.231365,190.009032 294.231365,189.098174 C294.231365,188.188895 294.435795,187.396433 294.846234,186.723156 C295.256672,186.04909 295.80366,185.532884 296.489566,185.172961 C297.173893,184.813828 297.921365,184.633077 298.730403,184.633077 C299.325538,184.633077 299.839376,184.709639 300.271915,184.861186 C300.704454,185.012732 301.10621,185.206901 301.476394,185.442904 C301.701346,185.588136 301.813427,185.784673 301.813427,186.032514 C301.813427,186.199847 301.748704,186.35534 301.620047,186.495836 C301.490601,186.635543 301.341423,186.705791 301.17409,186.705791 C301.04938,186.705791 300.926249,186.671851 300.802328,186.60476 C300.432144,186.413748 300.114843,186.276409 299.851215,186.191954 C299.586798,186.107498 299.258447,186.066454 298.865374,186.066454 C297.898475,186.066454 297.140743,186.3435 296.590597,186.89996 C296.040452,187.455631 295.764984,188.188895 295.764984,189.098174 C295.764984,190.009032 296.040452,190.740717 296.590597,191.297177 C297.140743,191.853637 297.898475,192.131473 298.865374,192.131473 C299.258447,192.131473 299.586798,192.08885 299.851215,192.005184 C300.114843,191.921517 300.432144,191.783389 300.802328,191.592377 C300.926249,191.525286 301.04938,191.491346 301.17409,191.491346 C301.341423,191.491346 301.490601,191.561594 301.620047,191.701301 C301.748704,191.842587 301.813427,191.996501 301.813427,192.165413 C301.813427,192.412465 301.701346,192.609002 301.476394,192.755023 C301.10621,192.991025 300.704454,193.184405 300.271915,193.336741 C299.839376,193.488287 299.325538,193.564061 298.730403,193.564061 C297.921365,193.564061 297.173893,193.384099 296.489566,193.024176" id="Fill-39" fill="#FFFFFF"></path>
                        <path d="M309.21016,191.339168 C309.716105,190.811913 309.968682,190.06523 309.968682,189.098332 C309.968682,188.133012 309.716105,187.385541 309.21016,186.857496 C308.705005,186.329451 308.036464,186.065823 307.205326,186.065823 C306.689121,186.065823 306.20212,186.181061 305.74748,186.411538 C305.292841,186.641226 304.891084,186.948266 304.543001,187.3295 L304.543001,190.867164 C304.891084,191.249977 305.292841,191.555438 305.74748,191.785915 C306.20212,192.015603 306.689121,192.13163 307.205326,192.13163 C308.036464,192.13163 308.705005,191.868003 309.21016,191.339168 M304.543001,192.283177 L304.543001,192.721241 C304.543001,192.934353 304.467228,193.114315 304.315681,193.260336 C304.164135,193.406358 303.981016,193.479763 303.767904,193.479763 C303.554791,193.479763 303.37483,193.406358 303.228809,193.260336 C303.082787,193.114315 303.010171,192.934353 303.010171,192.721241 L303.010171,181.785423 C303.010171,181.572311 303.082787,181.389981 303.228809,181.238435 C303.37483,181.086888 303.554791,181.011115 303.767904,181.011115 C303.992856,181.011115 304.178342,181.083731 304.324364,181.229752 C304.469596,181.375774 304.543001,181.56126 304.543001,181.785423 L304.543001,185.914276 C305.363089,185.060249 306.323673,184.633235 307.423964,184.633235 C308.12092,184.633235 308.780779,184.810828 309.404329,185.164437 C310.02788,185.518045 310.533035,186.034251 310.920584,186.714631 C311.308133,187.394223 311.501512,188.189053 311.501512,189.098332 C311.501512,190.0084 311.308133,190.80323 310.920584,191.482822 C310.533035,192.162413 310.02788,192.678619 309.404329,193.033016 C308.780779,193.386625 308.12092,193.563429 307.423964,193.563429 C306.323673,193.563429 305.363089,193.136415 304.543001,192.283177" id="Fill-41" fill="#FFFFFF"></path>
                        <path d="M318.068292,191.844797 C318.488991,191.631685 318.837864,191.294652 319.112542,190.834487 C319.388009,190.373533 319.526138,189.789447 319.526138,189.081441 C319.526138,188.385274 319.388009,187.806714 319.112542,187.346549 C318.837864,186.885595 318.488991,186.551719 318.068292,186.343342 C317.646803,186.136545 317.205581,186.032356 316.745417,186.032356 C316.274202,186.032356 315.827455,186.136545 315.405966,186.343342 C314.985267,186.551719 314.638762,186.885595 314.369609,187.346549 C314.100456,187.806714 313.965485,188.385274 313.965485,189.081441 C313.965485,189.789447 314.100456,190.373533 314.369609,190.834487 C314.638762,191.294652 314.985267,191.631685 315.405966,191.844797 C315.827455,192.058699 316.274202,192.165255 316.745417,192.165255 C317.205581,192.165255 317.646803,192.058699 318.068292,191.844797 M314.47064,193.008232 C313.819464,192.637259 313.315887,192.112371 312.962279,191.43278 C312.60867,190.752399 312.431866,189.974934 312.431866,189.098806 C312.431866,188.221888 312.60867,187.444423 312.962279,186.764042 C313.315887,186.08524 313.819464,185.560352 314.47064,185.189379 C315.122606,184.819195 315.880339,184.632919 316.745417,184.632919 C317.598655,184.632919 318.351652,184.819195 319.003618,185.189379 C319.654794,185.560352 320.159949,186.08524 320.519083,186.764042 C320.879006,187.444423 321.058967,188.221888 321.058967,189.098806 C321.058967,189.974934 320.879006,190.752399 320.519083,191.43278 C320.159949,192.112371 319.654794,192.637259 319.003618,193.008232 C318.351652,193.378416 317.598655,193.563903 316.745417,193.563903 C315.880339,193.563903 315.122606,193.378416 314.47064,193.008232" id="Fill-43" fill="#FFFFFF"></path>
                        <path d="M321.820568,193.268466 C321.691122,193.12797 321.626399,192.940115 321.626399,192.704113 C321.626399,192.535991 321.682439,192.37813 321.79531,192.232898 L324.40633,189.149084 L321.79531,185.964239 C321.671389,185.807168 321.609034,185.644571 321.609034,185.47566 C321.609034,185.251497 321.682439,185.068378 321.828461,184.928671 C321.974482,184.788175 322.154444,184.717927 322.367556,184.717927 C322.637498,184.717927 322.83956,184.813433 322.974531,185.003655 L325.332974,187.919347 L327.675631,185.003655 C327.810602,184.813433 328.00635,184.717927 328.265241,184.717927 C328.489404,184.717927 328.67568,184.788175 328.820912,184.928671 C328.966933,185.068378 329.03955,185.239658 329.03955,185.442509 C329.03955,185.610631 328.983509,185.768492 328.872217,185.914513 L326.209892,189.047264 L328.838277,192.215533 C328.961408,192.350505 329.022974,192.513101 329.022974,192.704113 C329.022974,192.918015 328.955883,193.100344 328.820912,193.251891 C328.685941,193.403437 328.494929,193.48 328.248666,193.48 C328.000824,193.48 327.804287,193.378969 327.658266,193.176117 L325.265883,190.31173 L323.008471,193.142177 C322.83956,193.367129 322.620923,193.48 322.350981,193.48 C322.126029,193.48 321.949224,193.408962 321.820568,193.268466" id="Fill-45" fill="#FFFFFF"></path>
                        <path d="M249.345574,194.294404 C250.219334,193.381968 250.656609,192.089876 250.656609,190.419707 C250.656609,188.749538 250.219334,187.457446 249.345574,186.544221 C248.471813,185.630995 247.315482,185.174777 245.878158,185.174777 C244.985454,185.174777 244.144844,185.373681 243.357907,185.77228 C242.57176,186.17009 241.876382,186.700503 241.274932,187.360362 L241.274932,193.479053 C241.876382,194.139701 242.57176,194.668535 243.357907,195.066345 C244.144844,195.464154 244.985454,195.663848 245.878158,195.663848 C247.315482,195.663848 248.471813,195.20763 249.345574,194.294404 M241.274932,195.925898 L241.274932,196.682841 C241.274932,197.053025 241.143907,197.364011 240.881069,197.615799 C240.61902,197.867587 240.303298,197.993876 239.934692,197.993876 C239.565298,197.993876 239.255101,197.867587 239.002523,197.615799 C238.749157,197.364011 238.623657,197.053025 238.623657,196.682841 L238.623657,177.774255 C238.623657,177.405649 238.749157,177.089927 239.002523,176.827089 C239.255101,176.56504 239.565298,176.434015 239.934692,176.434015 C240.32303,176.434015 240.644277,176.560304 240.896066,176.812881 C241.147854,177.065459 241.274932,177.385917 241.274932,177.774255 L241.274932,184.912727 C242.692523,183.436727 244.353221,182.698727 246.257024,182.698727 C247.460714,182.698727 248.602838,183.004188 249.681028,183.616689 C250.758429,184.227611 251.63219,185.121893 252.303099,186.296379 C252.973219,187.471654 253.308673,188.846623 253.308673,190.419707 C253.308673,191.992792 252.973219,193.366971 252.303099,194.542246 C251.63219,195.717521 250.758429,196.611014 249.681028,197.222725 C248.602838,197.833647 247.460714,198.139898 246.257024,198.139898 C244.353221,198.139898 242.692523,197.402687 241.274932,195.925898" id="Fill-47" fill="#FFFFFF"></path>
                        <path d="M231.229292,171.039196 C230.395786,171.039196 229.717773,171.717209 229.717773,172.550714 L229.717773,202.024145 C229.717773,202.857651 230.395786,203.534875 231.229292,203.534875 L260.702723,203.534875 C261.535439,203.534875 262.213452,202.857651 262.213452,202.024145 L262.213452,172.550714 C262.213452,171.717209 261.535439,171.039196 260.702723,171.039196 L231.229292,171.039196 Z M260.702723,205.046394 L231.229292,205.046394 C229.563069,205.046394 228.206254,203.690368 228.206254,202.024145 L228.206254,172.550714 C228.206254,170.884492 229.563069,169.527677 231.229292,169.527677 L260.702723,169.527677 C262.368945,169.527677 263.724971,170.884492 263.724971,172.550714 L263.724971,202.024145 C263.724971,203.690368 262.368945,205.046394 260.702723,205.046394 L260.702723,205.046394 Z" id="Fill-49" fill="#FFFFFF"></path>
                        <path d="M467.908181,191.339168 C468.414125,190.811913 468.666703,190.06523 468.666703,189.098332 C468.666703,188.133012 468.414125,187.385541 467.908181,186.857496 C467.403026,186.329451 466.734484,186.065823 465.903347,186.065823 C465.387141,186.065823 464.90014,186.181061 464.445501,186.411538 C463.990861,186.641226 463.589105,186.948266 463.241021,187.3295 L463.241021,190.867164 C463.589105,191.249977 463.990861,191.555438 464.445501,191.785915 C464.90014,192.015603 465.387141,192.13163 465.903347,192.13163 C466.734484,192.13163 467.403026,191.868003 467.908181,191.339168 M463.241021,192.283177 L463.241021,192.721241 C463.241021,192.934353 463.165248,193.114315 463.013702,193.260336 C462.862155,193.406358 462.679036,193.479763 462.465924,193.479763 C462.252812,193.479763 462.07285,193.406358 461.926829,193.260336 C461.780807,193.114315 461.708191,192.934353 461.708191,192.721241 L461.708191,181.785423 C461.708191,181.572311 461.780807,181.389981 461.926829,181.238435 C462.07285,181.086888 462.252812,181.011115 462.465924,181.011115 C462.690876,181.011115 462.876363,181.083731 463.022384,181.229752 C463.167616,181.375774 463.241021,181.56126 463.241021,181.785423 L463.241021,185.914276 C464.061109,185.060249 465.021693,184.633235 466.121984,184.633235 C466.81894,184.633235 467.478799,184.810828 468.10235,185.164437 C468.725901,185.518045 469.231056,186.034251 469.618604,186.714631 C470.006153,187.394223 470.199533,188.189053 470.199533,189.098332 C470.199533,190.0084 470.006153,190.80323 469.618604,191.482822 C469.231056,192.162413 468.725901,192.678619 468.10235,193.033016 C467.478799,193.386625 466.81894,193.563429 466.121984,193.563429 C465.021693,193.563429 464.061109,193.136415 463.241021,192.283177" id="Fill-51" fill="#FFFFFF"></path>
                        <path d="M471.836235,193.260021 C471.689424,193.113999 471.617598,192.934827 471.617598,192.720925 L471.617598,181.785896 C471.617598,181.571995 471.689424,181.389665 471.836235,181.238908 C471.982256,181.086572 472.161429,181.010799 472.37533,181.010799 C472.600282,181.010799 472.784979,181.083415 472.93179,181.230226 C473.077022,181.375458 473.150428,181.561734 473.150428,181.785896 L473.150428,192.720925 C473.150428,192.934827 473.073865,193.113999 472.923108,193.260021 C472.771561,193.406831 472.588443,193.479447 472.37533,193.479447 C472.161429,193.479447 471.982256,193.406831 471.836235,193.260021" id="Fill-53" fill="#FFFFFF"></path>
                        <path d="M480.20334,191.844797 C480.624828,191.631685 480.972912,191.294652 481.24759,190.834487 C481.523057,190.373533 481.661186,189.789447 481.661186,189.081441 C481.661186,188.385274 481.523057,187.806714 481.24759,187.346549 C480.972912,186.885595 480.624828,186.551719 480.20334,186.343342 C479.78264,186.136545 479.341419,186.032356 478.880465,186.032356 C478.40925,186.032356 477.962503,186.136545 477.541015,186.343342 C477.120315,186.551719 476.7746,186.885595 476.504657,187.346549 C476.235504,187.806714 476.100533,188.385274 476.100533,189.081441 C476.100533,189.789447 476.235504,190.373533 476.504657,190.834487 C476.7746,191.294652 477.120315,191.631685 477.541015,191.844797 C477.962503,192.058699 478.40925,192.165255 478.880465,192.165255 C479.341419,192.165255 479.78264,192.058699 480.20334,191.844797 M476.605688,193.008232 C475.954512,192.637259 475.451725,192.112371 475.098116,191.43278 C474.744508,190.752399 474.566914,189.974934 474.566914,189.098806 C474.566914,188.221888 474.744508,187.444423 475.098116,186.764042 C475.451725,186.08524 475.954512,185.560352 476.605688,185.189379 C477.257654,184.819195 478.016176,184.632919 478.880465,184.632919 C479.733703,184.632919 480.4867,184.819195 481.138666,185.189379 C481.789842,185.560352 482.294997,186.08524 482.65492,186.764042 C483.014843,187.444423 483.194016,188.221888 483.194016,189.098806 C483.194016,189.974934 483.014843,190.752399 482.65492,191.43278 C482.294997,192.112371 481.789842,192.637259 481.138666,193.008232 C480.4867,193.378416 479.733703,193.563903 478.880465,193.563903 C478.016176,193.563903 477.257654,193.378416 476.605688,193.008232" id="Fill-55" fill="#FFFFFF"></path>
                        <path d="M486.381307,193.024176 C485.696191,192.665043 485.148413,192.148837 484.738764,191.473982 C484.328326,190.800705 484.123896,190.009032 484.123896,189.098174 C484.123896,188.188895 484.328326,187.396433 484.738764,186.723156 C485.148413,186.04909 485.696191,185.532884 486.381307,185.172961 C487.066424,184.813828 487.813896,184.633077 488.622933,184.633077 C489.218069,184.633077 489.731906,184.709639 490.164445,184.861186 C490.596984,185.012732 490.998741,185.206901 491.368924,185.442904 C491.593876,185.588136 491.705958,185.784673 491.705958,186.032514 C491.705958,186.199847 491.641235,186.35534 491.512578,186.495836 C491.383132,186.635543 491.233953,186.705791 491.065831,186.705791 C490.941911,186.705791 490.818779,186.671851 490.694858,186.60476 C490.324674,186.413748 490.007374,186.276409 489.742957,186.191954 C489.479329,186.107498 489.150978,186.066454 488.757904,186.066454 C487.791006,186.066454 487.032484,186.3435 486.483128,186.89996 C485.932193,187.455631 485.656726,188.188895 485.656726,189.098174 C485.656726,190.009032 485.932193,190.740717 486.483128,191.297177 C487.032484,191.853637 487.791006,192.131473 488.757904,192.131473 C489.150978,192.131473 489.479329,192.08885 489.742957,192.005184 C490.007374,191.921517 490.324674,191.783389 490.694858,191.592377 C490.818779,191.525286 490.941911,191.491346 491.065831,191.491346 C491.233953,191.491346 491.383132,191.561594 491.512578,191.701301 C491.641235,191.842587 491.705958,191.996501 491.705958,192.165413 C491.705958,192.412465 491.593876,192.609002 491.368924,192.755023 C490.998741,192.991025 490.596984,193.184405 490.164445,193.336741 C489.731906,193.488287 489.218069,193.564061 488.622933,193.564061 C487.813896,193.564061 487.066424,193.384099 486.381307,193.024176" id="Fill-57" fill="#FFFFFF"></path>
                        <path d="M499.102691,191.339168 C499.608635,190.811913 499.861213,190.06523 499.861213,189.098332 C499.861213,188.133012 499.608635,187.385541 499.102691,186.857496 C498.597536,186.329451 497.928995,186.065823 497.097857,186.065823 C496.581651,186.065823 496.09465,186.181061 495.640011,186.411538 C495.185371,186.641226 494.783615,186.948266 494.435532,187.3295 L494.435532,190.867164 C494.783615,191.249977 495.185371,191.555438 495.640011,191.785915 C496.09465,192.015603 496.581651,192.13163 497.097857,192.13163 C497.928995,192.13163 498.597536,191.868003 499.102691,191.339168 M494.435532,192.283177 L494.435532,192.721241 C494.435532,192.934353 494.359758,193.114315 494.208212,193.260336 C494.055876,193.406358 493.873547,193.479763 493.660434,193.479763 C493.447322,193.479763 493.26736,193.406358 493.121339,193.260336 C492.975318,193.114315 492.902702,192.934353 492.902702,192.721241 L492.902702,181.785423 C492.902702,181.572311 492.975318,181.389981 493.121339,181.238435 C493.26736,181.086888 493.447322,181.011115 493.660434,181.011115 C493.885386,181.011115 494.070873,181.083731 494.216894,181.229752 C494.362126,181.375774 494.435532,181.56126 494.435532,181.785423 L494.435532,185.914276 C495.255619,185.060249 496.216203,184.633235 497.316494,184.633235 C498.01345,184.633235 498.673309,184.810828 499.29686,185.164437 C499.920411,185.518045 500.425566,186.034251 500.813114,186.714631 C501.200663,187.394223 501.394043,188.189053 501.394043,189.098332 C501.394043,190.0084 501.200663,190.80323 500.813114,191.482822 C500.425566,192.162413 499.920411,192.678619 499.29686,193.033016 C498.673309,193.386625 498.01345,193.563429 497.316494,193.563429 C496.216203,193.563429 495.255619,193.136415 494.435532,192.283177" id="Fill-59" fill="#FFFFFF"></path>
                        <path d="M507.960822,191.844797 C508.381521,191.631685 508.730394,191.294652 509.005072,190.834487 C509.28054,190.373533 509.418668,189.789447 509.418668,189.081441 C509.418668,188.385274 509.28054,187.806714 509.005072,187.346549 C508.730394,186.885595 508.381521,186.551719 507.960822,186.343342 C507.539333,186.136545 507.098112,186.032356 506.637947,186.032356 C506.166732,186.032356 505.719196,186.136545 505.298497,186.343342 C504.877797,186.551719 504.531293,186.885595 504.26135,187.346549 C503.992987,187.806714 503.858016,188.385274 503.858016,189.081441 C503.858016,189.789447 503.992987,190.373533 504.26135,190.834487 C504.531293,191.294652 504.877797,191.631685 505.298497,191.844797 C505.719196,192.058699 506.166732,192.165255 506.637947,192.165255 C507.098112,192.165255 507.539333,192.058699 507.960822,191.844797 M504.363171,193.008232 C503.711205,192.637259 503.208418,192.112371 502.854809,191.43278 C502.501201,190.752399 502.324396,189.974934 502.324396,189.098806 C502.324396,188.221888 502.501201,187.444423 502.854809,186.764042 C503.208418,186.08524 503.711205,185.560352 504.363171,185.189379 C505.015136,184.819195 505.772869,184.632919 506.637947,184.632919 C507.491186,184.632919 508.243393,184.819195 508.896148,185.189379 C509.547325,185.560352 510.05248,186.08524 510.411613,186.764042 C510.771536,187.444423 510.951498,188.221888 510.951498,189.098806 C510.951498,189.974934 510.771536,190.752399 510.411613,191.43278 C510.05248,192.112371 509.547325,192.637259 508.896148,193.008232 C508.243393,193.378416 507.491186,193.563903 506.637947,193.563903 C505.772869,193.563903 505.015136,193.378416 504.363171,193.008232" id="Fill-61" fill="#FFFFFF"></path>
                        <path d="M511.712309,193.268466 C511.583652,193.12797 511.518929,192.940115 511.518929,192.704113 C511.518929,192.535991 511.57497,192.37813 511.68784,192.232898 L514.298861,189.149084 L511.68784,185.964239 C511.56392,185.807168 511.501564,185.644571 511.501564,185.47566 C511.501564,185.251497 511.57497,185.068378 511.720991,184.928671 C511.867013,184.788175 512.046974,184.717927 512.260086,184.717927 C512.530029,184.717927 512.732091,184.813433 512.867062,185.003655 L515.225505,187.919347 L517.568161,185.003655 C517.703132,184.813433 517.89888,184.717927 518.157772,184.717927 C518.381935,184.717927 518.56821,184.788175 518.713443,184.928671 C518.859464,185.068378 518.93208,185.239658 518.93208,185.442509 C518.93208,185.610631 518.876039,185.768492 518.764747,185.914513 L516.102422,189.047264 L518.730807,192.215533 C518.853939,192.350505 518.915505,192.513101 518.915505,192.704113 C518.915505,192.918015 518.848414,193.100344 518.713443,193.251891 C518.578471,193.403437 518.38746,193.48 518.141197,193.48 C517.893355,193.48 517.696818,193.378969 517.550797,193.176117 L515.158414,190.31173 L512.901002,193.142177 C512.732091,193.367129 512.513453,193.48 512.243511,193.48 C512.018559,193.48 511.841755,193.408962 511.712309,193.268466" id="Fill-63" fill="#FFFFFF"></path>
                        <path d="M439.238104,194.294404 C440.111865,193.381968 440.549139,192.089876 440.549139,190.419707 C440.549139,188.749538 440.111865,187.457446 439.238104,186.544221 C438.364344,185.630995 437.208012,185.174777 435.770688,185.174777 C434.877984,185.174777 434.037375,185.373681 433.250438,185.77228 C432.46429,186.17009 431.768913,186.700503 431.167462,187.360362 L431.167462,193.479053 C431.768913,194.139701 432.46429,194.668535 433.250438,195.066345 C434.037375,195.464154 434.877984,195.663848 435.770688,195.663848 C437.208012,195.663848 438.364344,195.20763 439.238104,194.294404 M431.167462,195.925898 L431.167462,196.682841 C431.167462,197.053025 431.036438,197.364011 430.773599,197.615799 C430.51155,197.867587 430.195828,197.993876 429.827223,197.993876 C429.457828,197.993876 429.146842,197.867587 428.895054,197.615799 C428.641687,197.364011 428.516188,197.053025 428.516188,196.682841 L428.516188,177.774255 C428.516188,177.405649 428.641687,177.089927 428.895054,176.827089 C429.146842,176.56504 429.457828,176.434015 429.827223,176.434015 C430.215561,176.434015 430.536019,176.560304 430.788596,176.812881 C431.040384,177.065459 431.167462,177.385917 431.167462,177.774255 L431.167462,184.912727 C432.585054,183.436727 434.245751,182.698727 436.149554,182.698727 C437.353244,182.698727 438.495368,183.004188 439.572769,183.616689 C440.65096,184.227611 441.52472,185.121893 442.195629,186.296379 C442.865749,187.471654 443.201204,188.846623 443.201204,190.419707 C443.201204,191.992792 442.865749,193.366971 442.195629,194.542246 C441.52472,195.717521 440.65096,196.611014 439.572769,197.222725 C438.495368,197.833647 437.353244,198.139898 436.149554,198.139898 C434.245751,198.139898 432.585054,197.402687 431.167462,195.925898" id="Fill-65" fill="#FFFFFF"></path>
                        <path d="M421.121901,171.039196 C420.288395,171.039196 419.610382,171.717209 419.610382,172.550714 L419.610382,202.024145 C419.610382,202.857651 420.288395,203.534875 421.121901,203.534875 L450.595332,203.534875 C451.428049,203.534875 452.106062,202.857651 452.106062,202.024145 L452.106062,172.550714 C452.106062,171.717209 451.428049,171.039196 450.595332,171.039196 L421.121901,171.039196 Z M450.595332,205.046394 L421.121901,205.046394 C419.455679,205.046394 418.098864,203.690368 418.098864,202.024145 L418.098864,172.550714 C418.098864,170.884492 419.455679,169.527677 421.121901,169.527677 L450.595332,169.527677 C452.261555,169.527677 453.61758,170.884492 453.61758,172.550714 L453.61758,202.024145 C453.61758,203.690368 452.261555,205.046394 450.595332,205.046394 L450.595332,205.046394 Z" id="Fill-67" fill="#FFFFFF"></path>
                        <mask id="mask-4" fill="white">
                            <use xlink:href="#path-3"></use>
                        </mask>
                        <g id="Clip-69"></g>
                        <text id="LOGO-3" mask="url(#mask-4)" font-family="VarelaRound-Regular, Varela Round" font-size="9.47165775" font-weight="normal" fill="#4A4A4A">
                            <tspan x="0" y="135.426238">LOGO 3</tspan>
                        </text>
                    </g>
                    <text id="COLOR-PALETTE-3" font-family="VarelaRound-Regular, Varela Round" font-size="9.47165775" font-weight="normal" letter-spacing="-0.189433157" fill="#4A4A4A">
                        <tspan x="20.7192513" y="26.2128544">C</tspan>
                        <tspan x="26.9231872" y="26.2128544">OLOR </tspan>
                        <tspan x="56.9672856" y="26.2128544" letter-spacing="-0.416752939">P</tspan>
                        <tspan x="62.4987337" y="26.2128544">ALETTE 3</tspan>
                    </text>
                </g>
            </g>
        </g>
    </g>
</svg>