<?xml version="1.0" encoding="UTF-8"?>
<svg width="661px" height="461px" viewBox="0 0 661 461" version="1.1" xmlns="http://www.w3.org/2000/svg" xmlns:xlink="http://www.w3.org/1999/xlink">
    <!-- Generator: Sketch 45.1 (43504) - http://www.bohemiancoding.com/sketch -->
    <title>Option 1</title>
    <desc>Created with Sketch.</desc>
    <defs>
        <rect id="path-1" x="0.74610358" y="0.741946524" width="600.858289" height="400.572193"></rect>
        <filter x="-7.7%" y="-11.0%" width="115.3%" height="123.0%" filterUnits="objectBoundingBox" id="filter-2">
            <feOffset dx="0" dy="2" in="SourceAlpha" result="shadowOffsetOuter1"></feOffset>
            <feGaussianBlur stdDeviation="15" in="shadowOffsetOuter1" result="shadowBlurOuter1"></feGaussianBlur>
            <feComposite in="shadowBlurOuter1" in2="SourceAlpha" operator="out" result="shadowBlurOuter1"></feComposite>
            <feColorMatrix values="0 0 0 0 0   0 0 0 0 0   0 0 0 0 0  0 0 0 0.5 0" type="matrix" in="shadowBlurOuter1"></feColorMatrix>
        </filter>
        <polygon id="path-3" points="303.882353 0.0473582888 0 0.0473582888 0 42.3705489 0 84.6937395 303.882353 84.6937395 303.882353 0.0473582888"></polygon>
        <polygon id="path-5" points="61.3892868 0.0473582888 0.612816257 0.0473582888 0.612816257 7.73563154 61.3892868 7.73563154 61.3892868 0.0473582888"></polygon>
        <polygon id="path-7" points="0 372.551872 1839.18124 372.551872 1839.18124 0.0473582888 0 0.0473582888"></polygon>
    </defs>
    <g id="Portfolio" stroke="none" stroke-width="1" fill="none" fill-rule="evenodd">
        <g id="BLOCBOX-CASE-STUDY" transform="translate(-27.000000, -11757.000000)">
            <g id="Typography,-Logo-and-Color" transform="translate(55.230000, 11783.658889)">
                <g id="Option-1" transform="translate(0.997184, 0.578238)">
                    <g id="Rectangle-16" opacity="0.547497736">
                        <use fill="black" fill-opacity="1" filter="url(#filter-2)" xlink:href="#path-1"></use>
                        <use fill="#FFFFFF" fill-rule="evenodd" xlink:href="#path-1"></use>
                        <rect stroke="#979797" stroke-width="0.986631016" x="1.23941909" y="1.23526203" width="599.871658" height="399.585561"></rect>
                    </g>
                    <g id="Group-2" transform="translate(17.759358, 18.501305)">
                        <mask id="mask-4" fill="white">
                            <use xlink:href="#path-3"></use>
                        </mask>
                        <g id="Clip-1"></g>
                        <text id="H1-Varela-Round" mask="url(#mask-4)" font-family="VarelaRound-Regular, Varela Round" font-size="37.886631" font-weight="normal" fill="#333333">
                            <tspan x="0" y="44.4375219">H1 Varela Round</tspan>
                        </text>
                        <text id="H2-" mask="url(#mask-4)" font-family="VarelaRound-Regular, Varela Round" font-size="28.4149733" font-weight="normal" fill="#333333">
                            <tspan x="0" y="76.7536326">H2 </tspan>
                        </text>
                    </g>
                    <text id="Varela-Round" font-family="VarelaRound-Regular, Varela Round" font-size="28.4149733" font-weight="normal" letter-spacing="-1.56282352" fill="#333333">
                        <tspan x="63.8192406" y="95.2549374">V</tspan>
                        <tspan x="80.413585" y="95.2549374">a</tspan>
                        <tspan x="96.3828" y="95.2549374" letter-spacing="-0.42622461">r</tspan>
                        <tspan x="106.413286" y="95.2549374">ela Round</tspan>
                    </text>
                    <text id="H3-Varela-Round" font-family="VarelaRound-Regular, Varela Round" font-size="22.1005348" font-weight="normal" fill="#333333">
                        <tspan x="19.5264539" y="122.56925">H3 </tspan>
                        <tspan x="55.8376325" y="122.56925" letter-spacing="-1.21552941">V</tspan>
                        <tspan x="68.7443448" y="122.56925">a</tspan>
                        <tspan x="81.1648454" y="122.56925" letter-spacing="-0.333718073">r</tspan>
                        <tspan x="88.9641241" y="122.56925">ela Round</tspan>
                    </text>
                    <g id="Group-4" transform="translate(348.478075, 8.634995)">
                        <mask id="mask-6" fill="white">
                            <use xlink:href="#path-5"></use>
                        </mask>
                        <g id="Clip-3"></g>
                    </g>
                    <text id="HEADER-1" font-family="Lato-SemiBold, Lato" font-size="9.47165775" font-weight="500" letter-spacing="0.986631016" fill="#4A4A4A">
                        <tspan x="18.7459893" y="17.2812042">HEADER 1</tspan>
                    </text>
                    <text id="PARAGRAPH-1-(LATO)" font-family="Lato-SemiBold, Lato" font-size="9.47165775" font-weight="500" letter-spacing="0.986631016" fill="#4A4A4A">
                        <tspan x="349.090891" y="17.2802519">PARAGRAPH 1 (LATO)</tspan>
                    </text>
                    <text id="Lorem-ipsum-dolor-sit-amet,-consectetuer-" font-family="Lato-Light, Lato" font-size="12.628877" font-weight="300" fill="#000000">
                        <tspan x="349.091286" y="43.7169896">Lorem i</tspan>
                        <tspan x="389.011166" y="43.7169896" letter-spacing="0.00757732647">p</tspan>
                        <tspan x="395.983569" y="43.7169896">sum</tspan>
                        <tspan x="418.456656" y="43.7169896" letter-spacing="0.0113659895"> </tspan>
                        <tspan x="421.896762" y="43.7169896">dolor sit amet, consec</tspan>
                        <tspan x="540.393515" y="43.7169896" letter-spacing="0.0126288776">t</tspan>
                        <tspan x="544.712591" y="43.7169896">etu</tspan>
                        <tspan x="562.544565" y="43.7169896" letter-spacing="0.0126288776">e</tspan>
                        <tspan x="569.143153" y="43.7169896">r </tspan>
                    </text>
                    <text id="adipiscing-elit,-sed-diam-nonummy-nibh-" font-family="Lato-Light, Lato" font-size="12.628877" font-weight="300" fill="#000000">
                        <tspan x="349.091286" y="58.871642">adipisc</tspan>
                        <tspan x="386.068638" y="58.871642" letter-spacing="0.0126288776">i</tspan>
                        <tspan x="388.891192" y="58.871642">ng</tspan>
                        <tspan x="402.284116" y="58.871642" letter-spacing="0.0126288776"> </tspan>
                        <tspan x="405.725485" y="58.871642">eli</tspan>
                        <tspan x="417.912351" y="58.871642" letter-spacing="0.00757732647">t</tspan>
                        <tspan x="422.245319" y="58.871642">, sed diam nonumm</tspan>
                        <tspan x="528.3342" y="58.871642" letter-spacing="0.0126288776">y</tspan>
                        <tspan x="534.370803" y="58.871642"> nibh </tspan>
                    </text>
                    <text id="euismod-incidunt-ut-laoreet-dolore-" font-family="Lato-Light, Lato" font-size="12.628877" font-weight="300" fill="#000000">
                        <tspan x="349.091286" y="74.0262944">eu</tspan>
                        <tspan x="362.616813" y="74.0262944" letter-spacing="0.0126288776">i</tspan>
                        <tspan x="365.439367" y="74.0262944">smod inc</tspan>
                        <tspan x="414.117373" y="74.0262944" letter-spacing="0.0113659895">i</tspan>
                        <tspan x="416.938665" y="74.0262944">dun</tspan>
                        <tspan x="437.700538" y="74.0262944" letter-spacing="0.0126288776">t</tspan>
                        <tspan x="442.038558" y="74.0262944"> u</tspan>
                        <tspan x="452.406866" y="74.0262944" letter-spacing="0.0126288776">t</tspan>
                        <tspan x="456.744885" y="74.0262944"> laoreet dolore </tspan>
                    </text>
                    <text id="magna-aliquam-erat-volutpat.-Lorem-" font-family="Lato-Light, Lato" font-size="12.628877" font-weight="300" fill="#000000">
                        <tspan x="349.091286" y="89.1809468">magna aliquam era</tspan>
                        <tspan x="450.576941" y="89.1809468" letter-spacing="0.00757732647">t</tspan>
                        <tspan x="454.909909" y="89.1809468"> volu</tspan>
                        <tspan x="480.994855" y="89.1809468" letter-spacing="0.0126288776">t</tspan>
                        <tspan x="485.332874" y="89.1809468" letter-spacing="0.00757732647">p</tspan>
                        <tspan x="492.305277" y="89.1809468">at. Lorem </tspan>
                    </text>
                    <text id="ipsum-dolor-sit-amet,-consectetuer-adipi-" font-family="Lato-Light, Lato" font-size="12.628877" font-weight="300" fill="#000000">
                        <tspan x="349.091286" y="104.335599">ipsum</tspan>
                        <tspan x="381.339123" y="104.335599" letter-spacing="0.0126288776"> </tspan>
                        <tspan x="384.780492" y="104.335599">dolor sit amet, consec</tspan>
                        <tspan x="503.277245" y="104.335599" letter-spacing="0.0126288776">t</tspan>
                        <tspan x="507.596321" y="104.335599">etu</tspan>
                        <tspan x="525.428295" y="104.335599" letter-spacing="0.0126288776">e</tspan>
                        <tspan x="532.026884" y="104.335599">r adipi-</tspan>
                    </text>
                    <text id="scing-elit,-sed-diam-nonummy-nibh.-" font-family="Lato-Light, Lato" font-size="12.628877" font-weight="300" fill="#000000">
                        <tspan x="349.091286" y="119.490252">sc</tspan>
                        <tspan x="360.413074" y="119.490252" letter-spacing="0.0126288776">i</tspan>
                        <tspan x="363.235628" y="119.490252">ng</tspan>
                        <tspan x="376.628552" y="119.490252" letter-spacing="0.0113659895"> </tspan>
                        <tspan x="380.068658" y="119.490252">elit, sed diam nonumm</tspan>
                        <tspan x="502.669796" y="119.490252" letter-spacing="0.0126288776">y</tspan>
                        <tspan x="508.706399" y="119.490252"> nibh. </tspan>
                    </text>
                    <g id="Group-13" transform="translate(17.759358, 8.634995)">
                        <path d="M81.0204815,251.051577 L3.80042374,251.051577 C3.36393818,251.051577 3.01111893,250.698758 3.01111893,250.262272 L3.01111893,172.910401 C3.01111893,172.474704 3.36393818,172.121096 3.80042374,172.121096 L81.0204815,172.121096 C81.4561778,172.121096 81.8097863,172.474704 81.8097863,172.910401 L81.8097863,250.262272 C81.8097863,250.698758 81.4561778,251.051577 81.0204815,251.051577 Z" id="Fill-5" fill="#34495E"></path>
                        <mask id="mask-8" fill="white">
                            <use xlink:href="#path-7"></use>
                        </mask>
                        <g id="Clip-8"></g>
                        <polygon id="Fill-7" fill="#5F81A3" mask="url(#mask-8)" points="96.3520171 251.051814 175.150684 251.051814 175.150684 172.121333 96.3520171 172.121333"></polygon>
                        <polygon id="Fill-9" fill="#3498DB" mask="url(#mask-8)" points="190.93757 251.051814 269.736237 251.051814 269.736237 172.121333 190.93757 172.121333"></polygon>
                        <polygon id="Fill-10" fill="#2ECC71" mask="url(#mask-8)" points="285.522334 251.051814 364.321001 251.051814 364.321001 172.121333 285.522334 172.121333"></polygon>
                        <polygon id="Fill-11" fill="#E2E2E2" mask="url(#mask-8)" points="474.691861 251.051814 553.491318 251.051814 553.491318 172.121333 474.691861 172.121333"></polygon>
                        <polygon id="Fill-12" fill="#333333" mask="url(#mask-8)" points="380.107097 251.051814 458.905765 251.051814 458.905765 172.121333 380.107097 172.121333"></polygon>
                    </g>
                    <text id="#34495E" font-family="LucidaGrande, Lucida Grande" font-size="9.47165775" font-weight="normal" fill="#FCFCFC">
                        <tspan x="43.1169594" y="218.065997">#34495E</tspan>
                    </text>
                    <text id="#5F81A3" font-family="LucidaGrande, Lucida Grande" font-size="9.47165775" font-weight="normal" fill="#FCFCFC">
                        <tspan x="136.014979" y="220.500213">#5F81A3</tspan>
                    </text>
                    <text id="#3498DB" font-family="LucidaGrande, Lucida Grande" font-size="9.47165775" font-weight="normal" fill="#FCFCFC">
                        <tspan x="230.087483" y="220.500213">#3498DB</tspan>
                    </text>
                    <text id="#2ECC71" font-family="LucidaGrande, Lucida Grande" font-size="9.47165775" font-weight="normal" fill="#FCFCFC">
                        <tspan x="325.097682" y="220.500213">#2E</tspan>
                        <tspan x="342.209564" y="220.500213" letter-spacing="-0.198904813">C</tspan>
                        <tspan x="348.564047" y="220.500213">C71</tspan>
                    </text>
                    <text id="#333333" font-family="LucidaGrande, Lucida Grande" font-size="9.47165775" font-weight="normal" fill="#FCFCFC">
                        <tspan x="420.117353" y="220.500213">#333333</tspan>
                    </text>
                    <text id="#E2E2E2" font-family="LucidaGrande, Lucida Grande" font-size="9.47165775" font-weight="normal" fill="#FCFCFC">
                        <tspan x="515.00442" y="220.500213">#E2E2E2</tspan>
                    </text>
                    <text id="COLOR-PALETTE-1" font-family="Lato-SemiBold, Lato" font-size="9.47165775" font-weight="500" letter-spacing="0.986631016" fill="#4A4A4A">
                        <tspan x="19.9871711" y="159.045632">COLOR PALETTE 1</tspan>
                    </text>
                    <text id="LOGO-1" font-family="Lato-SemiBold, Lato" font-size="9.47165775" font-weight="500" letter-spacing="0.986631016" fill="#4A4A4A">
                        <tspan x="20.7733187" y="291.087942">LOGO 1</tspan>
                    </text>
                    <g id="Group-52" transform="translate(56.435294, 300.283123)">
                        <polygon id="Fill-14" fill="#333333" points="343.331018 79.3306588 516.715239 79.3306588 516.715239 0.40017754 343.331018 0.40017754"></polygon>
                        <path d="M326.755222,79.8980901 L153.505184,79.8980901 C153.069488,79.8980901 152.715879,79.5444815 152.715879,79.1087852 L152.715879,1.75691358 C152.715879,1.32042802 153.069488,0.96760877 153.505184,0.96760877 L326.755222,0.96760877 C327.191708,0.96760877 327.544527,1.32042802 327.544527,1.75691358 L327.544527,79.1087852 C327.544527,79.5444815 327.191708,79.8980901 326.755222,79.8980901" id="Fill-16" fill="#34495E"></path>
                        <path d="M50.3528323,44.4849825 C50.8587767,43.9569375 51.1105649,43.2102552 51.1105649,42.2441461 C51.1105649,41.2788263 50.8587767,40.5313547 50.3528323,40.0025204 C49.8468879,39.4744755 49.179136,39.2108477 48.3479981,39.2108477 C47.8310034,39.2108477 47.3447917,39.3268755 46.8901521,39.5565632 C46.4355125,39.7870402 46.0337564,40.0932905 45.6856729,40.475314 L45.6856729,44.0129782 C46.0337564,44.395791 46.4355125,44.701252 46.8901521,44.9309397 C47.3447917,45.1614167 47.8310034,45.2766552 48.3479981,45.2766552 C49.179136,45.2766552 49.8468879,45.0130274 50.3528323,44.4849825 M45.6856729,45.4282017 L45.6856729,45.8662659 C45.6856729,46.0801675 45.6098997,46.260129 45.4583532,46.4061504 C45.3060173,46.5513825 45.1236879,46.6247878 44.9105756,46.6247878 C44.696674,46.6247878 44.5167125,46.5513825 44.3714804,46.4061504 C44.225459,46.260129 44.152843,46.0801675 44.152843,45.8662659 L44.152843,34.931237 C44.152843,34.7181247 44.225459,34.5357953 44.3714804,34.3834595 C44.5167125,34.2319129 44.696674,34.1561397 44.9105756,34.1561397 C45.1355275,34.1561397 45.3210141,34.229545 45.4662462,34.3747771 C45.6122676,34.5215878 45.6856729,34.7062851 45.6856729,34.931237 L45.6856729,39.0593012 C46.5049713,38.2060627 47.4655553,37.7790488 48.5666355,37.7790488 C49.2628024,37.7790488 49.9234505,37.955853 50.5470013,38.3102509 C51.1697628,38.6638595 51.6757072,39.1800648 52.0632558,39.8604456 C52.4508045,40.540037 52.6441842,41.3340776 52.6441842,42.2441461 C52.6441842,43.1534252 52.4508045,43.9482552 52.0632558,44.6286359 C51.6757072,45.3082274 51.1697628,45.8244327 50.5470013,46.1788306 C49.9234505,46.5324391 49.2628024,46.7084541 48.5666355,46.7084541 C47.4655553,46.7084541 46.5049713,46.2822295 45.6856729,45.4282017" id="Fill-17" fill="#34495E"></path>
                        <path d="M54.280492,46.4058347 C54.1336813,46.2598133 54.0610652,46.0798518 54.0610652,45.8659502 L54.0610652,34.9317106 C54.0610652,34.717809 54.1336813,34.5354796 54.280492,34.383933 C54.4265134,34.2315972 54.6064749,34.155824 54.8195872,34.155824 C55.0437497,34.155824 55.2292364,34.2292293 55.3752578,34.3752507 C55.5212791,34.5212721 55.5946845,34.7067587 55.5946845,34.9317106 L55.5946845,45.8659502 C55.5946845,46.0798518 55.5189112,46.2598133 55.3673647,46.4058347 C55.2158182,46.551856 55.0326995,46.6244721 54.8195872,46.6244721 C54.6064749,46.6244721 54.4265134,46.551856 54.280492,46.4058347" id="Fill-18" fill="#34495E"></path>
                        <path d="M62.6475966,44.9906111 C63.0690853,44.7767095 63.4171688,44.4404657 63.6926361,43.9795117 C63.9673142,43.519347 64.1054426,42.9352614 64.1054426,42.227255 C64.1054426,41.5302988 63.9673142,40.9525277 63.6926361,40.4915737 C63.4171688,40.031409 63.0690853,39.697533 62.6475966,39.4891566 C62.2261078,39.2815694 61.7856757,39.1773812 61.3247217,39.1773812 C60.8535067,39.1773812 60.4067602,39.2815694 59.9852714,39.4891566 C59.564572,39.697533 59.2188565,40.031409 58.9489142,40.4915737 C58.6797613,40.9525277 58.5447902,41.5302988 58.5447902,42.227255 C58.5447902,42.9352614 58.6797613,43.519347 58.9489142,43.9795117 C59.2188565,44.4404657 59.564572,44.7767095 59.9852714,44.9906111 C60.4067602,45.2045127 60.8535067,45.3102796 61.3247217,45.3102796 C61.7856757,45.3102796 62.2261078,45.2045127 62.6475966,44.9906111 M59.0499452,46.1532571 C58.3987688,45.7822839 57.8959816,45.2573961 57.542373,44.5778047 C57.1879752,43.897424 57.0111709,43.1199587 57.0111709,42.2446197 C57.0111709,41.367702 57.1879752,40.5902368 57.542373,39.909856 C57.8959816,39.2310539 58.3987688,38.7053769 59.0499452,38.3344036 C59.701911,37.9642197 60.4596436,37.778733 61.3247217,37.778733 C62.1787495,37.778733 62.930957,37.9642197 63.5829228,38.3344036 C64.2340993,38.7053769 64.7392543,39.2310539 65.0991773,39.909856 C65.4591003,40.5902368 65.6382725,41.367702 65.6382725,42.2446197 C65.6382725,43.1199587 65.4591003,43.897424 65.0991773,44.5778047 C64.7392543,45.2573961 64.2340993,45.7822839 63.5829228,46.1532571 C62.930957,46.5234411 62.1787495,46.7089277 61.3247217,46.7089277 C60.4596436,46.7089277 59.701911,46.5234411 59.0499452,46.1532571" id="Fill-19" fill="#34495E"></path>
                        <path d="M68.8259589,46.1699114 C68.1408424,45.8107778 67.5930648,45.2937831 67.1826263,44.6197168 C66.7729771,43.9456505 66.5685472,43.1539778 66.5685472,42.2439093 C66.5685472,41.3338409 66.7729771,40.5421681 67.1826263,39.8688911 C67.5930648,39.1940355 68.1408424,38.6778302 68.8259589,38.3179072 C69.5110755,37.9587735 70.2577579,37.778812 71.0667953,37.778812 C71.6619311,37.778812 72.1765579,37.8545852 72.6083076,38.0061318 C73.0408466,38.1584676 73.4426028,38.3518473 73.813576,38.5878494 C74.0377386,38.7338708 74.1506092,38.9304077 74.1506092,39.1774601 C74.1506092,39.345582 74.0858862,39.5002858 73.9564402,39.640782 C73.8269942,39.7812783 73.6786049,39.8515264 73.510483,39.8515264 C73.3865621,39.8515264 73.2634306,39.8175863 73.1395097,39.7504954 C72.7685365,39.5594836 72.4512359,39.4213553 72.1876081,39.337689 C71.923191,39.2532334 71.5948402,39.2114002 71.2017664,39.2114002 C70.2356573,39.2114002 69.4771354,39.4892355 68.9269899,40.0449061 C68.3768445,40.6005767 68.1013771,41.3338409 68.1013771,42.2439093 C68.1013771,43.1539778 68.3768445,43.8864526 68.9269899,44.4429125 C69.4771354,44.9993724 70.2356573,45.2764184 71.2017664,45.2764184 C71.5948402,45.2764184 71.923191,45.2345852 72.1876081,45.1501296 C72.4512359,45.0664633 72.7685365,44.9291243 73.1395097,44.7381125 C73.2634306,44.6702323 73.3865621,44.6370815 73.510483,44.6370815 C73.6786049,44.6370815 73.8269942,44.7065403 73.9564402,44.8470366 C74.0858862,44.9875328 74.1506092,45.1414473 74.1506092,45.3103585 C74.1506092,45.5582002 74.0377386,45.7547371 73.813576,45.8999692 C73.4426028,46.1359713 73.0408466,46.3301403 72.6083076,46.4816868 C72.1765579,46.6332334 71.6619311,46.7090066 71.0667953,46.7090066 C70.2577579,46.7090066 69.5110755,46.5298344 68.8259589,46.1699114" id="Fill-20" fill="#34495E"></path>
                        <path d="M81.5473425,44.4849825 C82.0524975,43.9569375 82.3050751,43.2102552 82.3050751,42.2441461 C82.3050751,41.2788263 82.0524975,40.5313547 81.5473425,40.0025204 C81.0413981,39.4744755 80.3736462,39.2108477 79.5417189,39.2108477 C79.0255136,39.2108477 78.5393018,39.3268755 78.0846622,39.5565632 C77.6300227,39.7870402 77.2282665,40.0932905 76.8801831,40.475314 L76.8801831,44.0129782 C77.2282665,44.395791 77.6300227,44.701252 78.0846622,44.9309397 C78.5393018,45.1614167 79.0255136,45.2766552 79.5417189,45.2766552 C80.3736462,45.2766552 81.0413981,45.0130274 81.5473425,44.4849825 M76.8801831,45.4282017 L76.8801831,45.8662659 C76.8801831,46.0801675 76.8044098,46.260129 76.6528633,46.4061504 C76.5005275,46.5513825 76.3181981,46.6247878 76.1050858,46.6247878 C75.8911842,46.6247878 75.7112227,46.5513825 75.5659906,46.4061504 C75.4191799,46.260129 75.3465639,46.0801675 75.3465639,45.8662659 L75.3465639,34.931237 C75.3465639,34.7181247 75.4191799,34.5357953 75.5659906,34.3834595 C75.7112227,34.2319129 75.8911842,34.1561397 76.1050858,34.1561397 C76.3292483,34.1561397 76.514735,34.229545 76.6607564,34.3747771 C76.8067778,34.5215878 76.8801831,34.7062851 76.8801831,34.931237 L76.8801831,39.0593012 C77.6994815,38.2060627 78.6600655,37.7790488 79.7611457,37.7790488 C80.4573125,37.7790488 81.1179606,37.955853 81.7407221,38.3102509 C82.3642729,38.6638595 82.8702173,39.1800648 83.257766,39.8604456 C83.6453147,40.540037 83.8386943,41.3340776 83.8386943,42.2441461 C83.8386943,43.1534252 83.6453147,43.9482552 83.257766,44.6286359 C82.8702173,45.3082274 82.3642729,45.8244327 81.7407221,46.1788306 C81.1179606,46.5324391 80.4573125,46.7084541 79.7611457,46.7084541 C78.6600655,46.7084541 77.6994815,46.2822295 76.8801831,45.4282017" id="Fill-21" fill="#34495E"></path>
                        <path d="M90.4050789,44.9906111 C90.8265677,44.7767095 91.1746511,44.4404657 91.4493292,43.9795117 C91.7247966,43.519347 91.8621356,42.9352614 91.8621356,42.227255 C91.8621356,41.5302988 91.7247966,40.9525277 91.4493292,40.4915737 C91.1746511,40.031409 90.8265677,39.697533 90.4050789,39.4891566 C89.9835902,39.2815694 89.5431581,39.1773812 89.0822041,39.1773812 C88.6109891,39.1773812 88.1642426,39.2815694 87.7427538,39.4891566 C87.321265,39.697533 86.9763388,40.031409 86.7063966,40.4915737 C86.4372436,40.9525277 86.3022725,41.5302988 86.3022725,42.227255 C86.3022725,42.9352614 86.4372436,43.519347 86.7063966,43.9795117 C86.9763388,44.4404657 87.321265,44.7767095 87.7427538,44.9906111 C88.1642426,45.2045127 88.6109891,45.3102796 89.0822041,45.3102796 C89.5431581,45.3102796 89.9835902,45.2045127 90.4050789,44.9906111 M86.8074276,46.1532571 C86.1562511,45.7822839 85.653464,45.2573961 85.2998554,44.5778047 C84.9454575,43.897424 84.7686533,43.1199587 84.7686533,42.2446197 C84.7686533,41.367702 84.9454575,40.5902368 85.2998554,39.909856 C85.653464,39.2310539 86.1562511,38.7053769 86.8074276,38.3344036 C87.4593934,37.9642197 88.217126,37.778733 89.0822041,37.778733 C89.9354426,37.778733 90.6884394,37.9642197 91.3404051,38.3344036 C91.9915816,38.7053769 92.4967367,39.2310539 92.8566597,39.909856 C93.2157934,40.5902368 93.3957549,41.367702 93.3957549,42.2446197 C93.3957549,43.1199587 93.2157934,43.897424 92.8566597,44.5778047 C92.4967367,45.2573961 91.9915816,45.7822839 91.3404051,46.1532571 C90.6884394,46.5234411 89.9354426,46.7089277 89.0822041,46.7089277 C88.217126,46.7089277 87.4593934,46.5234411 86.8074276,46.1532571" id="Fill-22" fill="#34495E"></path>
                        <path d="M94.1569604,46.4142802 C94.0275144,46.273784 93.9627914,46.0859294 93.9627914,45.8499273 C93.9627914,45.681016 94.0196214,45.5239444 94.1317027,45.3787123 L96.7435123,42.2941091 L94.1317027,39.1100535 C94.0077818,38.9529818 93.946216,38.790385 93.946216,38.6214738 C93.946216,38.3965219 94.0196214,38.2141925 94.1656428,38.0736963 C94.3108749,37.9339893 94.4908364,37.8629519 94.704738,37.8629519 C94.9746802,37.8629519 95.1767422,37.9584578 95.3109241,38.1494695 L97.6701561,41.0651615 L100.012024,38.1494695 C100.146995,37.9584578 100.343532,37.8629519 100.602424,37.8629519 C100.826586,37.8629519 101.012073,37.9339893 101.158094,38.0736963 C101.304116,38.2141925 101.376732,38.3854717 101.376732,38.5875337 C101.376732,38.7564449 101.320691,38.9135166 101.20861,39.059538 L98.5462845,42.1930781 L101.17467,45.3613476 C101.297801,45.4963187 101.360156,45.6589155 101.360156,45.8499273 C101.360156,46.0638289 101.293065,46.245369 101.158094,46.3977048 C101.023123,46.5492513 100.832111,46.6250246 100.585059,46.6250246 C100.338006,46.6250246 100.14147,46.5239936 99.9954481,46.3219316 L97.6030652,43.4567551 L95.3448642,46.2879914 C95.1767422,46.5129433 94.9573155,46.6250246 94.6873733,46.6250246 C94.4632107,46.6250246 94.2864064,46.5547765 94.1569604,46.4142802" id="Fill-23" fill="#34495E"></path>
                        <path d="M21.6823611,47.4394293 C22.5561215,46.5277822 22.9933964,45.2356903 22.9933964,43.564732 C22.9933964,41.8953523 22.5561215,40.6032603 21.6823611,39.6900347 C20.8086006,38.7760197 19.6522691,38.3205908 18.214945,38.3205908 C17.321452,38.3205908 16.4816317,38.5194956 15.6954841,38.9173052 C14.9077579,39.3159042 14.2139589,39.8455277 13.6117194,40.5061758 L13.6117194,46.6240774 C14.2139589,47.2847256 14.9077579,47.8143491 15.6954841,48.2121587 C16.4816317,48.6099683 17.321452,48.8088732 18.214945,48.8088732 C19.6522691,48.8088732 20.8086006,48.352655 21.6823611,47.4394293 M13.6117194,49.0709224 L13.6117194,49.828655 C13.6117194,50.1980496 13.4806948,50.509825 13.2186456,50.760824 C12.9558071,51.0134015 12.6400851,51.1396903 12.2714798,51.1396903 C11.9020851,51.1396903 11.591099,51.0134015 11.3393108,50.760824 C11.0867333,50.509825 10.9604445,50.1980496 10.9604445,49.828655 L10.9604445,30.9192796 C10.9604445,30.5514635 11.0867333,30.2349523 11.3393108,29.9729031 C11.591099,29.7108539 11.9020851,29.5798293 12.2714798,29.5798293 C12.6598178,29.5798293 12.9802755,29.7053288 13.232853,29.9586956 C13.4854306,30.2112732 13.6117194,30.5317309 13.6117194,30.9192796 L13.6117194,38.0577523 C15.0293108,36.5817523 16.6900081,35.8437523 18.5938113,35.8437523 C19.7982905,35.8437523 20.9396252,36.1492133 22.0170263,36.7617138 C23.0952167,37.373425 23.9689771,38.2669181 24.6398862,39.4421929 C25.310006,40.6174678 25.6446712,41.9916475 25.6446712,43.564732 C25.6446712,45.1386058 25.310006,46.5127855 24.6398862,47.687271 C23.9689771,48.8633352 23.0952167,49.7568282 22.0170263,50.3677502 C20.9396252,50.9794614 19.7982905,51.2857117 18.5938113,51.2857117 C16.6900081,51.2857117 15.0293108,50.5477117 13.6117194,49.0709224" id="Fill-24" fill="#34495E"></path>
                        <path d="M3.56615807,24.1850098 C2.73265219,24.1850098 2.05463936,24.8622334 2.05463936,25.6965286 L2.05463936,55.1691703 C2.05463936,56.0034655 2.73265219,56.680689 3.56615807,56.680689 L33.0387998,56.680689 C33.8723057,56.680689 34.5503185,56.0034655 34.5503185,55.1691703 L34.5503185,25.6965286 C34.5503185,24.8622334 33.8723057,24.1850098 33.0387998,24.1850098 L3.56615807,24.1850098 Z M33.0387998,58.1922077 L3.56615807,58.1922077 C1.89914631,58.1922077 0.543120642,56.836182 0.543120642,55.1691703 L0.543120642,25.6965286 C0.543120642,24.0295168 1.89914631,22.6734911 3.56615807,22.6734911 L33.0387998,22.6734911 C34.7058116,22.6734911 36.0618372,24.0295168 36.0618372,25.6965286 L36.0618372,55.1691703 C36.0618372,56.836182 34.7058116,58.1922077 33.0387998,58.1922077 L33.0387998,58.1922077 Z" id="Fill-25" fill="#34495E"></path>
                        <path d="M3.56615807,24.1850098 C2.73265219,24.1850098 2.05463936,24.8622334 2.05463936,25.6965286 L2.05463936,55.1691703 C2.05463936,56.0034655 2.73265219,56.680689 3.56615807,56.680689 L33.0387998,56.680689 C33.8723057,56.680689 34.5503185,56.0034655 34.5503185,55.1691703 L34.5503185,25.6965286 C34.5503185,24.8622334 33.8723057,24.1850098 33.0387998,24.1850098 L3.56615807,24.1850098 Z M33.0387998,58.1922077 L3.56615807,58.1922077 C1.89914631,58.1922077 0.543120642,56.836182 0.543120642,55.1691703 L0.543120642,25.6965286 C0.543120642,24.0295168 1.89914631,22.6734911 3.56615807,22.6734911 L33.0387998,22.6734911 C34.7058116,22.6734911 36.0618372,24.0295168 36.0618372,25.6965286 L36.0618372,55.1691703 C36.0618372,56.836182 34.7058116,58.1922077 33.0387998,58.1922077 Z" id="Stroke-26" stroke="#34495E" stroke-width="0.789304813"></path>
                        <path d="M241.656798,43.7487979 C242.162742,43.2207529 242.41532,42.4740706 242.41532,41.5079615 C242.41532,40.5426417 242.162742,39.7951701 241.656798,39.2663358 C241.150853,38.7382909 240.483101,38.4746631 239.651963,38.4746631 C239.134969,38.4746631 238.648757,38.5906909 238.194117,38.8203786 C237.739478,39.0508556 237.337722,39.3571059 236.989638,39.7391294 L236.989638,43.2767936 C237.337722,43.6596064 237.739478,43.9650674 238.194117,44.1947551 C238.648757,44.4252321 239.134969,44.5404706 239.651963,44.5404706 C240.483101,44.5404706 241.150853,44.2768428 241.656798,43.7487979 M236.989638,44.6920171 L236.989638,45.1300813 C236.989638,45.3439829 236.913865,45.5239444 236.762319,45.6699658 C236.609983,45.8151979 236.427653,45.8886032 236.214541,45.8886032 C236.000639,45.8886032 235.820678,45.8151979 235.675446,45.6699658 C235.528635,45.5239444 235.456019,45.3439829 235.456019,45.1300813 L235.456019,34.1950524 C235.456019,33.9819401 235.528635,33.7996107 235.675446,33.6472749 C235.820678,33.4957283 236.000639,33.4199551 236.214541,33.4199551 C236.438704,33.4199551 236.62419,33.4933604 236.770212,33.6385925 C236.916233,33.7854032 236.989638,33.9701005 236.989638,34.1950524 L236.989638,38.3231166 C237.808937,37.4698781 238.769521,37.0428642 239.870601,37.0428642 C240.566768,37.0428642 241.227416,37.2196684 241.850177,37.5740663 C242.473728,37.9276749 242.979673,38.4438802 243.367221,39.124261 C243.753981,39.8038524 243.94815,40.597893 243.94815,41.5079615 C243.94815,42.4172406 243.753981,43.2120706 243.367221,43.8924513 C242.979673,44.5720428 242.473728,45.0882481 241.850177,45.442646 C241.227416,45.7962545 240.566768,45.9722695 239.870601,45.9722695 C238.769521,45.9722695 237.808937,45.5460449 236.989638,44.6920171" id="Fill-27" fill="#FFFFFF"></path>
                        <path d="M245.583984,45.6696501 C245.437962,45.5236287 245.365346,45.3436672 245.365346,45.1297656 L245.365346,34.195526 C245.365346,33.9816244 245.437962,33.799295 245.583984,33.6477484 C245.730794,33.4954126 245.909967,33.4196394 246.123868,33.4196394 C246.348031,33.4196394 246.533517,33.4930447 246.679539,33.6390661 C246.824771,33.7850875 246.898176,33.9705741 246.898176,34.195526 L246.898176,45.1297656 C246.898176,45.3436672 246.822403,45.5236287 246.670856,45.6696501 C246.51931,45.8156714 246.336191,45.8882875 246.123868,45.8882875 C245.909967,45.8882875 245.730794,45.8156714 245.583984,45.6696501" id="Fill-28" fill="#FFFFFF"></path>
                        <path d="M253.951878,44.2545055 C254.372577,44.0406039 254.72145,43.70436 254.996128,43.243406 C255.271595,42.7832413 255.408934,42.1991557 255.408934,41.4911493 C255.408934,40.7941932 255.271595,40.216422 254.996128,39.755468 C254.72145,39.2953033 254.372577,38.9614274 253.951878,38.7530509 C253.530389,38.5454637 253.089167,38.4412755 252.629003,38.4412755 C252.157788,38.4412755 251.710252,38.5454637 251.289553,38.7530509 C250.868064,38.9614274 250.522348,39.2953033 250.252406,39.755468 C249.984042,40.216422 249.849071,40.7941932 249.849071,41.4911493 C249.849071,42.1991557 249.984042,42.7832413 250.252406,43.243406 C250.522348,43.70436 250.868064,44.0406039 251.289553,44.2545055 C251.710252,44.4684071 252.157788,44.5741739 252.629003,44.5741739 C253.089167,44.5741739 253.530389,44.4684071 253.951878,44.2545055 M250.354226,45.4171514 C249.702261,45.0461782 249.199473,44.5212905 248.845865,43.841699 C248.492256,43.1621076 248.315452,42.3846424 248.315452,41.508514 C248.315452,40.6315964 248.492256,39.8541311 248.845865,39.1737504 C249.199473,38.4949482 249.702261,37.9692712 250.354226,37.598298 C251.006192,37.228114 251.763925,37.0426274 252.629003,37.0426274 C253.482241,37.0426274 254.234449,37.228114 254.887204,37.598298 C255.53838,37.9692712 256.043535,38.4949482 256.402669,39.1737504 C256.762592,39.8541311 256.942554,40.6315964 256.942554,41.508514 C256.942554,42.3846424 256.762592,43.1621076 256.402669,43.841699 C256.043535,44.5212905 255.53838,45.0461782 254.887204,45.4171514 C254.234449,45.7873354 253.482241,45.972822 252.629003,45.972822 C251.763925,45.972822 251.006192,45.7873354 250.354226,45.4171514" id="Fill-29" fill="#FFFFFF"></path>
                        <path d="M260.129924,45.4338058 C259.444808,45.0746721 258.89703,44.5576774 258.487381,43.8836111 C258.076942,43.2095448 257.872513,42.4178721 257.872513,41.5078036 C257.872513,40.5977352 258.076942,39.8060625 258.487381,39.1327855 C258.89703,38.4579298 259.444808,37.9417245 260.129924,37.5818015 C260.815041,37.2226678 261.561723,37.0427063 262.370761,37.0427063 C262.965896,37.0427063 263.479734,37.1184796 263.912273,37.2700261 C264.344812,37.4223619 264.746568,37.6157416 265.116752,37.8517437 C265.342493,37.9977651 265.454575,38.194302 265.454575,38.4413544 C265.454575,38.6094764 265.389852,38.7641801 265.260406,38.9046764 C265.13096,39.0451726 264.98257,39.1154207 264.814448,39.1154207 C264.689738,39.1154207 264.566607,39.0814806 264.443475,39.0143897 C264.072502,38.823378 263.755201,38.6852496 263.491573,38.6015833 C263.227156,38.5171277 262.898806,38.4752945 262.505732,38.4752945 C261.539623,38.4752945 260.781101,38.7531298 260.230955,39.3088004 C259.68081,39.864471 259.405342,40.5977352 259.405342,41.5078036 C259.405342,42.4178721 259.68081,43.150347 260.230955,43.7068068 C260.781101,44.2632667 261.539623,44.5403127 262.505732,44.5403127 C262.898806,44.5403127 263.227156,44.4984796 263.491573,44.414024 C263.755201,44.3303576 264.072502,44.1930186 264.443475,44.0020068 C264.566607,43.9341266 264.689738,43.9009758 264.814448,43.9009758 C264.98257,43.9009758 265.13096,43.9704347 265.260406,44.1109309 C265.389852,44.2514272 265.454575,44.4053416 265.454575,44.5742528 C265.454575,44.8220945 265.342493,45.0186314 265.116752,45.1638635 C264.746568,45.3998657 264.344812,45.5940347 263.912273,45.7455812 C263.479734,45.8971277 262.965896,45.972901 262.370761,45.972901 C261.561723,45.972901 260.815041,45.7937288 260.129924,45.4338058" id="Fill-30" fill="#FFFFFF"></path>
                        <path d="M272.851229,43.7487979 C273.357173,43.2207529 273.609751,42.4740706 273.609751,41.5079615 C273.609751,40.5426417 273.357173,39.7951701 272.851229,39.2663358 C272.345284,38.7382909 271.677533,38.4746631 270.846395,38.4746631 C270.3294,38.4746631 269.843188,38.5906909 269.388549,38.8203786 C268.933909,39.0508556 268.531364,39.3571059 268.18407,39.7391294 L268.18407,43.2767936 C268.531364,43.6596064 268.933909,43.9650674 269.388549,44.1947551 C269.843188,44.4252321 270.3294,44.5404706 270.846395,44.5404706 C271.677533,44.5404706 272.345284,44.2768428 272.851229,43.7487979 M268.18407,44.6920171 L268.18407,45.1300813 C268.18407,45.3439829 268.107507,45.5239444 267.95675,45.6699658 C267.804414,45.8151979 267.622084,45.8886032 267.408183,45.8886032 C267.195071,45.8886032 267.015109,45.8151979 266.869877,45.6699658 C266.723066,45.5239444 266.65124,45.3439829 266.65124,45.1300813 L266.65124,34.1950524 C266.65124,33.9819401 266.723066,33.7996107 266.869877,33.6472749 C267.015109,33.4957283 267.195071,33.4199551 267.408183,33.4199551 C267.633924,33.4199551 267.818621,33.4933604 267.965432,33.6385925 C268.110664,33.7854032 268.18407,33.9701005 268.18407,34.1950524 L268.18407,38.3231166 C269.003368,37.4698781 269.963952,37.0428642 271.065032,37.0428642 C271.761199,37.0428642 272.421058,37.2196684 273.044609,37.5740663 C273.668159,37.9276749 274.174104,38.4438802 274.561652,39.124261 C274.948412,39.8038524 275.142581,40.597893 275.142581,41.5079615 C275.142581,42.4172406 274.948412,43.2120706 274.561652,43.8924513 C274.174104,44.5720428 273.668159,45.0882481 273.044609,45.442646 C272.421058,45.7962545 271.761199,45.9722695 271.065032,45.9722695 C269.963952,45.9722695 269.003368,45.5460449 268.18407,44.6920171" id="Fill-31" fill="#FFFFFF"></path>
                        <path d="M281.708571,44.2545055 C282.130059,44.0406039 282.478143,43.70436 282.752821,43.243406 C283.029078,42.7832413 283.166417,42.1991557 283.166417,41.4911493 C283.166417,40.7941932 283.029078,40.216422 282.752821,39.755468 C282.478143,39.2953033 282.130059,38.9614274 281.708571,38.7530509 C281.287871,38.5454637 280.84665,38.4412755 280.385696,38.4412755 C279.914481,38.4412755 279.467734,38.5454637 279.046246,38.7530509 C278.625546,38.9614274 278.279831,39.2953033 278.009888,39.755468 C277.740735,40.216422 277.605764,40.7941932 277.605764,41.4911493 C277.605764,42.1991557 277.740735,42.7832413 278.009888,43.243406 C278.279831,43.70436 278.625546,44.0406039 279.046246,44.2545055 C279.467734,44.4684071 279.914481,44.5741739 280.385696,44.5741739 C280.84665,44.5741739 281.287871,44.4684071 281.708571,44.2545055 M278.110919,45.4171514 C277.459743,45.0461782 276.956956,44.5212905 276.603347,43.841699 C276.249739,43.1621076 276.072145,42.3846424 276.072145,41.508514 C276.072145,40.6315964 276.249739,39.8541311 276.603347,39.1737504 C276.956956,38.4949482 277.459743,37.9692712 278.110919,37.598298 C278.762885,37.228114 279.521407,37.0426274 280.385696,37.0426274 C281.239724,37.0426274 281.991931,37.228114 282.643897,37.598298 C283.295863,37.9692712 283.800228,38.4949482 284.160151,39.1737504 C284.520074,39.8541311 284.699247,40.6315964 284.699247,41.508514 C284.699247,42.3846424 284.520074,43.1621076 284.160151,43.841699 C283.800228,44.5212905 283.295863,45.0461782 282.643897,45.4171514 C281.991931,45.7873354 281.239724,45.972822 280.385696,45.972822 C279.521407,45.972822 278.762885,45.7873354 278.110919,45.4171514" id="Fill-32" fill="#FFFFFF"></path>
                        <path d="M285.460847,45.6781745 C285.331401,45.5376783 285.267467,45.3498237 285.267467,45.1138216 C285.267467,44.9449104 285.322719,44.7878387 285.435589,44.6426066 L288.046609,41.5580034 L285.435589,38.3739478 C285.312458,38.2168761 285.250102,38.0542794 285.250102,37.8853681 C285.250102,37.6604163 285.322719,37.4780868 285.469529,37.3375906 C285.614761,37.1978836 285.794723,37.1268462 286.007835,37.1268462 C286.277777,37.1268462 286.479839,37.2223521 286.61481,37.4133639 L288.974043,40.3290558 L291.31591,37.4133639 C291.450881,37.2223521 291.647418,37.1268462 291.905521,37.1268462 C292.129683,37.1268462 292.315959,37.1978836 292.461981,37.3375906 C292.608002,37.4780868 292.680618,37.649366 292.680618,37.851428 C292.680618,38.0203393 292.624577,38.1774109 292.512496,38.3234323 L289.850171,41.4569724 L292.479345,44.6252419 C292.602477,44.760213 292.664043,44.9228098 292.664043,45.1138216 C292.664043,45.3277232 292.596952,45.5092633 292.461981,45.6615991 C292.327009,45.8131457 292.135998,45.8889189 291.888945,45.8889189 C291.641893,45.8889189 291.445356,45.7878879 291.298545,45.5858259 L288.906162,42.7206494 L286.648751,45.5518858 C286.479839,45.7768376 286.261202,45.8889189 285.992049,45.8889189 C285.767097,45.8889189 285.589504,45.8186708 285.460847,45.6781745" id="Fill-33" fill="#FFFFFF"></path>
                        <path d="M212.986247,46.7033236 C213.860008,45.7916766 214.297283,44.4995846 214.297283,42.8286263 C214.297283,41.1592466 213.860008,39.8671547 212.986247,38.953929 C212.112487,38.039914 210.956156,37.5844851 209.518831,37.5844851 C208.625338,37.5844851 207.785518,37.7833899 206.99937,38.1811996 C206.211644,38.5797985 205.517845,39.109422 204.915606,39.7700702 L204.915606,45.8879718 C205.517845,46.5486199 206.211644,47.0782434 206.99937,47.476053 C207.785518,47.8738627 208.625338,48.0727675 209.518831,48.0727675 C210.956156,48.0727675 212.112487,47.6165493 212.986247,46.7033236 M204.915606,48.3348167 L204.915606,49.0925493 C204.915606,49.461944 204.784581,49.7737194 204.522532,50.0247183 C204.259693,50.2772958 203.943972,50.4035846 203.575366,50.4035846 C203.205972,50.4035846 202.894985,50.2772958 202.643197,50.0247183 C202.39062,49.7737194 202.264331,49.461944 202.264331,49.0925493 L202.264331,30.1831739 C202.264331,29.8153579 202.39062,29.4988466 202.643197,29.2367974 C202.894985,28.9747482 203.205972,28.8437236 203.575366,28.8437236 C203.963704,28.8437236 204.284162,28.9692231 204.536739,29.2225899 C204.789317,29.4751675 204.915606,29.7956252 204.915606,30.1831739 L204.915606,37.3216466 C206.333197,35.8456466 207.993895,35.1076466 209.897698,35.1076466 C211.101388,35.1076466 212.243512,35.4131076 213.320913,36.0256081 C214.399103,36.6373194 215.272864,37.5308124 215.943773,38.7060873 C216.613892,39.8813621 216.948558,41.2555418 216.948558,42.8286263 C216.948558,44.4025001 216.613892,45.7766798 215.943773,46.9511653 C215.272864,48.1272295 214.399103,49.0207226 213.320913,49.6316445 C212.243512,50.2433557 211.101388,50.549606 209.897698,50.549606 C207.993895,50.549606 206.333197,49.811606 204.915606,48.3348167" id="Fill-34" fill="#FFFFFF"></path>
                        <path d="M194.870044,23.4489042 C194.036539,23.4489042 193.358526,24.1261277 193.358526,24.9604229 L193.358526,54.4330646 C193.358526,55.2673598 194.036539,55.9445833 194.870044,55.9445833 L224.342686,55.9445833 C225.176192,55.9445833 225.854205,55.2673598 225.854205,54.4330646 L225.854205,24.9604229 C225.854205,24.1261277 225.176192,23.4489042 224.342686,23.4489042 L194.870044,23.4489042 Z M224.342686,57.456102 L194.870044,57.456102 C193.203033,57.456102 191.847007,56.1000764 191.847007,54.4330646 L191.847007,24.9604229 C191.847007,23.2934111 193.203033,21.9373855 194.870044,21.9373855 L224.342686,21.9373855 C226.009698,21.9373855 227.365724,23.2934111 227.365724,24.9604229 L227.365724,54.4330646 C227.365724,56.1000764 226.009698,57.456102 224.342686,57.456102 L224.342686,57.456102 Z" id="Fill-35" fill="#FFFFFF"></path>
                        <path d="M436.820858,39.8516053 C437.326013,39.3243497 437.578591,38.5768781 437.578591,37.610769 C437.578591,36.6454492 437.326013,35.8979775 436.820858,35.3691433 C436.314914,34.8418877 435.647162,34.5774706 434.815235,34.5774706 C434.299029,34.5774706 433.812818,34.6934984 433.358178,34.9231861 C432.902749,35.1536631 432.500993,35.4607027 432.153699,35.8419369 L432.153699,39.3796011 C432.500993,39.7624139 432.902749,40.0678749 433.358178,40.2975626 C433.812818,40.5280396 434.299029,40.6440674 434.815235,40.6440674 C435.647162,40.6440674 436.314914,40.3796503 436.820858,39.8516053 M432.153699,40.7948246 L432.153699,41.2336781 C432.153699,41.4467904 432.077136,41.6267519 431.926379,41.7727733 C431.774043,41.9180053 431.591714,41.9914107 431.377812,41.9914107 C431.1647,41.9914107 430.984738,41.9180053 430.839506,41.7727733 C430.692696,41.6267519 430.62008,41.4467904 430.62008,41.2336781 L430.62008,30.2978599 C430.62008,30.0847476 430.692696,29.9024182 430.839506,29.7500824 C430.984738,29.5993251 431.1647,29.5227626 431.377812,29.5227626 C431.602764,29.5227626 431.788251,29.5961679 431.934272,29.7414 C432.080293,29.8882107 432.153699,30.0736973 432.153699,30.2978599 L432.153699,34.4267134 C432.972997,33.5726856 433.933581,33.1456717 435.034661,33.1456717 C435.730828,33.1456717 436.390687,33.3232652 437.014238,33.6768738 C437.637789,34.0304824 438.143733,34.5466877 438.530492,35.2270684 C438.918041,35.9066599 439.11221,36.7007005 439.11221,37.610769 C439.11221,38.5200481 438.918041,39.3156674 438.530492,39.9952588 C438.143733,40.6748503 437.637789,41.1910556 437.014238,41.5454535 C436.390687,41.899062 435.730828,42.0758663 435.034661,42.0758663 C433.933581,42.0758663 432.972997,41.6488524 432.153699,40.7948246" id="Fill-36" fill="#FFFFFF"></path>
                        <path d="M440.748123,41.7724575 C440.601313,41.6264361 440.529486,41.447264 440.529486,41.2333624 L440.529486,30.2983335 C440.529486,30.0844319 440.601313,29.9021025 440.748123,29.7505559 C440.894145,29.5990094 441.073317,29.5224468 441.287218,29.5224468 C441.51217,29.5224468 441.696868,29.5958522 441.843678,29.7418736 C441.98891,29.887895 442.062316,30.0741709 442.062316,30.2983335 L442.062316,41.2333624 C442.062316,41.447264 441.986542,41.6264361 441.834996,41.7724575 C441.683449,41.9184789 441.500331,41.991095 441.287218,41.991095 C441.073317,41.991095 440.894145,41.9184789 440.748123,41.7724575" id="Fill-37" fill="#FFFFFF"></path>
                        <path d="M449.115228,40.3573129 C449.536717,40.1434113 449.8848,39.8071675 450.160267,39.3462135 C450.435735,38.8860488 450.573074,38.3019632 450.573074,37.5939568 C450.573074,36.8977899 450.435735,36.3192295 450.160267,35.8582755 C449.8848,35.3981108 449.536717,35.0642349 449.115228,34.8558584 C448.694528,34.6482712 448.253307,34.5448723 447.792353,34.5448723 C447.321138,34.5448723 446.874391,34.6482712 446.453692,34.8558584 C446.032203,35.0642349 445.686488,35.3981108 445.416545,35.8582755 C445.147393,36.3192295 445.012421,36.8977899 445.012421,37.5939568 C445.012421,38.3019632 445.147393,38.8860488 445.416545,39.3462135 C445.686488,39.8071675 446.032203,40.1434113 446.453692,40.3573129 C446.874391,40.5712145 447.321138,40.6769814 447.792353,40.6769814 C448.253307,40.6769814 448.694528,40.5712145 449.115228,40.3573129 M445.517576,41.5199589 C444.8664,41.1489857 444.363613,40.624098 444.010004,39.9445065 C443.656396,39.2649151 443.478802,38.4874498 443.478802,37.6113215 C443.478802,36.7344039 443.656396,35.9569386 444.010004,35.2765579 C444.363613,34.5977557 444.8664,34.0720787 445.517576,33.7018948 C446.169542,33.3317108 446.928064,33.1454349 447.792353,33.1454349 C448.646381,33.1454349 449.398588,33.3317108 450.050554,33.7018948 C450.70252,34.0720787 451.206886,34.5977557 451.566809,35.2765579 C451.926732,35.9569386 452.105904,36.7344039 452.105904,37.6113215 C452.105904,38.4874498 451.926732,39.2649151 451.566809,39.9445065 C451.206886,40.624098 450.70252,41.1489857 450.050554,41.5199589 C449.398588,41.8901429 448.646381,42.0764188 447.792353,42.0764188 C446.928064,42.0764188 446.169542,41.8901429 445.517576,41.5199589" id="Fill-38" fill="#FFFFFF"></path>
                        <path d="M455.293985,41.5366133 C454.608868,41.1774796 454.061091,40.6604849 453.650652,39.9864186 C453.240214,39.3131416 453.035784,38.5206796 453.035784,37.6106111 C453.035784,36.7005427 453.240214,35.9088699 453.650652,35.2355929 C454.061091,34.5607373 454.608868,34.044532 455.293985,33.6853983 C455.978312,33.3254753 456.725784,33.1455138 457.534821,33.1455138 C458.129957,33.1455138 458.643794,33.2220764 459.076333,33.3728336 C459.508873,33.5251694 459.910629,33.7185491 460.280813,33.9545512 C460.505764,34.1005726 460.617846,34.2971095 460.617846,34.5449512 C460.617846,34.7122839 460.553123,34.8677769 460.424466,35.0074839 C460.29502,35.1479801 460.145841,35.2182282 459.978509,35.2182282 C459.853799,35.2182282 459.730667,35.1842881 459.607536,35.1171972 C459.236562,34.9261855 458.919262,34.7888464 458.655634,34.7043908 C458.391217,34.6199352 458.062866,34.578102 457.669792,34.578102 C456.702894,34.578102 455.945161,34.8559373 455.395016,35.4116079 C454.84487,35.9672785 454.569403,36.7005427 454.569403,37.6106111 C454.569403,38.5206796 454.84487,39.2531544 455.395016,39.8096143 C455.945161,40.3660742 456.702894,40.6439095 457.669792,40.6439095 C458.062866,40.6439095 458.391217,40.6012871 458.655634,40.5176207 C458.919262,40.4331651 459.236562,40.2958261 459.607536,40.1048143 C459.730667,40.0377234 459.853799,40.0037833 459.978509,40.0037833 C460.145841,40.0037833 460.29502,40.0732421 460.424466,40.2137384 C460.553123,40.355024 460.617846,40.5089384 460.617846,40.6770603 C460.617846,40.924902 460.505764,41.1214389 460.280813,41.266671 C459.910629,41.5026732 459.508873,41.6968421 459.076333,41.849178 C458.643794,41.9999352 458.129957,42.0764978 457.534821,42.0764978 C456.725784,42.0764978 455.978312,41.8965363 455.293985,41.5366133" id="Fill-39" fill="#FFFFFF"></path>
                        <path d="M468.014579,39.8516053 C468.520523,39.3243497 468.773101,38.5768781 468.773101,37.610769 C468.773101,36.6454492 468.520523,35.8979775 468.014579,35.3691433 C467.509424,34.8418877 466.841672,34.5774706 466.009745,34.5774706 C465.493539,34.5774706 465.007328,34.6934984 464.552688,34.9231861 C464.097259,35.1536631 463.695503,35.4607027 463.348209,35.8419369 L463.348209,39.3796011 C463.695503,39.7624139 464.097259,40.0678749 464.552688,40.2975626 C465.007328,40.5280396 465.493539,40.6440674 466.009745,40.6440674 C466.841672,40.6440674 467.509424,40.3796503 468.014579,39.8516053 M463.348209,40.7948246 L463.348209,41.2336781 C463.348209,41.4467904 463.271646,41.6267519 463.1201,41.7727733 C462.968553,41.9180053 462.786224,41.9914107 462.572322,41.9914107 C462.35921,41.9914107 462.179249,41.9180053 462.033227,41.7727733 C461.887206,41.6267519 461.81459,41.4467904 461.81459,41.2336781 L461.81459,30.2978599 C461.81459,30.0847476 461.887206,29.9024182 462.033227,29.7500824 C462.179249,29.5993251 462.35921,29.5227626 462.572322,29.5227626 C462.797274,29.5227626 462.982761,29.5961679 463.128782,29.7414 C463.274804,29.8882107 463.348209,30.0736973 463.348209,30.2978599 L463.348209,34.4267134 C464.167507,33.5726856 465.128091,33.1456717 466.228382,33.1456717 C466.925338,33.1456717 467.585197,33.3232652 468.208748,33.6768738 C468.832299,34.0304824 469.337454,34.5466877 469.725003,35.2270684 C470.112551,35.9066599 470.305931,36.7007005 470.305931,37.610769 C470.305931,38.5200481 470.112551,39.3156674 469.725003,39.9952588 C469.337454,40.6748503 468.832299,41.1910556 468.208748,41.5454535 C467.585197,41.899062 466.925338,42.0758663 466.228382,42.0758663 C465.128091,42.0758663 464.167507,41.6488524 463.348209,40.7948246" id="Fill-40" fill="#FFFFFF"></path>
                        <path d="M476.87271,40.3573129 C477.29341,40.1434113 477.642282,39.8071675 477.91696,39.3462135 C478.192428,38.8860488 478.330556,38.3019632 478.330556,37.5939568 C478.330556,36.8977899 478.192428,36.3192295 477.91696,35.8582755 C477.642282,35.3981108 477.29341,35.0642349 476.87271,34.8558584 C476.452011,34.6482712 476.01,34.5448723 475.549835,34.5448723 C475.07862,34.5448723 474.631874,34.6482712 474.210385,34.8558584 C473.789686,35.0642349 473.44397,35.3981108 473.174028,35.8582755 C472.904875,36.3192295 472.769904,36.8977899 472.769904,37.5939568 C472.769904,38.3019632 472.904875,38.8860488 473.174028,39.3462135 C473.44397,39.8071675 473.789686,40.1434113 474.210385,40.3573129 C474.631874,40.5712145 475.07862,40.6769814 475.549835,40.6769814 C476.01,40.6769814 476.452011,40.5712145 476.87271,40.3573129 M473.275059,41.5199589 C472.623882,41.1489857 472.120306,40.624098 471.767487,39.9445065 C471.413089,39.2649151 471.236284,38.4874498 471.236284,37.6113215 C471.236284,36.7344039 471.413089,35.9569386 471.767487,35.2765579 C472.120306,34.5977557 472.623882,34.0720787 473.275059,33.7018948 C473.927025,33.3317108 474.685547,33.1454349 475.549835,33.1454349 C476.403074,33.1454349 477.156071,33.3317108 477.808036,33.7018948 C478.459213,34.0720787 478.964368,34.5977557 479.324291,35.2765579 C479.684214,35.9569386 479.863386,36.7344039 479.863386,37.6113215 C479.863386,38.4874498 479.684214,39.2649151 479.324291,39.9445065 C478.964368,40.624098 478.459213,41.1489857 477.808036,41.5199589 C477.156071,41.8901429 476.403074,42.0764188 475.549835,42.0764188 C474.685547,42.0764188 473.927025,41.8901429 473.275059,41.5199589" id="Fill-41" fill="#FFFFFF"></path>
                        <path d="M480.624986,41.780982 C480.49554,41.6404858 480.430817,41.4526312 480.430817,41.2166291 C480.430817,41.0477179 480.486858,40.8906462 480.599729,40.7454141 L483.210749,37.6608109 L480.599729,34.4767553 C480.475808,34.3196836 480.413453,34.1570868 480.413453,33.9881756 C480.413453,33.764013 480.486858,33.5808943 480.633669,33.4411874 C480.778901,33.3006911 480.958862,33.2296537 481.171975,33.2296537 C481.441917,33.2296537 481.643979,33.3251596 481.77895,33.5161713 L484.137393,36.4318633 L486.480049,33.5161713 C486.615021,33.3251596 486.810768,33.2296537 487.06966,33.2296537 C487.293823,33.2296537 487.480099,33.3006911 487.625331,33.4411874 C487.771352,33.5808943 487.843968,33.7521735 487.843968,33.9542355 C487.843968,34.1231467 487.787927,34.2802184 487.676636,34.4270291 L485.01431,37.5597799 L487.642695,40.7280494 C487.765827,40.8630205 487.828182,41.0256173 487.828182,41.2166291 C487.828182,41.4305307 487.760302,41.6128601 487.625331,41.7644066 C487.49036,41.9159532 487.300137,41.9917264 487.053085,41.9917264 C486.805243,41.9917264 486.608706,41.8906954 486.462685,41.6886334 L484.070302,38.8242462 L481.81289,41.6546933 C481.643979,41.8796451 481.425341,41.9917264 481.155399,41.9917264 C480.931237,41.9917264 480.753643,41.9214783 480.624986,41.780982" id="Fill-42" fill="#FFFFFF"></path>
                        <path d="M408.149992,42.8069204 C409.023753,41.8944841 409.461028,40.6023921 409.461028,38.9322231 C409.461028,37.2620541 409.023753,35.9699621 408.149992,35.0567365 C407.276232,34.1435108 406.12069,33.6872926 404.682576,33.6872926 C403.789873,33.6872926 402.949263,33.8861974 402.163115,34.2840071 C401.376178,34.682606 400.68159,35.2122295 400.079351,35.8728776 L400.079351,41.9907793 C400.68159,42.6514274 401.376178,43.1810509 402.163115,43.5788605 C402.949263,43.9766702 403.789873,44.175575 404.682576,44.175575 C406.12069,44.175575 407.276232,43.7193568 408.149992,42.8069204 M400.079351,44.4384135 L400.079351,45.1953568 C400.079351,45.5647514 399.948326,45.8765268 399.686277,46.1283151 C399.423438,46.3801033 399.107716,46.5063921 398.739111,46.5063921 C398.369716,46.5063921 398.05952,46.3801033 397.806942,46.1283151 C397.553575,45.8765268 397.428076,45.5647514 397.428076,45.1953568 L397.428076,26.2867707 C397.428076,25.9181653 397.553575,25.6016541 397.806942,25.3396049 C398.05952,25.0775557 398.369716,24.9465311 398.739111,24.9465311 C399.127449,24.9465311 399.448696,25.0728199 399.700484,25.3253974 C399.953062,25.577975 400.079351,25.8984327 400.079351,26.2867707 L400.079351,33.4252434 C401.496942,31.9484541 403.158429,31.2112434 405.061443,31.2112434 C406.265132,31.2112434 407.407256,31.5159151 408.485447,32.1292049 C409.562848,32.7401268 410.436608,33.6336199 411.107517,34.8088948 C411.777637,35.9841696 412.113092,37.3583493 412.113092,38.9322231 C412.113092,40.5053076 411.777637,41.8794873 411.107517,43.0539728 C410.436608,44.230037 409.562848,45.1235301 408.485447,45.7352413 C407.407256,46.3461632 406.265132,46.6524135 405.061443,46.6524135 C403.158429,46.6524135 401.496942,45.9152028 400.079351,44.4384135" id="Fill-43" fill="#FFFFFF"></path>
                        <path d="M390.03371,19.5517117 C389.200204,19.5517117 388.522192,20.2297245 388.522192,21.0632304 L388.522192,50.5358721 C388.522192,51.3701673 389.200204,52.0473908 390.03371,52.0473908 L419.507141,52.0473908 C420.339858,52.0473908 421.01866,51.3701673 421.01866,50.5358721 L421.01866,21.0632304 C421.01866,20.2297245 420.339858,19.5517117 419.507141,19.5517117 L390.03371,19.5517117 Z M419.507141,53.5589095 L390.03371,53.5589095 C388.367488,53.5589095 387.010673,52.2028839 387.010673,50.5358721 L387.010673,21.0632304 C387.010673,19.3962186 388.367488,18.0401929 390.03371,18.0401929 L419.507141,18.0401929 C421.173364,18.0401929 422.52939,19.3962186 422.52939,21.0632304 L422.52939,50.5358721 C422.52939,52.2028839 421.173364,53.5589095 419.507141,53.5589095 L419.507141,53.5589095 Z" id="Fill-44" fill="#FFFFFF"></path>
                    </g>
                </g>
            </g>
        </g>
    </g>
</svg>