<?xml version="1.0" encoding="UTF-8"?>
<svg width="661px" height="460px" viewBox="0 0 661 460" version="1.1" xmlns="http://www.w3.org/2000/svg" xmlns:xlink="http://www.w3.org/1999/xlink">
    <!-- Generator: Sketch 45.1 (43504) - http://www.bohemiancoding.com/sketch -->
    <title>Option 2</title>
    <desc>Created with Sketch.</desc>
    <defs>
        <rect id="path-1" x="0.74610358" y="0.178881628" width="600.858289" height="400.572193"></rect>
        <filter x="-7.2%" y="-11.2%" width="115.6%" height="123.5%" filterUnits="objectBoundingBox" id="filter-2">
            <feOffset dx="4" dy="2" in="SourceAlpha" result="shadowOffsetOuter1"></feOffset>
            <feGaussianBlur stdDeviation="15" in="shadowOffsetOuter1" result="shadowBlurOuter1"></feGaussianBlur>
            <feComposite in="shadowBlurOuter1" in2="SourceAlpha" operator="out" result="shadowBlurOuter1"></feComposite>
            <feColorMatrix values="0 0 0 0 0   0 0 0 0 0   0 0 0 0 0  0 0 0 0.5 0" type="matrix" in="shadowBlurOuter1"></feColorMatrix>
        </filter>
        <polygon id="path-3" points="25.6524064 378.668984 577.801117 378.668984 577.801117 153.533994 25.6524064 153.533994"></polygon>
        <polygon id="path-5" points="175.358745 78.9304813 0.530097112 78.9304813 0.530097112 0.000236791444 175.358745 0.000236791444 175.358745 78.9304813"></polygon>
        <polygon id="path-7" points="0 225.741176 552.14871 225.741176 552.14871 0.606186096 0 0.606186096"></polygon>
        <polygon id="path-9" points="-26.1055233 225.741176 526.043187 225.741176 526.043187 0.606186096 -26.1055233 0.606186096"></polygon>
        <polygon id="path-11" points="277.046779 0.268363636 0.000394652406 0.268363636 0.000394652406 84.619282 277.046779 84.619282 277.046779 0.268363636"></polygon>
        <polygon id="path-13" points="57.4431574 0.268363636 0.613210909 0.268363636 0.613210909 8.2163621 57.4431574 8.2163621 57.4431574 0.268363636"></polygon>
    </defs>
    <g id="Portfolio" stroke="none" stroke-width="1" fill="none" fill-rule="evenodd">
        <g id="BLOCBOX-CASE-STUDY" transform="translate(-31.000000, -12209.000000)">
            <g id="Typography,-Logo-and-Color" transform="translate(55.230000, 11783.658889)">
                <g id="Option-2" transform="translate(0.997184, 452.578238)">
                    <g id="Group-10" transform="translate(0.000000, 0.183119)">
                        <g id="Rectangle-16" opacity="0.547497736">
                            <use fill="black" fill-opacity="1" filter="url(#filter-2)" xlink:href="#path-1"></use>
                            <use fill="#FFFFFF" fill-rule="evenodd" xlink:href="#path-1"></use>
                            <rect stroke="#979797" stroke-width="0.986631016" x="1.23941909" y="0.672197136" width="599.871658" height="399.585561"></rect>
                        </g>
                        <path d="M201.743469,376.27818 L28.4934302,376.27818 C28.0577339,376.27818 27.7041253,375.92536 27.7041253,375.488875 L27.7041253,298.137003 C27.7041253,297.701307 28.0577339,297.347698 28.4934302,297.347698 L201.743469,297.347698 C202.179954,297.347698 202.532773,297.701307 202.532773,298.137003 L202.532773,375.488875 C202.532773,375.92536 202.179954,376.27818 201.743469,376.27818 Z" id="Fill-1" fill="#FFFFFF"></path>
                        <mask id="mask-4" fill="white">
                            <use xlink:href="#path-3"></use>
                        </mask>
                        <g id="Clip-4"></g>
                        <polygon id="Fill-3" fill="#333333" mask="url(#mask-4)" points="404.417686 378.627151 577.801117 378.627151 577.801117 299.69667 404.417686 299.69667"></polygon>
                        <path d="M103.662321,257.001436 L26.4414744,257.001436 C26.0057782,257.001436 25.6521696,256.647827 25.6521696,256.212131 L25.6521696,178.860259 C25.6521696,178.424563 26.0057782,178.070954 26.4414744,178.070954 L103.662321,178.070954 C104.098018,178.070954 104.451626,178.424563 104.451626,178.860259 L104.451626,256.212131 C104.451626,256.647827 104.098018,257.001436 103.662321,257.001436" id="Fill-5" fill="#F59300" mask="url(#mask-4)"></path>
                        <polygon id="Fill-6" fill="#BABABA" mask="url(#mask-4)" points="119.448655 256.411194 198.247322 256.411194 198.247322 177.480712 119.448655 177.480712"></polygon>
                        <polygon id="Fill-7" fill="#606060" mask="url(#mask-4)" points="213.901604 256.411194 292.701061 256.411194 292.701061 177.480712 213.901604 177.480712"></polygon>
                        <polygon id="Fill-8" fill="#A7D9FF" mask="url(#mask-4)" points="403.071921 256.411194 481.870588 256.411194 481.870588 177.480712 403.071921 177.480712"></polygon>
                        <polygon id="Fill-9" fill="#377DB2" mask="url(#mask-4)" points="308.487157 256.411194 387.285825 256.411194 387.285825 177.480712 308.487157 177.480712"></polygon>
                    </g>
                    <text id="#F59300" font-family="LucidaGrande, Lucida Grande" font-size="9.47165775" font-weight="normal" fill="#FCFCFC">
                        <tspan x="48.477523" y="214.973501">#F59300</tspan>
                    </text>
                    <text id="#5F81A3" font-family="LucidaGrande, Lucida Grande" font-size="9.47165775" font-weight="normal" fill="#FCFCFC">
                        <tspan x="141.347127" y="217.407717">#5F81A3</tspan>
                    </text>
                    <text id="#FFBF60" font-family="LucidaGrande, Lucida Grande" font-size="9.47165775" font-weight="normal" fill="#FCFCFC">
                        <tspan x="236.508873" y="217.407717">#FFBF60</tspan>
                    </text>
                    <text id="#377DB2" font-family="LucidaGrande, Lucida Grande" font-size="9.47165775" font-weight="normal" fill="#FCFCFC">
                        <tspan x="329.871003" y="217.407717">#377DB2</tspan>
                    </text>
                    <text id="#A7D9FF" font-family="LucidaGrande, Lucida Grande" font-size="9.47165775" font-weight="normal" fill="#FCFCFC">
                        <tspan x="424.369733" y="217.407717">#A7D9FF</tspan>
                    </text>
                    <g id="Group-34" transform="translate(25.652406, 153.110926)">
                        <g id="Group-13" transform="translate(188.643850, 146.810695)">
                            <mask id="mask-6" fill="white">
                                <use xlink:href="#path-5"></use>
                            </mask>
                            <g id="Clip-12"></g>
                            <path d="M174.56944,78.9307181 L1.31940193,78.9307181 C0.883705668,78.9307181 0.530097112,78.5771095 0.530097112,78.1414133 L0.530097112,0.789541604 C0.530097112,0.353056043 0.883705668,0.000236791444 1.31940193,0.000236791444 L174.56944,0.000236791444 C175.005926,0.000236791444 175.358745,0.353056043 175.358745,0.789541604 L175.358745,78.1414133 C175.358745,78.5771095 175.005926,78.9307181 174.56944,78.9307181" id="Fill-11" fill="#F59300" mask="url(#mask-6)"></path>
                        </g>
                        <mask id="mask-8" fill="white">
                            <use xlink:href="#path-7"></use>
                        </mask>
                        <g id="Clip-15"></g>
                        <polygon id="Fill-14" fill="#333333" mask="url(#mask-8)" points="472.136092 103.483386 550.934759 103.483386 550.934759 24.5529048 472.136092 24.5529048"></polygon>
                        <path d="M88.8589887,187.937265 C89.364933,187.410009 89.6175106,186.663327 89.6175106,185.696428 C89.6175106,184.731108 89.364933,183.983637 88.8589887,183.455592 C88.3530443,182.927547 87.6852924,182.663919 86.8541544,182.663919 C86.3371598,182.663919 85.850948,182.779158 85.3963084,183.009635 C84.9416689,183.240112 84.5391234,183.546362 84.1918293,183.927596 L84.1918293,187.46605 C84.5391234,187.848073 84.9416689,188.153534 85.3963084,188.384011 C85.850948,188.614488 86.3371598,188.729727 86.8541544,188.729727 C87.6852924,188.729727 88.3530443,188.466099 88.8589887,187.937265 M84.1918293,188.881273 L84.1918293,189.319337 C84.1918293,189.53245 84.1152667,189.712411 83.9645095,189.858433 C83.8121737,190.004454 83.6298443,190.077859 83.4159427,190.077859 C83.2028304,190.077859 83.0228689,190.004454 82.8776368,189.858433 C82.7308261,189.712411 82.6589994,189.53245 82.6589994,189.319337 L82.6589994,178.383519 C82.6589994,178.171196 82.7308261,177.988867 82.8776368,177.836531 C83.0228689,177.684984 83.2028304,177.609211 83.4159427,177.609211 C83.6416839,177.609211 83.8263812,177.682616 83.9731919,177.827849 C84.118424,177.97387 84.1918293,178.159357 84.1918293,178.383519 L84.1918293,182.512373 C85.0111277,181.658345 85.9717117,181.231331 87.0727919,181.231331 C87.7689587,181.231331 88.4288175,181.408924 89.0523683,181.762533 C89.6759191,182.116142 90.1818635,182.633136 90.5694122,183.312728 C90.9561716,183.992319 91.1503405,184.787149 91.1503405,185.696428 C91.1503405,186.606497 90.9561716,187.401327 90.5694122,188.081707 C90.1818635,188.76051 89.6759191,189.277504 89.0523683,189.631113 C88.4288175,189.984721 87.7689587,190.161526 87.0727919,190.161526 C85.9717117,190.161526 85.0111277,189.734512 84.1918293,188.881273" id="Fill-16" fill="#F59300" mask="url(#mask-8)"></path>
                        <path d="M92.7862537,189.858117 C92.6402323,189.712095 92.5676163,189.532923 92.5676163,189.319022 L92.5676163,178.383993 C92.5676163,178.17088 92.6402323,177.988551 92.7862537,177.837004 C92.9322751,177.684669 93.1122366,177.608895 93.3261382,177.608895 C93.5503007,177.608895 93.7357874,177.682301 93.8818088,177.828322 C94.0270409,177.973554 94.1004462,178.15983 94.1004462,178.383993 L94.1004462,189.319022 C94.1004462,189.532923 94.0246729,189.712095 93.8731264,189.858117 C93.7215799,190.004927 93.5384612,190.077544 93.3261382,190.077544 C93.1122366,190.077544 92.9322751,190.004927 92.7862537,189.858117" id="Fill-17" fill="#F59300" mask="url(#mask-8)"></path>
                        <path d="M101.154069,188.443683 C101.574768,188.229781 101.923641,187.892748 102.198319,187.432583 C102.473786,186.971629 102.611125,186.388333 102.611125,185.679537 C102.611125,184.98337 102.473786,184.405599 102.198319,183.944645 C101.923641,183.48448 101.574768,183.149815 101.154069,182.941439 C100.73258,182.734641 100.291359,182.630453 99.8311938,182.630453 C99.3591895,182.630453 98.912443,182.734641 98.4917435,182.941439 C98.0702548,183.149815 97.7245393,183.48448 97.454597,183.944645 C97.1862334,184.405599 97.0512622,184.98337 97.0512622,185.679537 C97.0512622,186.388333 97.1862334,186.971629 97.454597,187.432583 C97.7245393,187.892748 98.0702548,188.229781 98.4917435,188.443683 C98.912443,188.656795 99.3591895,188.763351 99.8311938,188.763351 C100.291359,188.763351 100.73258,188.656795 101.154069,188.443683 M97.5564173,189.606329 C96.9044516,189.235355 96.4016644,188.710468 96.0480558,188.030876 C95.6944473,187.350495 95.5168537,186.57303 95.5168537,185.696902 C95.5168537,184.820773 95.6944473,184.043308 96.0480558,183.362927 C96.4016644,182.683336 96.9044516,182.158448 97.5564173,181.787475 C98.2083831,181.417291 98.9661157,181.231015 99.8311938,181.231015 C100.684432,181.231015 101.43664,181.417291 102.089395,181.787475 C102.740571,182.158448 103.244937,182.683336 103.60486,183.362927 C103.964783,184.043308 104.144745,184.820773 104.144745,185.696902 C104.144745,186.57303 103.964783,187.350495 103.60486,188.030876 C103.244937,188.710468 102.740571,189.235355 102.089395,189.606329 C101.43664,189.976513 100.684432,190.161999 99.8311938,190.161999 C98.9661157,190.161999 98.2083831,189.976513 97.5564173,189.606329" id="Fill-18" fill="#F59300" mask="url(#mask-8)"></path>
                        <path d="M107.332115,189.622194 C106.646999,189.26306 106.099221,188.746855 105.689572,188.072788 C105.278344,187.398722 105.074704,186.607049 105.074704,185.696191 C105.074704,184.786912 105.278344,183.99445 105.689572,183.321173 C106.099221,182.647107 106.646999,182.130902 107.332115,181.770979 C108.017232,181.411845 108.763914,181.231094 109.572952,181.231094 C110.168087,181.231094 110.681925,181.307657 111.114464,181.459203 C111.547003,181.611539 111.948759,181.804919 112.318943,182.040921 C112.544684,182.186153 112.655976,182.38269 112.655976,182.630532 C112.655976,182.797864 112.591253,182.953357 112.462597,183.093853 C112.333151,183.23356 112.183972,183.303809 112.016639,183.303809 C111.891929,183.303809 111.768798,183.269868 111.645666,183.202778 C111.274693,183.012555 110.957392,182.874427 110.693764,182.789971 C110.429347,182.705516 110.100997,182.664472 109.707923,182.664472 C108.741814,182.664472 107.983292,182.941518 107.433146,183.497978 C106.883001,184.053648 106.607533,184.786912 106.607533,185.696191 C106.607533,186.607049 106.883001,187.339524 107.433146,187.895195 C107.983292,188.451655 108.741814,188.72949 109.707923,188.72949 C110.100997,188.72949 110.429347,188.686867 110.693764,188.603201 C110.957392,188.519535 111.274693,188.382196 111.645666,188.191184 C111.768798,188.123304 111.891929,188.089364 112.016639,188.089364 C112.183972,188.089364 112.333151,188.159612 112.462597,188.299319 C112.591253,188.440604 112.655976,188.594519 112.655976,188.76343 C112.655976,189.010482 112.544684,189.207019 112.318943,189.353041 C111.948759,189.589043 111.547003,189.782422 111.114464,189.934758 C110.681925,190.086305 110.168087,190.162078 109.572952,190.162078 C108.763914,190.162078 108.017232,189.982117 107.332115,189.622194" id="Fill-19" fill="#F59300" mask="url(#mask-8)"></path>
                        <path d="M120.053499,187.937265 C120.559443,187.410009 120.811231,186.663327 120.811231,185.696428 C120.811231,184.731108 120.559443,183.983637 120.053499,183.455592 C119.547554,182.927547 118.879803,182.663919 118.048665,182.663919 C117.53167,182.663919 117.045458,182.779158 116.590819,183.009635 C116.13539,183.240112 115.733634,183.546362 115.386339,183.927596 L115.386339,187.46605 C115.733634,187.848073 116.13539,188.153534 116.590819,188.384011 C117.045458,188.614488 117.53167,188.729727 118.048665,188.729727 C118.879803,188.729727 119.547554,188.466099 120.053499,187.937265 M115.386339,188.881273 L115.386339,189.319337 C115.386339,189.53245 115.309777,189.712411 115.15902,189.858433 C115.006684,190.004454 114.824354,190.077859 114.610453,190.077859 C114.397341,190.077859 114.217379,190.004454 114.072147,189.858433 C113.925336,189.712411 113.85351,189.53245 113.85351,189.319337 L113.85351,178.383519 C113.85351,178.171196 113.925336,177.988867 114.072147,177.836531 C114.217379,177.684984 114.397341,177.609211 114.610453,177.609211 C114.836194,177.609211 115.020891,177.682616 115.166913,177.827849 C115.312934,177.97387 115.386339,178.159357 115.386339,178.383519 L115.386339,182.512373 C116.205638,181.658345 117.166222,181.231331 118.267302,181.231331 C118.963469,181.231331 119.623328,181.408924 120.246879,181.762533 C120.870429,182.116142 121.376374,182.633136 121.763922,183.312728 C122.150682,183.992319 122.344851,184.787149 122.344851,185.696428 C122.344851,186.606497 122.150682,187.401327 121.763922,188.081707 C121.376374,188.76051 120.870429,189.277504 120.246879,189.631113 C119.623328,189.984721 118.963469,190.161526 118.267302,190.161526 C117.166222,190.161526 116.205638,189.734512 115.386339,188.881273" id="Fill-20" fill="#F59300" mask="url(#mask-8)"></path>
                        <path d="M128.910762,188.443683 C129.33225,188.229781 129.680334,187.892748 129.955012,187.432583 C130.230479,186.971629 130.368608,186.388333 130.368608,185.679537 C130.368608,184.98337 130.230479,184.405599 129.955012,183.944645 C129.680334,183.48448 129.33225,183.149815 128.910762,182.941439 C128.490062,182.734641 128.048841,182.630453 127.587887,182.630453 C127.116672,182.630453 126.669925,182.734641 126.248437,182.941439 C125.827737,183.149815 125.482022,183.48448 125.212079,183.944645 C124.942926,184.405599 124.807955,184.98337 124.807955,185.679537 C124.807955,186.388333 124.942926,186.971629 125.212079,187.432583 C125.482022,187.892748 125.827737,188.229781 126.248437,188.443683 C126.669925,188.656795 127.116672,188.763351 127.587887,188.763351 C128.048841,188.763351 128.490062,188.656795 128.910762,188.443683 M125.31311,189.606329 C124.661934,189.235355 124.159147,188.710468 123.805538,188.030876 C123.45193,187.350495 123.274336,186.57303 123.274336,185.696902 C123.274336,184.820773 123.45193,184.043308 123.805538,183.362927 C124.159147,182.683336 124.661934,182.158448 125.31311,181.787475 C125.965076,181.417291 126.723598,181.231015 127.587887,181.231015 C128.441125,181.231015 129.194122,181.417291 129.846088,181.787475 C130.497264,182.158448 131.002419,182.683336 131.362342,183.362927 C131.722265,184.043308 131.901438,184.820773 131.901438,185.696902 C131.901438,186.57303 131.722265,187.350495 131.362342,188.030876 C131.002419,188.710468 130.497264,189.235355 129.846088,189.606329 C129.194122,189.976513 128.441125,190.161999 127.587887,190.161999 C126.723598,190.161999 125.965076,189.976513 125.31311,189.606329" id="Fill-21" fill="#F59300" mask="url(#mask-8)"></path>
                        <path d="M132.663117,189.866562 C132.533671,189.726855 132.469737,189.538212 132.469737,189.302209 C132.469737,189.134087 132.524988,188.977016 132.637859,188.830994 L135.248879,185.747181 L132.637859,182.562336 C132.514727,182.406053 132.452372,182.242667 132.452372,182.073756 C132.452372,181.849593 132.524988,181.666475 132.671799,181.526768 C132.817031,181.386271 132.996993,181.316023 133.210105,181.316023 C133.480047,181.316023 133.682109,181.411529 133.81708,181.601752 L136.176313,184.517444 L138.51818,181.601752 C138.653151,181.411529 138.849688,181.316023 139.107791,181.316023 C139.331953,181.316023 139.518229,181.386271 139.66425,181.526768 C139.810272,181.666475 139.882888,181.837754 139.882888,182.040605 C139.882888,182.208727 139.826847,182.366588 139.714766,182.512609 L137.052441,185.64615 L139.680826,188.81363 C139.804747,188.948601 139.866313,189.111987 139.866313,189.302209 C139.866313,189.516111 139.798432,189.69844 139.66425,189.849987 C139.529279,190.001533 139.338268,190.078096 139.091215,190.078096 C138.844163,190.078096 138.646837,189.977065 138.500815,189.774214 L136.108432,186.909827 L133.851021,189.740274 C133.682109,189.965225 133.463472,190.078096 133.194319,190.078096 C132.969367,190.078096 132.791773,190.007848 132.663117,189.866562" id="Fill-22" fill="#F59300" mask="url(#mask-8)"></path>
                        <path d="M60.1881228,190.892501 C61.0618832,189.980064 61.4991581,188.687972 61.4991581,187.017803 C61.4991581,185.347634 61.0618832,184.055542 60.1881228,183.142317 C59.3143624,182.229091 58.1588201,181.772873 56.7207067,181.772873 C55.828003,181.772873 54.9873934,181.972567 54.2012458,182.370377 C53.4143089,182.768976 52.7197206,183.298599 52.1174811,183.958458 L52.1174811,190.077149 C52.7197206,190.737797 53.4143089,191.266631 54.2012458,191.66523 C54.9873934,192.06225 55.828003,192.261945 56.7207067,192.261945 C58.1588201,192.261945 59.3143624,191.805726 60.1881228,190.892501 M52.1174811,192.523994 L52.1174811,193.280937 C52.1174811,193.651121 51.9864565,193.962107 51.7244073,194.213895 C51.4623581,194.465684 51.1458468,194.592762 50.7772415,194.592762 C50.4078468,194.592762 50.0976501,194.465684 49.8450725,194.213895 C49.592495,193.962107 49.4662062,193.651121 49.4662062,193.280937 L49.4662062,174.372351 C49.4662062,174.003746 49.592495,173.688024 49.8450725,173.425185 C50.0976501,173.163136 50.4078468,173.032111 50.7772415,173.032111 C51.1655795,173.032111 51.4868265,173.1584 51.7386148,173.410978 C51.9911923,173.663555 52.1174811,173.984013 52.1174811,174.372351 L52.1174811,181.510824 C53.5350725,180.034824 55.1965591,179.296824 57.1003624,179.296824 C58.3040522,179.296824 59.445387,179.602285 60.5235773,180.214785 C61.6017677,180.826496 62.4747388,181.71999 63.1456479,182.894475 C63.8157677,184.06975 64.1512222,185.444719 64.1512222,187.017803 C64.1512222,188.590888 63.8157677,189.965068 63.1456479,191.140342 C62.4747388,192.315617 61.6017677,193.20911 60.5235773,193.820822 C59.445387,194.432533 58.3040522,194.737994 57.1003624,194.737994 C55.1965591,194.737994 53.5350725,194.000783 52.1174811,192.523994" id="Fill-23" fill="#F59300" mask="url(#mask-8)"></path>
                        <path d="M42.0718409,167.637292 C41.238335,167.637292 40.5611114,168.315305 40.5611114,169.148811 L40.5611114,198.622242 C40.5611114,199.455748 41.238335,200.13376 42.0260612,200.13376 L71.4987029,200.13376 C72.3779884,200.13376 73.0567906,199.455748 73.0567906,198.622242 L73.0567906,169.148811 C73.0567906,168.315305 72.3779884,167.637292 71.5452719,167.637292 L42.0718409,167.637292 Z M71.5452719,201.64449 L42.0718409,201.64449 C40.4056184,201.64449 39.0495927,200.288464 39.0495927,198.622242 L39.0495927,169.148811 C39.0495927,167.482588 40.4056184,166.125773 42.0718409,166.125773 L71.5452719,166.125773 C73.2114943,166.125773 74.5683093,167.482588 74.5683093,169.148811 L74.5683093,198.622242 C74.5683093,200.288464 73.2114943,201.64449 71.5452719,201.64449 L71.5452719,201.64449 Z" id="Fill-24" fill="#F59300" mask="url(#mask-8)"></path>
                        <path d="M275.981217,190.328306 C276.487161,189.800261 276.739739,189.053578 276.739739,188.087469 C276.739739,187.12215 276.487161,186.373889 275.981217,185.845844 C275.475273,185.317799 274.807521,185.054171 273.976383,185.054171 C273.459388,185.054171 272.973176,185.169409 272.518537,185.399886 C272.063897,185.630363 271.661352,185.936614 271.314058,186.317848 L271.314058,189.856301 C271.661352,190.238325 272.063897,190.543786 272.518537,190.774263 C272.973176,191.00474 273.459388,191.119978 273.976383,191.119978 C274.807521,191.119978 275.475273,190.856351 275.981217,190.328306 M271.314058,191.271525 L271.314058,191.709589 C271.314058,191.923491 271.237495,192.103452 271.086738,192.249474 C270.934402,192.394706 270.752073,192.468111 270.538171,192.468111 C270.325059,192.468111 270.145097,192.394706 269.999865,192.249474 C269.853055,192.103452 269.781228,191.923491 269.781228,191.709589 L269.781228,180.77456 C269.781228,180.561448 269.853055,180.379119 269.999865,180.226783 C270.145097,180.075236 270.325059,179.999463 270.538171,179.999463 C270.763912,179.999463 270.94861,180.072868 271.09542,180.2181 C271.240652,180.364911 271.314058,180.549608 271.314058,180.77456 L271.314058,184.902624 C272.133356,184.049386 273.09394,183.622372 274.19502,183.622372 C274.891187,183.622372 275.551046,183.799176 276.174597,184.153574 C276.798148,184.506393 277.304092,185.023388 277.691641,185.702979 C278.0784,186.382571 278.272569,187.177401 278.272569,188.087469 C278.272569,188.996748 278.0784,189.791578 277.691641,190.471959 C277.304092,191.150761 276.798148,191.667756 276.174597,192.022154 C275.551046,192.375762 274.891187,192.551777 274.19502,192.551777 C273.09394,192.551777 272.133356,192.125553 271.314058,191.271525" id="Fill-25" fill="#FFFFFF" mask="url(#mask-8)"></path>
                        <path d="M279.908482,192.249158 C279.762461,192.103136 279.689845,191.923175 279.689845,191.709273 L279.689845,180.775034 C279.689845,180.561132 279.762461,180.378803 279.908482,180.227256 C280.054504,180.07492 280.234465,179.999147 280.448367,179.999147 C280.672529,179.999147 280.858016,180.072553 281.004037,180.218574 C281.149269,180.364595 281.222675,180.550082 281.222675,180.775034 L281.222675,191.709273 C281.222675,191.923175 281.146901,192.103136 280.995355,192.249158 C280.843808,192.395179 280.66069,192.467795 280.448367,192.467795 C280.234465,192.467795 280.054504,192.395179 279.908482,192.249158" id="Fill-26" fill="#FFFFFF" mask="url(#mask-8)"></path>
                        <path d="M288.276376,190.833934 C288.697076,190.620033 289.045948,190.283789 289.320626,189.822835 C289.596094,189.36267 289.733433,188.778585 289.733433,188.070578 C289.733433,187.373622 289.596094,186.795851 289.320626,186.334897 C289.045948,185.874732 288.697076,185.540067 288.276376,185.33169 C287.854887,185.124893 287.413666,185.020704 286.953501,185.020704 C286.481497,185.020704 286.03475,185.124893 285.614051,185.33169 C285.192562,185.540067 284.846847,185.874732 284.576904,186.334897 C284.308541,186.795851 284.17357,187.373622 284.17357,188.070578 C284.17357,188.778585 284.308541,189.36267 284.576904,189.822835 C284.846847,190.283789 285.192562,190.620033 285.614051,190.833934 C286.03475,191.047836 286.481497,191.153603 286.953501,191.153603 C287.413666,191.153603 287.854887,191.047836 288.276376,190.833934 M284.678725,191.99658 C284.026759,191.625607 283.523972,191.100719 283.170363,190.421128 C282.816755,189.740747 282.639161,188.963282 282.639161,188.087943 C282.639161,187.211025 282.816755,186.43356 283.170363,185.753179 C283.523972,185.074377 284.026759,184.5487 284.678725,184.177727 C285.33069,183.807543 286.088423,183.622056 286.953501,183.622056 C287.80674,183.622056 288.558947,183.807543 289.211702,184.177727 C289.862879,184.5487 290.367244,185.074377 290.727167,185.753179 C291.08709,186.43356 291.267052,187.211025 291.267052,188.087943 C291.267052,188.963282 291.08709,189.740747 290.727167,190.421128 C290.367244,191.100719 289.862879,191.625607 289.211702,191.99658 C288.558947,192.366764 287.80674,192.552251 286.953501,192.552251 C286.088423,192.552251 285.33069,192.366764 284.678725,191.99658" id="Fill-27" fill="#FFFFFF" mask="url(#mask-8)"></path>
                        <path d="M294.454344,192.013235 C293.769227,191.654101 293.22145,191.137106 292.8118,190.46304 C292.400573,189.788974 292.196932,188.997301 292.196932,188.087233 C292.196932,187.177164 292.400573,186.385491 292.8118,185.711425 C293.22145,185.037359 293.769227,184.521153 294.454344,184.16123 C295.13946,183.802097 295.886143,183.622135 296.69518,183.622135 C297.290316,183.622135 297.804153,183.697908 298.236692,183.849455 C298.669231,184.001791 299.070988,184.19517 299.441172,184.431173 C299.666913,184.577194 299.778205,184.773731 299.778205,185.020783 C299.778205,185.188905 299.713482,185.343609 299.584825,185.484105 C299.455379,185.624601 299.30699,185.69406 299.138868,185.69406 C299.014158,185.69406 298.891026,185.66091 298.767895,185.593029 C298.396921,185.402807 298.079621,185.264679 297.815993,185.181012 C297.551576,185.095767 297.223225,185.054723 296.830151,185.054723 C295.864042,185.054723 295.10552,185.331769 294.555375,185.888229 C294.005229,186.4439 293.729762,187.177164 293.729762,188.087233 C293.729762,188.997301 294.005229,189.729776 294.555375,190.286236 C295.10552,190.841906 295.864042,191.119742 296.830151,191.119742 C297.223225,191.119742 297.551576,191.077119 297.815993,190.993453 C298.079621,190.909787 298.396921,190.772447 298.767895,190.581436 C298.891026,190.513556 299.014158,190.479615 299.138868,190.479615 C299.30699,190.479615 299.455379,190.549864 299.584825,190.69036 C299.713482,190.830856 299.778205,190.98477 299.778205,191.153682 C299.778205,191.401523 299.666913,191.59806 299.441172,191.743292 C299.070988,191.979295 298.669231,192.172674 298.236692,192.32501 C297.804153,192.476557 297.290316,192.55233 296.69518,192.55233 C295.886143,192.55233 295.13946,192.372368 294.454344,192.013235" id="Fill-28" fill="#FFFFFF" mask="url(#mask-8)"></path>
                        <path d="M307.175727,190.328306 C307.681672,189.800261 307.93346,189.053578 307.93346,188.087469 C307.93346,187.12215 307.681672,186.373889 307.175727,185.845844 C306.669783,185.317799 306.002031,185.054171 305.170893,185.054171 C304.653898,185.054171 304.167687,185.169409 303.713047,185.399886 C303.257618,185.630363 302.855862,185.936614 302.508568,186.317848 L302.508568,189.856301 C302.855862,190.238325 303.257618,190.543786 303.713047,190.774263 C304.167687,191.00474 304.653898,191.119978 305.170893,191.119978 C306.002031,191.119978 306.669783,190.856351 307.175727,190.328306 M302.508568,191.271525 L302.508568,191.709589 C302.508568,191.923491 302.432005,192.103452 302.281248,192.249474 C302.128912,192.394706 301.946583,192.468111 301.732681,192.468111 C301.519569,192.468111 301.339607,192.394706 301.194375,192.249474 C301.047565,192.103452 300.975738,191.923491 300.975738,191.709589 L300.975738,180.77456 C300.975738,180.561448 301.047565,180.379119 301.194375,180.226783 C301.339607,180.075236 301.519569,179.999463 301.732681,179.999463 C301.958422,179.999463 302.14312,180.072868 302.289141,180.2181 C302.435163,180.364911 302.508568,180.549608 302.508568,180.77456 L302.508568,184.902624 C303.327866,184.049386 304.28845,183.622372 305.38953,183.622372 C306.085697,183.622372 306.745556,183.799176 307.369107,184.153574 C307.992658,184.506393 308.498602,185.023388 308.886151,185.702979 C309.27291,186.382571 309.467079,187.177401 309.467079,188.087469 C309.467079,188.996748 309.27291,189.791578 308.886151,190.471959 C308.498602,191.150761 307.992658,191.667756 307.369107,192.022154 C306.745556,192.375762 306.085697,192.551777 305.38953,192.551777 C304.28845,192.551777 303.327866,192.125553 302.508568,191.271525" id="Fill-29" fill="#FFFFFF" mask="url(#mask-8)"></path>
                        <path d="M316.033069,190.833934 C316.454558,190.620033 316.802641,190.283789 317.077319,189.822835 C317.352787,189.36267 317.490915,188.778585 317.490915,188.070578 C317.490915,187.373622 317.352787,186.795851 317.077319,186.334897 C316.802641,185.874732 316.454558,185.540067 316.033069,185.33169 C315.61237,185.124893 315.171148,185.020704 314.710194,185.020704 C314.238979,185.020704 313.792233,185.124893 313.370744,185.33169 C312.950044,185.540067 312.604329,185.874732 312.334387,186.334897 C312.065234,186.795851 311.930263,187.373622 311.930263,188.070578 C311.930263,188.778585 312.065234,189.36267 312.334387,189.822835 C312.604329,190.283789 312.950044,190.620033 313.370744,190.833934 C313.792233,191.047836 314.238979,191.153603 314.710194,191.153603 C315.171148,191.153603 315.61237,191.047836 316.033069,190.833934 M312.435418,191.99658 C311.784241,191.625607 311.281454,191.100719 310.927846,190.421128 C310.574237,189.740747 310.396643,188.963282 310.396643,188.087943 C310.396643,187.211025 310.574237,186.43356 310.927846,185.753179 C311.281454,185.074377 311.784241,184.5487 312.435418,184.177727 C313.087384,183.807543 313.845905,183.622056 314.710194,183.622056 C315.563433,183.622056 316.31643,183.807543 316.968395,184.177727 C317.619572,184.5487 318.124727,185.074377 318.48465,185.753179 C318.844573,186.43356 319.023745,187.211025 319.023745,188.087943 C319.023745,188.963282 318.844573,189.740747 318.48465,190.421128 C318.124727,191.100719 317.619572,191.625607 316.968395,191.99658 C316.31643,192.366764 315.563433,192.552251 314.710194,192.552251 C313.845905,192.552251 313.087384,192.366764 312.435418,191.99658" id="Fill-30" fill="#FFFFFF" mask="url(#mask-8)"></path>
                        <path d="M319.785345,192.257603 C319.655899,192.117107 319.591966,191.928463 319.591966,191.692461 C319.591966,191.524339 319.647217,191.367268 319.760087,191.222036 L322.371108,188.137432 L319.760087,184.953377 C319.636956,184.796305 319.574601,184.633708 319.574601,184.464797 C319.574601,184.239845 319.647217,184.057516 319.794028,183.917019 C319.93926,183.776523 320.119221,183.706275 320.332333,183.706275 C320.602276,183.706275 320.804338,183.801781 320.939309,183.992793 L323.298541,186.907695 L325.640408,183.992793 C325.775379,183.801781 325.971916,183.706275 326.230019,183.706275 C326.454182,183.706275 326.640458,183.776523 326.786479,183.917019 C326.9325,184.057516 327.005116,184.228795 327.005116,184.430857 C327.005116,184.599768 326.949076,184.75684 326.836994,184.902861 L324.174669,188.036401 L326.803054,191.203881 C326.926975,191.339642 326.988541,191.502239 326.988541,191.692461 C326.988541,191.907152 326.920661,192.088692 326.786479,192.241028 C326.651508,192.392575 326.460496,192.468348 326.213444,192.468348 C325.966391,192.468348 325.769065,192.367317 325.623044,192.164465 L323.230661,189.300078 L320.973249,192.131315 C320.804338,192.355477 320.5857,192.468348 320.316547,192.468348 C320.091596,192.468348 319.914002,192.3981 319.785345,192.257603" id="Fill-31" fill="#FFFFFF" mask="url(#mask-8)"></path>
                        <path d="M247.310351,193.282753 C248.184112,192.371105 248.621387,191.079013 248.621387,189.408055 C248.621387,187.737886 248.184112,186.446584 247.310351,185.533358 C246.436591,184.619343 245.281049,184.163125 243.842935,184.163125 C242.950231,184.163125 242.109622,184.362819 241.323474,184.760628 C240.536537,185.159227 239.841949,185.688851 239.23971,186.34871 L239.23971,192.467401 C239.841949,193.128049 240.536537,193.657672 241.323474,194.055482 C242.109622,194.453292 242.950231,194.652196 243.842935,194.652196 C245.281049,194.652196 246.436591,194.195978 247.310351,193.282753 M239.23971,194.914246 L239.23971,195.671978 C239.23971,196.041373 239.108685,196.353148 238.846636,196.604147 C238.584587,196.856725 238.268075,196.983013 237.89947,196.983013 C237.530075,196.983013 237.219879,196.856725 236.967301,196.604147 C236.714723,196.353148 236.588435,196.041373 236.588435,195.671978 L236.588435,176.762603 C236.588435,176.394787 236.714723,176.078276 236.967301,175.816226 C237.219879,175.553388 237.530075,175.423153 237.89947,175.423153 C238.287808,175.423153 238.609055,175.548652 238.861633,175.802019 C239.113421,176.054596 239.23971,176.374265 239.23971,176.762603 L239.23971,183.901076 C240.657301,182.425076 242.318788,181.687076 244.222591,181.687076 C245.426281,181.687076 246.568405,181.992536 247.645806,182.605037 C248.723996,183.216748 249.596967,184.110241 250.267876,185.284727 C250.937996,186.460791 251.273451,187.834971 251.273451,189.408055 C251.273451,190.981929 250.937996,192.355319 250.267876,193.530594 C249.596967,194.706658 248.723996,195.600151 247.645806,196.211073 C246.568405,196.822785 245.426281,197.129035 244.222591,197.129035 C242.318788,197.129035 240.657301,196.391035 239.23971,194.914246" id="Fill-32" fill="#FFFFFF" mask="url(#mask-8)"></path>
                        <path d="M229.194148,170.028333 C228.360642,170.028333 227.683419,170.705557 227.683419,171.539062 L227.683419,201.012493 C227.683419,201.845999 228.360642,202.524012 229.148369,202.524012 L258.62101,202.524012 C259.500296,202.524012 260.179098,201.845999 260.179098,201.012493 L260.179098,171.539062 C260.179098,170.705557 259.500296,170.028333 258.667579,170.028333 L229.194148,170.028333 Z M258.667579,204.035531 L229.194148,204.035531 C227.527926,204.035531 226.1719,202.678716 226.1719,201.012493 L226.1719,171.539062 C226.1719,169.87284 227.527926,168.516814 229.194148,168.516814 L258.667579,168.516814 C260.333802,168.516814 261.690617,169.87284 261.690617,171.539062 L261.690617,201.012493 C261.690617,202.678716 260.333802,204.035531 258.667579,204.035531 L258.667579,204.035531 Z" id="Fill-33" fill="#FFFFFF" mask="url(#mask-8)"></path>
                    </g>
                    <text id="#333333" font-family="LucidaGrande, Lucida Grande" font-size="9.47165775" font-weight="normal" fill="#FCFCFC">
                        <tspan x="521.703092" y="218.552367">#333333</tspan>
                    </text>
                    <g id="Group-54" transform="translate(25.652406, 153.110926)">
                        <path d="M472.871172,189.64611 C473.377116,189.118065 473.629693,188.371382 473.629693,187.405273 C473.629693,186.439953 473.377116,185.692482 472.871172,185.163647 C472.365227,184.635603 471.697475,184.371975 470.866337,184.371975 C470.349343,184.371975 469.863131,184.488003 469.408491,184.71769 C468.953852,184.948167 468.552096,185.254418 468.204012,185.636441 L468.204012,189.174105 C468.552096,189.556918 468.953852,189.862379 469.408491,190.092067 C469.863131,190.322544 470.349343,190.437782 470.866337,190.437782 C471.697475,190.437782 472.365227,190.174154 472.871172,189.64611 Z M468.204012,190.589329 L468.204012,191.027393 C468.204012,191.241295 468.128239,191.421256 467.976692,191.567277 C467.824357,191.71251 467.642027,191.785915 467.428915,191.785915 C467.215803,191.785915 467.035052,191.71251 466.88982,191.567277 C466.743009,191.421256 466.671182,191.241295 466.671182,191.027393 L466.671182,180.092364 C466.671182,179.879252 466.743009,179.696922 466.88982,179.544587 C467.035052,179.39304 467.215803,179.317267 467.428915,179.317267 C467.653867,179.317267 467.838564,179.390672 467.985375,179.535904 C468.130607,179.682715 468.204012,179.867412 468.204012,180.092364 L468.204012,184.220428 C469.0241,183.36719 469.984684,182.940176 471.084975,182.940176 C471.781142,182.940176 472.44179,183.11698 473.064551,183.471378 C473.688102,183.824987 474.194046,184.341192 474.581595,185.021573 C474.969144,185.701164 475.162523,186.495205 475.162523,187.405273 C475.162523,188.314552 474.969144,189.109382 474.581595,189.789763 C474.194046,190.469354 473.688102,190.98556 473.064551,191.339958 C472.44179,191.693566 471.781142,191.869581 471.084975,191.869581 C469.984684,191.869581 469.0241,191.443357 468.204012,190.589329 Z" id="Fill-35" fill="#FFFFFF"></path>
                        <path d="M476.799226,191.566962 C476.652415,191.42094 476.579799,191.240979 476.579799,191.027077 L476.579799,180.092838 C476.579799,179.878936 476.652415,179.696607 476.799226,179.54506 C476.945247,179.392724 477.124419,179.316951 477.338321,179.316951 C477.562484,179.316951 477.74797,179.390356 477.893992,179.536378 C478.040013,179.682399 478.113418,179.867886 478.113418,180.092838 L478.113418,191.027077 C478.113418,191.240979 478.036856,191.42094 477.885309,191.566962 C477.734552,191.712983 477.551433,191.785599 477.338321,191.785599 C477.124419,191.785599 476.945247,191.712983 476.799226,191.566962" id="Fill-37" fill="#FFFFFF"></path>
                        <path d="M485.16633,190.151738 C485.58703,189.937837 485.935903,189.601593 486.210581,189.140639 C486.486048,188.680474 486.624176,188.096388 486.624176,187.388382 C486.624176,186.691426 486.486048,186.113655 486.210581,185.652701 C485.935903,185.192536 485.58703,184.85866 485.16633,184.650284 C484.744842,184.442696 484.30362,184.338508 483.843456,184.338508 C483.372241,184.338508 482.925494,184.442696 482.504005,184.650284 C482.083306,184.85866 481.736801,185.192536 481.467648,185.652701 C481.198495,186.113655 481.063524,186.691426 481.063524,187.388382 C481.063524,188.096388 481.198495,188.680474 481.467648,189.140639 C481.736801,189.601593 482.083306,189.937837 482.504005,190.151738 C482.925494,190.36564 483.372241,190.471407 483.843456,190.471407 C484.30362,190.471407 484.744842,190.36564 485.16633,190.151738 M481.568679,191.314384 C480.917503,190.943411 480.413926,190.418523 480.060318,189.738932 C479.706709,189.05934 479.529905,188.281086 479.529905,187.405747 C479.529905,186.528829 479.706709,185.751364 480.060318,185.070983 C480.413926,184.392181 480.917503,183.866504 481.568679,183.495531 C482.220645,183.125347 482.978378,182.93986 483.843456,182.93986 C484.696694,182.93986 485.449691,183.125347 486.101657,183.495531 C486.752833,183.866504 487.257988,184.392181 487.617122,185.070983 C487.977834,185.751364 488.157006,186.528829 488.157006,187.405747 C488.157006,188.281086 487.977834,189.05934 487.617122,189.738932 C487.257988,190.418523 486.752833,190.943411 486.101657,191.314384 C485.449691,191.684568 484.696694,191.870055 483.843456,191.870055 C482.978378,191.870055 482.220645,191.684568 481.568679,191.314384" id="Fill-39" fill="#FFFFFF"></path>
                        <path d="M491.344298,191.331117 C490.659182,190.971984 490.111404,190.454989 489.701755,189.780923 C489.291316,189.106856 489.086886,188.315184 489.086886,187.405115 C489.086886,186.495047 489.291316,185.703374 489.701755,185.030097 C490.111404,184.355241 490.659182,183.839036 491.344298,183.479113 C492.029415,183.119979 492.776097,182.940018 493.585135,182.940018 C494.18106,182.940018 494.694108,183.015791 495.127436,183.167338 C495.559186,183.319674 495.961731,183.513053 496.331915,183.749055 C496.556867,183.895077 496.668948,184.091614 496.668948,184.338666 C496.668948,184.506788 496.604225,184.661492 496.474779,184.801988 C496.346123,184.942484 496.196944,185.012732 496.028822,185.012732 C495.904901,185.012732 495.780981,184.978792 495.657849,184.911701 C495.286876,184.72069 494.970364,184.582561 494.705947,184.498895 C494.44232,184.414439 494.113179,184.372606 493.720106,184.372606 C492.753997,184.372606 491.995475,184.650441 491.445329,185.206112 C490.895184,185.761783 490.619716,186.495047 490.619716,187.405115 C490.619716,188.315184 490.895184,189.047659 491.445329,189.604119 C491.995475,190.160578 492.753997,190.437624 493.720106,190.437624 C494.113179,190.437624 494.44232,190.395791 494.705947,190.311336 C494.970364,190.227669 495.286876,190.09033 495.657849,189.899319 C495.780981,189.831438 495.904901,189.798287 496.028822,189.798287 C496.196944,189.798287 496.346123,189.867746 496.474779,190.008243 C496.604225,190.148739 496.668948,190.302653 496.668948,190.471564 C496.668948,190.719406 496.556867,190.915943 496.331915,191.061175 C495.961731,191.297177 495.559186,191.491346 495.127436,191.642893 C494.694108,191.794439 494.18106,191.870213 493.585135,191.870213 C492.776097,191.870213 492.029415,191.69104 491.344298,191.331117" id="Fill-41" fill="#FFFFFF"></path>
                        <path d="M504.065682,189.64611 C504.571626,189.118065 504.824204,188.371382 504.824204,187.405273 C504.824204,186.439953 504.571626,185.692482 504.065682,185.163647 C503.559737,184.635603 502.891985,184.371975 502.060847,184.371975 C501.543853,184.371975 501.057641,184.488003 500.603001,184.71769 C500.148362,184.948167 499.746606,185.254418 499.398522,185.636441 L499.398522,189.174105 C499.746606,189.556918 500.148362,189.862379 500.603001,190.092067 C501.057641,190.322544 501.543853,190.437782 502.060847,190.437782 C502.891985,190.437782 503.559737,190.174154 504.065682,189.64611 M499.398522,190.589329 L499.398522,191.027393 C499.398522,191.241295 499.322749,191.421256 499.171203,191.567277 C499.018867,191.71251 498.836537,191.785915 498.622636,191.785915 C498.409523,191.785915 498.229562,191.71251 498.08433,191.567277 C497.937519,191.421256 497.865692,191.241295 497.865692,191.027393 L497.865692,180.092364 C497.865692,179.879252 497.937519,179.696922 498.08433,179.544587 C498.229562,179.39304 498.409523,179.317267 498.622636,179.317267 C498.848377,179.317267 499.033074,179.390672 499.179885,179.535904 C499.325117,179.682715 499.398522,179.867412 499.398522,180.092364 L499.398522,184.220428 C500.21861,183.36719 501.179194,182.940176 502.279485,182.940176 C502.975652,182.940176 503.6363,183.11698 504.259061,183.471378 C504.882612,183.824987 505.388557,184.341192 505.776105,185.021573 C506.163654,185.701164 506.357034,186.495205 506.357034,187.405273 C506.357034,188.314552 506.163654,189.109382 505.776105,189.789763 C505.388557,190.469354 504.882612,190.98556 504.259061,191.339958 C503.6363,191.693566 502.975652,191.869581 502.279485,191.869581 C501.179194,191.869581 500.21861,191.443357 499.398522,190.589329" id="Fill-43" fill="#FFFFFF"></path>
                        <path d="M512.923813,190.151738 C513.344512,189.937837 513.693385,189.601593 513.968063,189.140639 C514.24353,188.680474 514.38087,188.096388 514.38087,187.388382 C514.38087,186.691426 514.24353,186.113655 513.968063,185.652701 C513.693385,185.192536 513.344512,184.85866 512.923813,184.650284 C512.502324,184.442696 512.061103,184.338508 511.600938,184.338508 C511.128934,184.338508 510.682187,184.442696 510.261488,184.650284 C509.839999,184.85866 509.494283,185.192536 509.224341,185.652701 C508.955188,186.113655 508.821006,186.691426 508.821006,187.388382 C508.821006,188.096388 508.955188,188.680474 509.224341,189.140639 C509.494283,189.601593 509.839999,189.937837 510.261488,190.151738 C510.682187,190.36564 511.128934,190.471407 511.600938,190.471407 C512.061103,190.471407 512.502324,190.36564 512.923813,190.151738 M509.326161,191.314384 C508.674196,190.943411 508.171409,190.418523 507.8178,189.738932 C507.464191,189.05934 507.286598,188.281086 507.286598,187.405747 C507.286598,186.528829 507.464191,185.751364 507.8178,185.070983 C508.171409,184.392181 508.674196,183.866504 509.326161,183.495531 C509.978127,183.125347 510.73586,182.93986 511.600938,182.93986 C512.454176,182.93986 513.206384,183.125347 513.859139,183.495531 C514.510316,183.866504 515.014681,184.392181 515.374604,185.070983 C515.734527,185.751364 515.914489,186.528829 515.914489,187.405747 C515.914489,188.281086 515.734527,189.05934 515.374604,189.738932 C515.014681,190.418523 514.510316,190.943411 513.859139,191.314384 C513.206384,191.684568 512.454176,191.870055 511.600938,191.870055 C510.73586,191.870055 509.978127,191.684568 509.326161,191.314384" id="Fill-45" fill="#FFFFFF"></path>
                        <path d="M516.6753,191.575486 C516.545854,191.43499 516.48192,191.247135 516.48192,191.011133 C516.48192,190.842222 516.537961,190.68515 516.650042,190.539918 L519.261852,187.455315 L516.650042,184.271259 C516.52691,184.114188 516.464555,183.951591 516.464555,183.78268 C516.464555,183.557728 516.537961,183.375399 516.683982,183.234902 C516.829214,183.095195 517.009965,183.024158 517.223077,183.024158 C517.49223,183.024158 517.695081,183.119664 517.830053,183.310676 L520.188495,186.226367 L522.530363,183.310676 C522.665334,183.119664 522.861871,183.024158 523.120763,183.024158 C523.344925,183.024158 523.530412,183.095195 523.676433,183.234902 C523.822455,183.375399 523.895071,183.546678 523.895071,183.74874 C523.895071,183.917651 523.83903,184.074723 523.726949,184.220744 L521.065413,187.354284 L523.693798,190.522554 C523.81693,190.657525 523.878495,190.820121 523.878495,191.011133 C523.878495,191.225035 523.811404,191.406575 523.676433,191.558911 C523.541462,191.710457 523.35045,191.786231 523.104187,191.786231 C522.856346,191.786231 522.659809,191.6852 522.513787,191.483138 L520.120615,188.617961 L517.863203,191.449197 C517.695081,191.674149 517.476444,191.786231 517.206502,191.786231 C516.98155,191.786231 516.804746,191.715982 516.6753,191.575486" id="Fill-47" fill="#FFFFFF"></path>
                        <path d="M444.201095,192.600635 C445.074855,191.688988 445.51213,190.396896 445.51213,188.725938 C445.51213,187.056558 445.074855,185.764466 444.201095,184.851241 C443.327335,183.937226 442.171003,183.481797 440.733679,183.481797 C439.840186,183.481797 438.999576,183.680702 438.213429,184.078511 C437.426492,184.47711 436.731904,185.006734 436.129664,185.667382 L436.129664,191.785283 C436.731904,192.445932 437.426492,192.975555 438.213429,193.373365 C438.999576,193.771174 439.840186,193.970079 440.733679,193.970079 C442.171003,193.970079 443.327335,193.513861 444.201095,192.600635 M436.129664,194.232128 L436.129664,194.989861 C436.129664,195.359256 435.998639,195.671031 435.73659,195.92203 C435.474541,196.174607 435.158819,196.300896 434.789424,196.300896 C434.420819,196.300896 434.109833,196.174607 433.858045,195.92203 C433.604678,195.671031 433.479178,195.359256 433.479178,194.989861 L433.479178,176.080486 C433.479178,175.71267 433.604678,175.396158 433.858045,175.134109 C434.109833,174.87206 434.420819,174.741035 434.789424,174.741035 C435.177762,174.741035 435.499009,174.866535 435.751587,175.119902 C436.003375,175.372479 436.129664,175.692937 436.129664,176.080486 L436.129664,183.218958 C437.547255,181.742958 439.208742,181.004958 441.112545,181.004958 C442.316235,181.004958 443.458359,181.310419 444.53576,181.92292 C445.613951,182.534631 446.487711,183.428124 447.157831,184.603399 C447.82874,185.778674 448.163405,187.152853 448.163405,188.725938 C448.163405,190.299812 447.82874,191.673991 447.157831,192.848477 C446.487711,194.024541 445.613951,194.918034 444.53576,195.528956 C443.458359,196.140667 442.316235,196.446918 441.112545,196.446918 C439.208742,196.446918 437.547255,195.708918 436.129664,194.232128" id="Fill-49" fill="#FFFFFF"></path>
                        <path d="M426.084813,169.346216 C425.251307,169.346216 424.573294,170.023439 424.573294,170.857735 L424.573294,200.330376 C424.573294,201.164671 425.251307,201.841895 426.038244,201.841895 L455.511675,201.841895 C456.390961,201.841895 457.068973,201.164671 457.068973,200.330376 L457.068973,170.857735 C457.068973,170.023439 456.390961,169.346216 455.557455,169.346216 L426.084813,169.346216 Z M455.557455,203.353414 L426.084813,203.353414 C424.417801,203.353414 423.061776,201.997388 423.061776,200.330376 L423.061776,170.857735 C423.061776,169.190723 424.417801,167.834697 426.084813,167.834697 L455.557455,167.834697 C457.224467,167.834697 458.580492,169.190723 458.580492,170.857735 L458.580492,200.330376 C458.580492,201.997388 457.224467,203.353414 455.557455,203.353414 L455.557455,203.353414 Z" id="Fill-51" fill="#FFFFFF"></path>
                        <mask id="mask-10" fill="white">
                            <use xlink:href="#path-9"></use>
                        </mask>
                        <g id="Clip-53"></g>
                    </g>
                    <text id="COLOR-PALETTE-2" font-family="Lato-SemiBold, Lato" font-size="9.47165775" font-weight="500" letter-spacing="0.996497317" fill="#4A4A4A">
                        <tspan x="25.7553318" y="159.354802">COLOR PALETTE 2</tspan>
                    </text>
                    <text id="LOGO-2" font-family="Lato-SemiBold, Lato" font-size="9.47165775" font-weight="500" fill="#4A4A4A">
                        <tspan x="28.0538663" y="298.751363">LOGO 2</tspan>
                    </text>
                    <g id="Page-1" transform="translate(26.465684, 7.893048)">
                        <g id="Group-2" transform="translate(0.000000, 2.494203)">
                            <mask id="mask-12" fill="white">
                                <use xlink:href="#path-11"></use>
                            </mask>
                            <g id="Clip-1"></g>
                            <text id="HEADER-2" mask="url(#mask-12)" font-family="Lato-SemiBold, Lato" font-size="9.47165775" font-weight="500" letter-spacing="0.996497317" fill="#4A4A4A">
                                <tspan x="0.000394652406" y="7.03519825">HEADER 2</tspan>
                            </text>
                            <text id="H1-Alice-Regular" mask="url(#mask-12)" font-family="Alice-Regular, Alice" font-size="37.886631" font-weight="normal" fill="#333333">
                                <tspan x="0.000789304813" y="45.4531874">H1 Alice Regular</tspan>
                            </text>
                            <text id="H3-" mask="url(#mask-12)" font-family="Alice-Regular, Alice" font-size="28.4149733" font-weight="normal" fill="#333333">
                                <tspan x="0.000789304813" y="78.2577847">H3 </tspan>
                            </text>
                        </g>
                        <text id="Alice-Regular" font-family="Alice-Regular, Alice" font-size="28.4149733" font-weight="normal" letter-spacing="-1.136599" fill="#333333">
                            <tspan x="42.2536178" y="80.7519879">A</tspan>
                            <tspan x="58.5353974" y="80.7519879">l</tspan>
                            <tspan x="66.6620797" y="80.7519879" letter-spacing="-0.198904813">i</tspan>
                            <tspan x="74.6751022" y="80.7519879">ce </tspan>
                            <tspan x="108.77307" y="80.7519879" letter-spacing="-0.653544392">R</tspan>
                            <tspan x="126.532428" y="80.7519879">egul</tspan>
                            <tspan x="180.719782" y="80.7519879" letter-spacing="-0.142074875">a</tspan>
                            <tspan x="194.671534" y="80.7519879">r</tspan>
                        </text>
                        <text id="H3-Alice-Regular" font-family="Alice-Regular, Alice" font-size="22.1005348" font-weight="normal" fill="#333333">
                            <tspan x="1.76780599" y="107.724976">H3 </tspan>
                            <tspan x="34.6313012" y="107.724976" letter-spacing="-0.884021418">A</tspan>
                            <tspan x="47.2949076" y="107.724976">l</tspan>
                            <tspan x="53.6156605" y="107.724976" letter-spacing="-0.154703745">i</tspan>
                            <tspan x="59.8480113" y="107.724976">ce </tspan>
                            <tspan x="86.368653" y="107.724976" letter-spacing="-0.510522315">R</tspan>
                            <tspan x="100.179277" y="107.724976">egul</tspan>
                            <tspan x="142.324997" y="107.724976" letter-spacing="-0.110502677">a</tspan>
                            <tspan x="153.17636" y="107.724976">r</tspan>
                        </text>
                        <g id="Group-4" transform="translate(330.718717, 2.494203)">
                            <mask id="mask-14" fill="white">
                                <use xlink:href="#path-13"></use>
                            </mask>
                            <g id="Clip-3"></g>
                        </g>
                        <text id="PARAGRAPH-2-(GAFATA)" font-family="Lato-SemiBold, Lato" font-size="9.47165775" font-weight="500" letter-spacing="0.996497317" fill="#4A4A4A">
                            <tspan x="331.331927" y="9.64780536">PARAGRAPH 2 (GAFATA)</tspan>
                        </text>
                        <text id="Lorem-ipsum-dolor-sit-amet,-consectetuer-" font-family="Gafata-Regular, Gafata" font-size="12.628877" font-weight="700" fill="#000000">
                            <tspan x="331.332243" y="38.6125029">Lorem ipsum dolor sit amet, consectetuer </tspan>
                        </text>
                        <text id="adipiscing-elit,-sed-diam-nonummy-nibh-" font-family="Gafata-Regular, Gafata" font-size="12.628877" font-weight="700" fill="#000000">
                            <tspan x="331.332243" y="53.7671553">adipiscing elit, sed diam nonummy nibh </tspan>
                        </text>
                        <text id="euismod-tincidunt-ut-laoreet-dolore-magna-" font-family="Gafata-Regular, Gafata" font-size="12.628877" font-weight="700" fill="#000000">
                            <tspan x="331.332243" y="68.9218077">euismod tincidunt ut laoreet dolore magna </tspan>
                        </text>
                        <text id="aliquam-erat-volutpat.-Lorem-ipsum-dolor-sit-" font-family="Gafata-Regular, Gafata" font-size="12.628877" font-weight="700" fill="#000000">
                            <tspan x="331.332243" y="84.0764601">aliquam erat volutpat. Lorem ipsum dolor sit </tspan>
                        </text>
                        <text id="amet,-consectetuer-a" font-family="Gafata-Regular, Gafata" font-size="12.628877" font-weight="700" fill="#000000">
                            <tspan x="331.332243" y="99.2311125">amet, consectetuer adipiscing elit, sed diam </tspan>
                        </text>
                        <text id="nonummy-nibh.-" font-family="Gafata-Regular, Gafata" font-size="12.628877" font-weight="700" fill="#000000">
                            <tspan x="331.332243" y="114.385765">nonummy nibh. </tspan>
                        </text>
                    </g>
                </g>
            </g>
        </g>
    </g>
</svg>