<?xml version="1.0" encoding="UTF-8"?>
<svg width="44px" height="32px" viewBox="0 0 44 32" version="1.1" xmlns="http://www.w3.org/2000/svg" xmlns:xlink="http://www.w3.org/1999/xlink">
    <!-- Generator: Sketch 45.1 (43504) - http://www.bohemiancoding.com/sketch -->
    <title>Shape</title>
    <desc>Created with Sketch.</desc>
    <defs></defs>
    <g id="Portfolio" stroke="none" stroke-width="1" fill="none" fill-rule="evenodd">
        <g id="Home-Page" transform="translate(-1116.000000, -5301.000000)" fill-rule="nonzero" fill="#FFFFFF">
            <g id="Work-With-Me" transform="translate(721.000000, 5000.811203)">
                <g id="Download-Button" transform="translate(242.500000, 293.463428)">
                    <g id="Download-Icon" transform="translate(152.274816, 7.415482)">
                        <path d="M26.3174786,8.34647477 C26.5365447,8.53351601 26.6543056,8.78890954 26.6427976,9.05200941 L26.6427976,29.717119 C26.6545953,29.9932516 26.5300778,30.2610944 26.2990774,30.4564771 C26.0680771,30.6518598 25.7514073,30.7571781 25.4249365,30.7471995 L1.46810657,30.7471995 C1.14442819,30.7490942 0.833357223,30.6411767 0.604476568,30.4475869 C0.375595912,30.2539971 0.248005369,29.9908898 0.250245438,29.717119 L0.250245438,0.99480384 C0.281091833,0.442900414 0.814914336,0.00685014359 1.46810657,0 L15.8989268,0 C16.0587827,0.00272419782 16.216855,0.028986553 16.3660516,0.0776088102 C16.4993525,0.147977268 16.6249723,0.228255515 16.7414198,0.317490587 L26.2674295,8.30414269 L26.3174786,8.34647477 Z M24.1903923,28.6940937 L24.1903923,10.08209 L15.8488777,10.08209 C15.5251994,10.0839847 15.2141284,9.97606715 14.9852477,9.78247733 C14.7563671,9.58888751 14.6287765,9.3257802 14.6310166,9.05200941 L14.6310166,1.99666303 L2.67762619,1.99666303 L2.67762619,28.6658724 L24.1903923,28.6658724 L24.1903923,28.6940937 Z M17.116788,8.02898418 L22.5220894,8.02898418 L17.150154,3.48534111 L17.150154,8.02898418 L17.116788,8.02898418 Z M37.995599,23.078038 C37.7977213,23.3534771 37.4423705,23.5198583 37.0613494,23.5154695 C36.6639104,23.5307754 36.2876204,23.3635486 36.0770506,23.078038 L30.863604,17.0739382 C30.462065,16.6137214 30.5655024,15.9669313 31.0971664,15.6134815 C31.3556763,15.4573314 31.6771471,15.3948458 31.9903179,15.439876 C32.3034888,15.4849061 32.582488,15.6337321 32.7654694,15.8533633 L35.8518298,19.3810365 L35.8518298,9.56704969 C35.8400321,9.29091707 35.9645496,9.02307421 36.19555,8.82769151 C36.4265503,8.63230881 36.7432201,8.52699056 37.0696909,8.53696912 C37.3933693,8.53507445 37.7044402,8.64299196 37.9333209,8.83658178 C38.1622015,9.03017159 38.2897921,9.2932789 38.287552,9.56704969 L38.287552,19.3669258 L41.3238633,15.8392526 C41.5068447,15.6196214 41.7858439,15.4707954 42.0990147,15.4257653 C42.4121856,15.3807351 42.7336564,15.4432207 42.9921663,15.5993709 C43.5465844,15.9430898 43.6727978,16.5993051 43.2757777,17.0739382 L37.995599,23.078038 Z" id="Shape"></path>
                    </g>
                </g>
            </g>
        </g>
    </g>
</svg>