<?xml version="1.0" encoding="UTF-8"?>
<svg width="42px" height="32px" viewBox="0 0 42 32" version="1.1" xmlns="http://www.w3.org/2000/svg" xmlns:xlink="http://www.w3.org/1999/xlink">
    <!-- Generator: Sketch 45.1 (43504) - http://www.bohemiancoding.com/sketch -->
    <title>Strategy</title>
    <desc>Created with Sketch.</desc>
    <defs></defs>
    <g id="Portfolio" stroke="none" stroke-width="1" fill="none" fill-rule="evenodd">
        <g id="Home-Page" transform="translate(-118.000000, -5180.000000)" fill-rule="nonzero" fill="#6B6B6B">
            <g id="Services-Offered" transform="translate(49.000000, 5073.811203)">
                <g id="Services-Icons" transform="translate(69.997086, 106.566443)">
                    <g id="Strategy" transform="translate(0.447876, 0.354361)">
                        <path d="M33.972973,0.365004592 L5.75675676,0.365004592 C2.67567568,0.365004592 0.162162162,3.16337313 0.162162162,6.57008265 L0.162162162,23.7252985 C0.162162162,27.132008 2.67567568,29.9303765 5.75675676,29.9303765 L33.972973,29.9303765 C37.0540541,29.9303765 39.5675676,27.132008 39.5675676,23.7252985 L39.5675676,6.57008265 C39.5675676,3.16337313 37.0540541,0.365004592 33.972973,0.365004592 Z M37.3783784,23.7252985 C37.3783784,25.915326 35.8378378,27.740349 33.972973,27.740349 L5.75675676,27.740349 C3.89189189,27.740349 2.35135135,25.9558821 2.35135135,23.7252985 L2.35135135,9.81456791 L37.3783784,9.81456791 L37.3783784,23.7252985 Z M37.3783784,7.58398429 L2.35135135,7.58398429 L2.35135135,6.57008265 C2.35135135,4.3800551 3.89189189,2.55503214 5.75675676,2.55503214 L33.972973,2.55503214 C35.8378378,2.55503214 37.3783784,4.33949903 37.3783784,6.57008265 L37.3783784,7.58398429 Z" id="Shape" stroke="#FCFCFC" stroke-width="1.5"></path>
                        <ellipse id="Oval" cx="23.9594595" cy="5.02895215" rx="1.37837838" ry="1.37890624"></ellipse>
                        <ellipse id="Oval" cx="28.2162162" cy="5.02895215" rx="1.37837838" ry="1.37890624"></ellipse>
                        <ellipse id="Oval" cx="32.6756757" cy="5.02895215" rx="1.37837838" ry="1.37890624"></ellipse>
                        <ellipse id="Oval" cx="28.5" cy="15.3707489" rx="1.41891892" ry="1.4194623"></ellipse>
                        <path d="M16.9054054,14.7624079 C16.7837838,14.802964 16.6621622,14.8435201 16.5405405,14.802964 C16.4189189,14.7624079 16.3378378,14.6812958 16.2972973,14.5596276 L16.2972973,14.5596276 C16.2567568,14.4379594 16.2162162,14.3162912 16.2567568,14.194623 L16.5405405,13.3835017 L15.7702703,13.0996092 C15.6486486,13.0590532 15.5675676,12.977941 15.527027,12.8562728 C15.4864865,12.7346046 15.4459459,12.6129364 15.4864865,12.4912682 C15.527027,12.3696001 15.6081081,12.2884879 15.7297297,12.2479319 C15.8513514,12.2073758 15.972973,12.1668197 16.0945946,12.2479319 L16.8243243,12.5723804 L17.0675676,11.8018151 C17.1486486,11.5584787 17.4324324,11.3962545 17.6756757,11.5179227 C17.7972973,11.5584787 17.8783784,11.6395909 17.9189189,11.7612591 C17.9594595,11.8829273 18,12.0045955 17.9594595,12.1262637 L17.6756757,12.8968289 L18.4459459,13.1807214 C18.5675676,13.2212774 18.6486486,13.3023896 18.6891892,13.4240578 C18.7297297,13.545726 18.7702703,13.6673942 18.7297297,13.7890624 C18.6891892,13.9107306 18.6081081,13.9918427 18.4864865,14.0323987 C18.3648649,14.0729548 18.2432432,14.1135109 18.1216216,14.0323987 L17.3918919,13.7079502 L17.1486486,14.4785155 C17.1081081,14.6407397 17.027027,14.7218519 16.9054054,14.7624079 Z" id="Shape"></path>
                        <path d="M11.7567568,19.101907 C11.6351351,19.142463 11.5135135,19.1830191 11.3918919,19.142463 C11.2702703,19.101907 11.1891892,19.0207948 11.1486486,18.8991266 L11.1486486,18.8991266 C11.1081081,18.7774584 11.0675676,18.6557902 11.1081081,18.534122 L11.3918919,17.7230007 L10.6216216,17.4391083 C10.5,17.3985522 10.4189189,17.3174401 10.3783784,17.1957719 C10.3378378,17.0741037 10.2972973,16.9524355 10.3378378,16.8307673 C10.3783784,16.7090991 10.4594595,16.627987 10.5810811,16.5874309 C10.7027027,16.5468748 10.8243243,16.5063188 10.9459459,16.5874309 L11.6756757,16.9118794 L11.9189189,16.1413142 C12,15.8979778 12.2837838,15.7357535 12.527027,15.8574217 C12.6486486,15.8979778 12.7297297,15.9790899 12.7702703,16.1007581 C12.8108108,16.2224263 12.8513514,16.3440945 12.8108108,16.4657627 L12.527027,17.2363279 L13.2972973,17.5202204 C13.4189189,17.5607765 13.5,17.6418886 13.5405405,17.7635568 C13.5810811,17.885225 13.6216216,18.0068932 13.5810811,18.1285614 C13.5405405,18.2502296 13.4594595,18.3313417 13.3378378,18.3718978 C13.2162162,18.4124538 13.0945946,18.4530099 12.972973,18.3718978 L12.2432432,18.0474493 L12,18.8180145 C11.9594595,18.9396827 11.8378378,19.0613509 11.7567568,19.101907 Z" id="Shape"></path>
                        <path d="M18.8918919,24.5769758 C18.7702703,24.6175319 18.6486486,24.658088 18.527027,24.6175319 C18.4054054,24.5769758 18.3243243,24.4958637 18.2837838,24.3741955 L18.2837838,24.3741955 C18.2432432,24.2525273 18.2027027,24.1308591 18.2432432,24.0091909 L18.527027,23.1980696 L17.7567568,22.9141771 C17.6351351,22.8736211 17.5540541,22.7925089 17.5135135,22.6708408 C17.472973,22.5491726 17.4324324,22.4275044 17.472973,22.3058362 C17.5135135,22.184168 17.5945946,22.1030558 17.7162162,22.0624998 C17.8378378,22.0219437 17.9594595,21.9813876 18.0810811,22.0624998 L18.8108108,22.3869483 L19.0540541,21.616383 C19.1351351,21.3730466 19.4189189,21.2108224 19.6621622,21.3324906 C19.7837838,21.3730466 19.8648649,21.4541588 19.9054054,21.575827 C19.9459459,21.6974952 19.9864865,21.8191634 19.9459459,21.9408316 L19.6621622,22.7113968 L20.4324324,22.9952893 C20.5540541,23.0358453 20.6351351,23.1169575 20.6756757,23.2386257 C20.7162162,23.3602939 20.7567568,23.4819621 20.7162162,23.6036303 C20.6756757,23.7252985 20.5945946,23.8064106 20.472973,23.8469667 C20.3513514,23.8875227 20.2297297,23.9280788 20.1081081,23.8469667 L19.3783784,23.5225181 L19.1351351,24.2930834 C19.0945946,24.4147516 19.0135135,24.4958637 18.8918919,24.5769758 Z" id="Shape"></path>
                        <path d="M24.6486486,22.9547332 C24.527027,22.9952893 24.4054054,23.0358453 24.2837838,22.9952893 C24.1621622,22.9547332 24.0810811,22.8736211 24.0405405,22.7519529 L24.0405405,22.7519529 C24,22.6302847 23.9594595,22.5086165 24,22.3869483 L24.2837838,21.575827 L23.5135135,21.2513784 C23.3918919,21.2108224 23.3108108,21.1297103 23.2702703,21.0080421 C23.2297297,20.8863739 23.1891892,20.7647057 23.2297297,20.6430375 C23.2702703,20.5213693 23.3513514,20.4402571 23.472973,20.3997011 C23.5945946,20.359145 23.7162162,20.3185889 23.8378378,20.3997011 L24.5675676,20.7241496 L24.8108108,19.9535843 C24.8918919,19.710248 25.1756757,19.5480237 25.4189189,19.6696919 C25.5405405,19.710248 25.6216216,19.7913601 25.6621622,19.9130283 C25.7027027,20.0346965 25.7432432,20.1563647 25.7027027,20.2780329 L25.4189189,21.0485981 L26.1891892,21.3324906 C26.3108108,21.3730466 26.3918919,21.4541588 26.4324324,21.575827 C26.472973,21.6974952 26.5135135,21.8191634 26.472973,21.9408316 C26.4324324,22.0624998 26.3513514,22.1436119 26.2297297,22.184168 C26.1081081,22.224724 25.9864865,22.2652801 25.8648649,22.184168 L25.1351351,21.9002755 L24.8918919,22.6708408 C24.8513514,22.7925089 24.7702703,22.8736211 24.6486486,22.9547332 Z" id="Shape"></path>
                        <path d="M22.8648649,13.4240578 C22.6216216,13.6673942 22.6216216,14.0323987 22.8648649,14.2757351 L23.4324324,14.802964 C15.8513514,15.411305 13.6216216,20.3997011 13.0540541,22.3058362 C12.2432432,22.4275044 11.5540541,23.1169575 11.472973,24.0091909 C11.472973,24.2119712 11.472973,24.4147516 11.5135135,24.6175319 C11.6756757,25.3880972 12.3648649,25.9964381 13.1756757,26.0775503 C13.6621622,26.1181063 14.1891892,25.9558821 14.5540541,25.6314335 C14.9594595,25.306985 15.2027027,24.8608683 15.2432432,24.3336394 C15.3243243,23.5225181 14.8783784,22.7925089 14.2297297,22.4680604 C14.7567568,20.7647057 16.7432432,16.5468748 23.4324324,16.019646 L22.8648649,16.7090991 C22.7432432,16.8713233 22.7027027,17.0335476 22.7432432,17.2363279 C22.7837838,17.3579961 22.8243243,17.4796643 22.9459459,17.5607765 C23.1891892,17.7635568 23.5945946,17.7230007 23.7972973,17.4796643 L25.2567568,15.6951974 C25.4594595,15.451861 25.4189189,15.0868565 25.2162162,14.8840761 L23.7162162,13.3835017 C23.5135135,13.2212774 23.1081081,13.2212774 22.8648649,13.4240578 Z M13.4189189,23.4819621 C13.7432432,23.5225181 13.9864865,23.7252985 14.027027,24.0091909 C14.027027,24.0903031 14.0675676,24.1714152 14.027027,24.2119712 C14.027027,24.4147516 13.9054054,24.5769758 13.7837838,24.698644 C13.6216216,24.8203122 13.4594595,24.8608683 13.2567568,24.8608683 C12.8513514,24.8203122 12.5675676,24.4958637 12.6081081,24.0903031 L12.6081081,24.0903031 C12.6891892,23.7252985 13.0540541,23.441406 13.4189189,23.4819621 Z" id="Shape"></path>
                    </g>
                </g>
            </g>
        </g>
    </g>
</svg>