<?xml version="1.0" encoding="UTF-8"?>
<svg width="30px" height="25px" viewBox="0 0 30 25" version="1.1" xmlns="http://www.w3.org/2000/svg" xmlns:xlink="http://www.w3.org/1999/xlink">
    <!-- Generator: Sketch 45.1 (43504) - http://www.bohemiancoding.com/sketch -->
    <title>twitter</title>
    <desc>Created with Sketch.</desc>
    <defs>
        <polygon id="path-1" points="0.0064573991 24.0578685 29.423139 24.0578685 29.423139 0.088703543 0.0064573991 0.088703543"></polygon>
    </defs>
    <g id="Portfolio" stroke="none" stroke-width="1" fill="none" fill-rule="evenodd" opacity="0.5">
        <g id="Footer" transform="translate(-656.000000, -504.000000)">
            <g transform="translate(101.000000, 449.000000)" id="social">
                <g transform="translate(0.000000, 50.301320)">
                    <g id="twitter" transform="translate(555.000000, 5.000000)">
                        <mask id="mask-2" fill="white">
                            <use xlink:href="#path-1"></use>
                        </mask>
                        <g id="Clip-2"></g>
                        <path d="M29.423139,2.92689318 C28.3405561,3.40828796 27.177148,3.73364219 25.9560538,3.87997067 C27.2024395,3.13084658 28.1595336,1.9446795 28.6102601,0.531357963 C27.4439462,1.22490744 26.1520359,1.72863997 24.7770404,2.00014619 C23.6758386,0.823799084 22.1070135,0.088703543 20.3708341,0.088703543 C17.0369865,0.088703543 14.3341345,2.7986939 14.3341345,6.14126354 C14.3341345,6.61564404 14.3876233,7.07761469 14.4905112,7.52059284 C9.4735426,7.26818702 5.02557848,4.85851535 2.048287,1.19663454 C1.52868161,2.09057632 1.23099552,3.13030702 1.23099552,4.23953296 C1.23099552,6.3393897 2.29678924,8.19202039 3.91652018,9.2773978 C2.92692377,9.24599546 1.99619731,8.97373385 1.18224215,8.52039616 C1.18181166,8.54564753 1.18181166,8.57100682 1.18181166,8.59647401 C1.18181166,11.5290865 3.2626009,13.9754482 6.02410762,14.5314101 C5.51752466,14.6697531 4.98425112,14.7436727 4.43365022,14.7436727 C4.04469955,14.7436727 3.66651121,14.7057956 3.29800897,14.6351134 C4.06611659,17.0398211 6.29542601,18.7897197 8.93693274,18.8386038 C6.87099552,20.4619218 4.26812556,21.4295674 1.44,21.4295674 C0.952789238,21.4295674 0.472251121,21.4009707 0,21.3450724 C2.67142601,23.0623816 5.8444843,24.0643432 9.25345291,24.0643432 C20.3567354,24.0643432 26.4284126,14.8414408 26.4284126,6.84312223 C26.4284126,6.5806806 26.4226009,6.31964183 26.4109776,6.06011383 C27.5903139,5.2067469 28.6138117,4.1406857 29.423139,2.92689318" id="Fill-1" fill="#4B4B4B" mask="url(#mask-2)"></path>
                    </g>
                </g>
            </g>
        </g>
    </g>
</svg>