<?xml version="1.0" encoding="UTF-8"?>
<svg width="40px" height="46px" viewBox="0 0 40 46" version="1.1" xmlns="http://www.w3.org/2000/svg" xmlns:xlink="http://www.w3.org/1999/xlink">
    <!-- Generator: Sketch 45.1 (43504) - http://www.bohemiancoding.com/sketch -->
    <title>UI/UX</title>
    <desc>Created with Sketch.</desc>
    <defs></defs>
    <g id="Portfolio" stroke="none" stroke-width="1" fill="none" fill-rule="evenodd">
        <g id="Home-Page" transform="translate(-119.000000, -5242.000000)">
            <g id="Services-Offered" transform="translate(49.000000, 5073.811203)">
                <g id="Services-Icons" transform="translate(69.997086, 106.566443)">
                    <g id="UI/UX" transform="translate(0.447876, 62.023743)">
                        <g id="Group">
                            <path d="M17.1692308,17.9761122 C21.7846154,17.9761122 25.5384615,14.2208285 25.5384615,9.60367637 C25.5384615,4.98652427 21.7846154,1.23124056 17.1692308,1.23124056 C12.5538462,1.23124056 8.8,4.98652427 8.8,9.60367637 C8.8,14.2208285 12.5538462,17.9761122 17.1692308,17.9761122 Z" id="Shape"></path>
                            <path d="M28.7384615,36.8756548 L33.2307692,30.4732039 C32.0615385,29.7344595 30.7076923,29.3035253 29.2307692,29.3035253 C25.1076923,29.3035253 21.7846154,32.6278748 21.7846154,36.7525307 C21.7846154,40.8771866 25.1076923,44.2015361 29.2307692,44.2015361 C33.2307692,44.2015361 36.4923077,41.0618727 36.6769231,37.1219029 L28.7384615,37.6143991 L28.7384615,36.8756548 L28.7384615,36.8756548 Z" id="Shape"></path>
                            <path d="M36.9230769,30.5963279 L34.5846154,33.9206774 L38.5230769,33.6744293 C38.3384615,32.5047508 37.7846154,31.3966343 36.9230769,30.5963279 Z" id="Shape"></path>
                            <path d="M28.9846154,21.916082 L30.0923077,26.286986 L31.2,25.9791758 L29.8461538,20.8079655 L21.3538462,20.8079655 L21.2923077,21.3004617 C21.2923077,21.3004617 21.1076923,22.4085782 20.5538462,23.4551327 C19.7538462,24.8094973 18.6461538,25.5482416 17.2307692,25.5482416 C13.7846154,25.5482416 13.1692308,21.4851478 13.1076923,21.3004617 L13.0461538,20.8079655 L4.55384615,20.8079655 L0.307692308,37.429713 L1.41538462,37.6759611 L5.41538462,21.916082 L12.0615385,21.916082 C12.4923077,23.7629428 13.9076923,26.6563581 17.1692308,26.6563581 C20.4307692,26.6563581 21.9076923,23.8245048 22.2769231,21.916082 L28.9846154,21.916082 Z" id="Shape" fill="#6B6B6B" fill-rule="nonzero"></path>
                            <path d="M17.1692308,19.2073527 C22.4615385,19.2073527 26.7692308,14.8980108 26.7692308,9.60367637 C26.7692308,4.30934196 22.4615385,0 17.1692308,0 C11.8769231,0 7.56923077,4.30934196 7.56923077,9.60367637 C7.56923077,14.8980108 11.8769231,19.2073527 17.1692308,19.2073527 Z M17.1692308,1.23124056 C21.7846154,1.23124056 25.5384615,4.98652427 25.5384615,9.60367637 C25.5384615,14.2208285 21.7846154,17.9761122 17.1692308,17.9761122 C12.5538462,17.9761122 8.8,14.2208285 8.8,9.60367637 C8.8,4.98652427 12.5538462,1.23124056 17.1692308,1.23124056 Z" id="Shape" fill="#6B6B6B" fill-rule="nonzero"></path>
                            <path d="M37.7846154,36.0137864 L30.4,36.5062826 L34.7692308,30.2269557 L34.3384615,29.9191456 C32.8615385,28.8110291 31.1384615,28.2569709 29.2923077,28.2569709 C24.6153846,28.2569709 20.8,32.0738166 20.8,36.7525307 C20.8,41.4312448 24.6153846,45.2480906 29.2923077,45.2480906 C33.9692308,45.2480906 37.7846154,41.4312448 37.7846154,36.7525307 C37.7846154,36.6909687 37.7846154,36.6294067 37.7846154,36.5062826 L37.7846154,36.0137864 Z M29.2923077,44.2015361 C25.1692308,44.2015361 21.8461538,40.8771866 21.8461538,36.7525307 C21.8461538,32.6278748 25.1692308,29.3035253 29.2923077,29.3035253 C30.7076923,29.3035253 32.0615385,29.6728975 33.2923077,30.4732039 L28.8,36.8756548 L28.8,37.6143991 L36.7384615,37.1219029 C36.4923077,41.0618727 33.2307692,44.2015361 29.2923077,44.2015361 Z" id="Shape" fill="#6B6B6B" fill-rule="nonzero"></path>
                            <path d="M37.1076923,29.5497734 L36.7384615,29.2419633 L33.2923077,34.1669255 L33.2307692,34.2900496 L33.2307692,34.9056699 L39.5076923,34.5362977 L39.5076923,34.1053635 C39.3846154,32.2585027 38.5230769,30.6578899 37.1076923,29.5497734 Z M34.5846154,33.9206774 L36.9230769,30.5963279 C37.8461538,31.3966343 38.4,32.5047508 38.5230769,33.6744293 L34.5846154,33.9206774 Z" id="Shape" fill="#6B6B6B" fill-rule="nonzero"></path>
                        </g>
                    </g>
                </g>
            </g>
        </g>
    </g>
</svg>