<?xml version="1.0" encoding="UTF-8"?>
<svg width="41px" height="27px" viewBox="0 0 41 27" version="1.1" xmlns="http://www.w3.org/2000/svg" xmlns:xlink="http://www.w3.org/1999/xlink">
    <!-- Generator: Sketch 45.1 (43504) - http://www.bohemiancoding.com/sketch -->
    <title>Web Design</title>
    <desc>Created with Sketch.</desc>
    <defs></defs>
    <g id="Portfolio" stroke="none" stroke-width="1" fill="none" fill-rule="evenodd">
        <g id="Home-Page" transform="translate(-119.000000, -5319.000000)" fill-rule="nonzero" fill="#6B6B6B">
            <g id="Services-Offered" transform="translate(49.000000, 5073.811203)">
                <g id="Services-Icons" transform="translate(69.997086, 106.566443)">
                    <g id="Web-Design" transform="translate(0.447876, 138.663242)">
                        <path d="M24.3471845,8.57027106 L6.11883495,8.57027106 C5.8368932,8.57027106 5.60776699,8.79870803 5.60776699,9.08153474 C5.60776699,9.36436146 5.8368932,9.59279842 6.11883495,9.59279842 L24.3471845,9.59279842 C24.6287379,9.59279842 24.8578641,9.36436146 24.8578641,9.08153474 C24.8578641,8.79870803 24.6283495,8.57027106 24.3471845,8.57027106 Z" id="Shape"></path>
                        <path d="M24.3471845,12.5749109 L6.11883495,12.5749109 C5.8368932,12.5749109 5.60776699,12.8033478 5.60776699,13.0861745 C5.60776699,13.3686128 5.8368932,13.5974382 6.11883495,13.5974382 L24.3471845,13.5974382 C24.6287379,13.5974382 24.8578641,13.3686128 24.8578641,13.0861745 C24.8578641,12.8033478 24.6283495,12.5749109 24.3471845,12.5749109 Z" id="Shape"></path>
                        <path d="M24.3471845,16.5795507 L16.8512621,16.5795507 C16.568932,16.5795507 16.3401942,16.8083761 16.3401942,17.0908144 C16.3401942,17.3732526 16.568932,17.6016895 16.8512621,17.6016895 L24.3471845,17.6016895 C24.6287379,17.6016895 24.8578641,17.3732526 24.8578641,17.0908144 C24.8578641,16.8083761 24.6283495,16.5795507 24.3471845,16.5795507 Z" id="Shape"></path>
                        <path d="M37.0594175,9.33716658 C36.8656311,9.14291746 36.5483495,9.13747849 36.3491262,9.32162665 L32.8640777,12.5578169 L32.8640777,2.41490503 C32.8640777,1.24941032 31.9180583,0.303417121 30.7576699,0.303417121 L2.39495146,0.303417121 C1.22990291,0.303417121 0.284271845,1.24941032 0.284271845,2.41490503 L0.284271845,24.7819139 C0.284271845,25.9427466 1.22990291,26.8883513 2.39495146,26.8883513 L30.7580583,26.8883513 C31.9184466,26.8883513 32.864466,25.9427466 32.864466,24.7819139 L32.864466,19.2399866 L39.5491262,12.5527665 C39.7483495,12.3530784 39.7483495,12.0306248 39.5491262,11.8317137 L37.0594175,9.33716658 Z M1.30679612,2.41490503 C1.30679612,1.81661775 1.79223301,1.32594448 2.39533981,1.32594448 L30.7592233,1.32594448 C31.3572816,1.32594448 31.8423301,1.81661775 31.8423301,2.41490503 L31.8423301,4.48016165 L1.30679612,4.48016165 L1.30679612,2.41490503 Z M31.8423301,24.7819139 C31.8423301,25.3802012 31.3572816,25.865824 30.7592233,25.865824 L2.39533981,25.865824 C1.79262136,25.865824 1.30679612,25.3802012 1.30679612,24.7819139 L1.30679612,5.5030775 L31.8419417,5.5030775 L31.8419417,13.5092491 L25.678835,19.2298856 C25.5763107,19.3270102 25.5157282,19.4598766 25.5157282,19.6028439 L25.5157282,22.5426101 C25.5157282,22.8285448 25.7452427,23.0534853 26.0264078,23.0534853 L28.8372816,23.0534853 C28.9747573,23.0534853 29.1029126,23.0022035 29.1996117,22.9050789 L31.8419417,20.2621254 L31.8419417,24.7819139 L31.8423301,24.7819139 Z M35.7266019,14.9303757 L32.864466,17.7932192 L31.8423301,18.8157465 L28.6283495,22.0313464 L26.5382524,22.0313464 L26.5382524,19.8277844 L31.8423301,14.9043463 L32.864466,13.9536911 L33.8866019,13.0026474 L33.887767,13.0022589 L35.7266019,14.9303757 L35.7266019,14.9303757 Z M36.4497087,14.2066035 L34.6380583,12.3072356 L34.6380583,12.3068471 L36.6823301,10.4101987 L38.4660194,12.1895206 L36.4497087,14.2066035 Z" id="Shape"></path>
                    </g>
                </g>
            </g>
        </g>
    </g>
</svg>